<svg width="448" height="415" viewBox="0 0 448 415" fill="none" xmlns="http://www.w3.org/2000/svg">
<path d="M337.96 7.75192C343.933 7.8901 347.17 8.72048 352.905 10.571C353.403 11.7315 354.365 13.7981 354.718 14.916C355.411 17.9144 355.43 21.245 358.545 22.7508C363.465 25.1291 363.018 25.5482 364.075 30.33C364.175 30.7305 364.446 31.928 364.578 32.243C365.26 43.31 365.805 59.4453 365.482 70.7375C364.92 76.8393 365.049 132.824 366.354 136.173C367.283 133.922 367.292 127.061 366.986 124.595L366.999 122.382C367.713 119.76 367.633 107.812 367.821 104.431C368.969 83.7997 366.861 58.0791 369.461 37.8416C371.012 43.3699 369.417 52.6255 370.878 58.3619C370.951 86.1994 370.341 118.273 371.973 145.845C375.833 146.083 378.477 146.124 382.343 146.009C386.03 146.45 391.079 145.754 394.97 145.562C399.926 145.317 410.753 146.476 414.928 144.941L414.968 143.629C414.283 143.142 413.918 142.829 413.295 142.27L414.257 141.627C412.799 139.933 400.975 140.778 399.599 139.755C405.469 138.467 425.754 137.519 431.668 138.752C432.446 139.631 431.916 152.404 431.614 154.075C431.647 160.122 426.734 162.944 423.73 167.668C420.694 172.444 417.834 177.313 414.842 182.125C411.439 187.595 406.956 186.083 406.967 192.62C406.97 194.911 406.378 197.032 408.41 198.791C414.946 200.134 421.682 200.492 428.219 201.77L431.228 202.379C431.665 202.77 432.762 203.586 432.854 204.099C433.681 208.741 436.09 209.431 439.317 211.105C440.075 215.031 440.015 216.579 440.454 220.194C439.306 228.139 437.218 224.531 433.621 227.972L433.99 230.56L433.455 231.159C432.676 232.369 432.532 232.866 432.305 234.254C431.367 235.056 431.14 235.125 429.968 235.582C427.689 236.169 424.468 236.325 423.225 237.494C422.453 239.073 422.545 240.222 422.49 241.962C422.691 244.392 422.991 247.163 423.006 249.571L423.541 250.139L426.458 250.923C427.836 251.248 428.35 251.386 429.797 251.448C430.767 252.933 431.004 256.301 430.598 258.032C428.794 260.04 426.821 258.344 423.894 260.187C422.781 261.454 423.27 262.399 423.002 263.842C422.276 267.745 414.837 267.779 411.638 268.541C408.702 268.01 404.817 266.951 404.055 271.066C403.732 272.808 403.439 273.934 404.186 275.609C399.365 277.617 396.194 279.531 394.347 284.398C391.555 285.365 390.825 284.222 388.77 286.285C378.393 290.634 381.791 305.95 381.33 314.428C381.181 317.904 381.357 338.003 381.952 340.907L382.259 342.402C384.968 341.468 383.315 334.869 384.129 332.794C386.255 334.118 384.796 339.283 385.694 340.706C386.047 338.838 385.65 335.761 385.999 334.947L386.688 337.306L387.169 336.947L387.123 337.317C386.813 339.981 387.795 342.377 388.671 344.908L388.936 359.549C388.953 365.374 389.767 383.344 389.222 388.007C388.421 389.26 388.503 392.841 389.372 394.043L389.58 395.247L389.57 396.415L389.057 399.41L389.175 400.397C388.408 404.417 389.508 404.567 385.246 406.145C383.111 406.431 372.647 408.625 370.453 409.211C364.426 408.716 352.815 409.469 346.134 409.637C340.923 409.767 328.985 409.687 324.482 410.218L324.174 410.185C316.549 408.176 308.198 405.241 305.113 397.19C304.209 394.828 304.169 391.845 302.753 389.69C301.168 388.626 300.499 388.626 298.59 388.371L297.404 389.303L297.01 389.129C295.636 384.976 296.603 380.059 295.472 375.706L295.41 373.385C296.097 369.363 296.589 340.13 290.511 340.777C289.409 343.229 290.184 346.757 289.315 348.087L288.015 337.271C288.201 335.758 287.931 324.745 286.682 324.648C274.758 323.716 254.337 322.408 242.768 323.763C223.471 324.185 203.779 322.135 184.395 323.474C179.31 323.825 173.958 324.654 168.935 324.774C163.451 332.101 160.946 334.653 158.77 343.279C152.645 346.337 152.361 351.198 149.175 356.704C145.827 362.489 142.854 368.429 139.945 374.425C133.385 378.436 134.443 384.164 129.068 390.4C124.122 396.139 120.211 398.931 114.301 403.734L114.205 404.262L114.972 404.95C112.689 407.874 99.2884 407.878 98.7316 411.025L99.5382 411.909L99.3107 412.736C93.6674 414.319 63.8708 413.815 56.3963 413.434C54.3223 411.958 50.4719 413.308 49.8525 412.992C40.8236 408.373 22.5225 411.9 22.7481 398.022C22.7564 397.514 23.5841 396.993 24.0063 396.617C24.1632 391.956 25.7202 385.017 30.0877 382.262C33.2369 380.275 33.9635 379.298 34.0985 375.511C34.3414 368.72 42.6567 366.955 41.9371 359.768C41.8377 358.772 48.6119 355.741 49.8471 355.118C49.3743 351.603 52.6496 345.692 55.1065 343.231C58.8557 339.476 57.4581 339.304 58.6769 334.476C58.9083 333.558 62.6302 330.792 62.7216 330.507C63.2326 328.918 63.1387 327.473 64.1355 325.773C65.3721 325.229 65.7044 325.096 66.7553 324.278C68.1106 321.521 67.3612 318.719 68.2303 316.512C69.5355 313.197 75.2648 308.272 75.5012 304.98C75.6834 302.443 75.6368 299.644 76.706 297.36L77.9144 297.87C77.5533 298.74 77.5151 298.356 77.6879 299.106C79.5627 298.7 80.5401 298.15 82.2451 297.324C83.4956 294.551 87.2299 278.774 86.9503 275.38C86.7332 272.747 81.8502 265.707 78.9538 264.465C76.7711 263.529 76.7299 263.926 75.2906 261.855C75.381 258.029 71.1456 257.202 68.4434 255.203C68.2715 255.076 66.8819 250.962 66.7409 250.548L65.3642 250.671C61.2381 248.144 60.6098 248.396 59.4551 244.005C59.0851 242.596 53.4875 240.274 52.4222 238.867C51.2287 237.33 50.2379 234.522 48.23 233.772C47.0778 233.341 45.8347 232.799 44.6001 232.33C42.3299 231.469 42.7486 230.623 42.2683 228.639C42.238 228.514 41.9286 226.722 41.9286 226.722C39.9689 225.348 37.9495 224.083 36.6165 222.075C36.5684 222.008 36.5202 221.94 36.4725 221.872L35.5522 222.523C33.6238 216.217 33.3849 216.902 27.9595 213.706C27.5657 213.474 28.0787 211.888 28.1825 210.938C22.1392 207.533 22.782 207.202 21.8407 202.787C21.4999 201.189 16.6342 198.757 15.0984 194.761L14.9359 194.33C13.5421 194.607 12.593 192.973 11.8364 191.918C10.3744 189.879 10.7628 191.241 8.40886 190.833C7.85978 189.172 8.1081 181.797 8.08018 179.537C19.306 177.841 23.7982 179.167 33.4117 178.299L34.5078 178.221C39.1256 181.02 42.2519 179.952 43.3982 181.129C42.3672 181.133 38.3175 180.946 37.8671 181.204C38.1452 181.502 38.473 181.855 38.8509 182.261C41.8631 182.324 45.0311 182.821 47.857 183.407C47.0714 183.688 46.4208 183.895 45.6798 184.286C52.7783 186.059 68.1653 186.857 75.5007 185.9L82.262 185.939C95.9787 187.241 86.7228 177.455 85.0884 172.47C83.289 166.982 83.8135 158.824 80.2357 153.676C79.3457 152.395 79.3348 152.659 78.7845 150.986L78.6434 150.548L77.9993 150.652L76.5555 153.253C76.2908 152.886 74.0306 138.408 73.5285 136.259C73.6691 130.875 71.5285 114.594 81.224 117.303C83.2399 117.458 84.9647 120.626 86.3965 120.987C91.8079 122.354 95.3122 120.544 98.1779 125.788C98.4024 126.198 104.598 128.655 106.014 129.133C109.882 130.295 112.805 129.832 116.793 129.503C116.858 126.021 116.996 122.66 116.638 119.191C116.292 116.261 116.87 110.5 116.576 106.694L117.175 101.172C118.553 97.1058 117.479 92.3511 119.015 90.0208C123.762 86.4432 136.661 88.926 142.121 89.4577L142.367 89.5162C144.415 91.0073 144.526 91.7875 146.132 93.445C149.377 96.794 154.328 99.7055 159.229 97.973C160.845 97.4018 162.991 96.8154 163.792 95.3234C166.337 90.5868 167.528 85.3859 169.724 80.4853C170.904 79.6832 171.779 79.8957 173.103 79.8306C173.584 79.8073 175.979 79.745 176.193 79.3915C178.566 75.4717 178.388 70.4961 180.076 66.4494C180.072 66.4594 183.928 63.0757 184.114 62.6808C185.755 59.1944 186.571 54.8564 187.991 51.2893C187.981 51.3149 193.006 47.3068 193.422 46.6776C193.904 45.9487 193.132 44.6134 193.131 43.2226C193.129 41.5395 194.281 42.1843 194.496 41.7058C194.782 41.071 195.587 39.5499 195.863 38.9365C197.202 35.9566 198.837 34.0074 201.35 31.8719C203.074 30.4079 202.132 27.8985 203.173 26.4107C203.723 25.6242 208.364 24.0918 209.302 23.3196C210.457 22.3693 211.607 18.6519 212.887 17.7538C216.139 15.4715 221.455 15.0462 224.6 12.6436L224.545 11.3072C225.994 10.7166 229.505 10.4818 231.257 10.2798L228.811 9.91832L229.566 8.07955C238.098 7.38902 257.693 7.88388 266.966 7.84743L337.96 7.75192ZM193.053 75.2403C186.621 79.6771 185.813 86.7801 182.241 93.0482C178.92 98.8739 177.15 104.819 175.095 111.11C174.221 113.786 171.795 114.673 170.366 117.002C168.105 123.284 161.312 136.158 160.158 142.046C158.272 141.879 158.554 141.605 157.362 142.457C155.731 146.652 156.108 144.999 153.187 147.023L153.486 147.368L155.449 146.934L155.963 147.442L155.76 148.27C152.375 149.7 154.167 152.881 152.172 152.314L151.724 149.384C149.403 150.982 149.723 157.675 149.922 160.278L149.865 159.862C149.879 160.922 149.984 163.407 149.754 164.295C147.58 163.787 147.689 163.419 146.236 164.221C146.201 164.458 145.745 167.632 145.792 167.597C140.672 171.337 141.355 175.223 142.175 181.106C142.043 179.754 141.934 178.399 141.846 177.043C142.65 180.796 142.813 181.438 141.231 184.873L140.012 184.915L140.533 185.71L140.776 185.54L140.087 185.3L139.864 183.059C139.406 183.237 138.856 183.708 138.754 184.059C138.467 185.048 134.933 186.24 134.855 186.433C132.798 191.506 134.083 198.256 134.522 202.58C134.232 205.047 133.785 205.814 132.708 208.11C130.554 209.259 130.726 210.651 129.726 211.36L128.364 209.882L127.732 209.865C125.272 215.221 126.396 218.717 126.534 224.211C126.195 231.508 122.895 233.79 119.316 239.634C117.85 242.03 117.354 248.562 116.429 251.4C115.989 252.749 113.699 253.963 112.707 255.973C111.144 259.139 109.323 269.281 108.032 271.324C103.62 273.861 101.149 282.446 100.363 287.114C97.1036 289.165 92.397 298.47 91.7449 302.012C91.435 303.134 91.0098 304.662 91.0237 305.811C87.1375 309.922 86.5415 311.741 84.5232 316.858C82.8232 322.501 82.4621 324.038 77.9298 328.137C76.704 329.158 76.2049 330.688 75.5573 332.145C72.644 339.416 67.5415 348.75 63.5336 355.584C61.4357 359.162 59.1571 360.952 56.8547 365.395C52.6198 369.464 53.2029 371.045 50.7172 374.651C49.1175 377.961 46.2295 380.879 44.2236 383.921C42.4258 386.647 41.5099 391.273 40.7585 394.527C50.9432 397.014 55.5426 397.012 66.1305 397.096C67.7997 398.2 88.4159 397.305 91.9718 397.637C95.0505 397.925 104.637 394.534 106.981 391.931L106.276 391.369L106.376 390.845C108.417 390.582 111.016 390.365 112.93 389.586C115.125 388.691 115.443 384.607 116.198 383.749C119.609 379.879 123.273 375.76 126.731 371.953C127.432 371.181 127.475 365.428 128.144 364.396C129.701 361.992 133.945 357.94 135.18 355.518C135.927 354.052 135.163 350.123 136.068 347.288L137.233 347.266C137.386 348.025 137.286 348.269 137.138 349.014L137.084 349.272C138.343 348.406 142.154 346.908 142.454 346.469C143.685 344.666 142.873 339.716 144.217 337.679C144.424 338.434 144.462 338.936 145.06 339.456C146.886 336.512 142.96 334.499 150.067 331.714C151.606 331.11 150.052 327.25 150.503 326.677C155.148 320.772 160.455 314.365 166.733 309.82C171.733 306.161 175.726 311.575 178.635 306.012L181.036 305.947C189.802 305.713 198.573 305.626 207.342 305.686C222.514 306.174 237.746 306.974 252.923 307.693C256.204 308.511 260.143 308.688 262.359 309.433C261.856 309.757 260.851 309.807 260.938 309.678C259.431 311.931 256.259 310.86 253.755 310.002C253.956 312.049 254.195 312.657 253.711 314.67C256.82 315.458 259.089 314.86 262.035 315.154C263.656 315.181 268.842 315.348 270.145 315.153L273.544 315.211C280.988 315.791 286.85 314.918 294.389 316.067L295.151 316.48C296.1 318.908 296.203 319.812 296.567 322.412C301.613 323.37 303.375 322.725 303.914 328.016C304.199 333.863 305.164 340.594 305.246 346.206C305.483 349.929 305.767 353.203 305.474 356.935C305.756 358.256 305.685 358.448 305.302 359.755L305.788 360.857C306.118 361.991 305.995 362.533 305.72 363.669C306.52 364.535 306.587 364.555 307.667 365.108C308.858 364.947 309.007 364.911 310.027 364.304C310.002 363.179 309.917 362.982 309.489 361.919L309.373 361.639C310.273 360.867 310.31 360.8 311.435 360.443C311.613 364.368 311.882 368.583 311.879 372.487C311.565 376.222 310.519 387.812 312.314 390.598C313.702 390.771 315.088 390.955 316.473 391.148L316.659 391.63L316.275 391.1L316.088 391.999L313.714 392.492C314.217 394.259 318.944 394.136 320.732 394.371C320.674 397.103 319.178 395.479 320.751 397.127C326.83 399.688 364.401 398.298 373.379 396.088C376.433 395.337 376.273 397.35 377.751 395.133C379.051 393.183 377.364 391.099 378.926 389.249C379.522 389.15 379.611 389.034 380.176 388.745C381.202 385.57 380.555 369.33 380.108 365.479L379.225 365.452L377.445 365.183L376.708 364.96C377.395 362.965 377.994 358.8 376.174 357.367C374.671 358.231 375.18 357.747 374.292 359.279C374.121 360.903 374.782 361.845 375.534 363.318L374.576 364.269L374.667 364.068L374.142 363.584C374.326 361.407 373.102 357.771 371.914 355.908C371.823 350.71 370.897 309.572 369.863 307.717C369.23 305.2 370.257 303.788 368.866 299.731L368.5 300.169L368.853 300.787L368.276 301.114C367.726 302.953 367.87 305.818 367.87 307.809C367.181 311.022 368.11 320.173 367.451 323.168C367.025 325.715 367.361 330.837 366.576 332.138C365.524 330.797 365.767 310.365 365.003 306.456L364.947 304.498C365.413 299.466 364.268 291.495 364.181 285.956C364.034 268.888 363.791 251.82 363.455 234.754C364.495 230.587 363.12 206.933 363.021 201.306L363.057 195.881L363.229 193.903L363.172 193.513C362.83 191.096 363.54 188.538 362.525 187.195C360.163 185.906 359.84 186.492 357.877 184.52L357.364 184.857C357.033 186.724 357.226 187.326 357.604 189.199L357.911 189.479L358.024 187.545L358.603 187.125L358.071 187.1L358.41 186.657C358.817 187.886 358.976 188.055 358.586 189.217C359.02 190.619 359.318 191.692 358.243 193.033L357.425 193.012C357.335 193.853 357.253 194.573 357.236 195.419C357.278 198.09 357.216 201.896 357.411 204.472L357.367 210.544L356.703 210.461C355.636 209.353 356.356 169.754 355.105 164.732L355.002 160.032C355.505 149.651 355.058 136.459 355.011 125.902L355.049 71.4184C355.055 63.8041 354.431 49.5249 355.086 42.5602C355.346 39.8688 355.031 35.6762 354.899 32.8594C352.529 32.3024 350.797 31.9741 348.575 30.942C347.619 29.5835 347.301 26.5832 346.871 24.7309C344.441 24.251 341.983 23.6214 339.574 23.0369L339.814 22.1241C338.287 20.0846 338.376 19.3172 337.351 17.062C335.954 16.3402 333.796 16.6661 332.115 16.7578C330.399 17.2862 328.984 16.2261 325.921 16.7716C317.171 16.3939 305.664 16.8153 296.623 16.7721C292.022 16.4532 265.109 16.2988 262.257 17.8702C265.325 18.8078 296.214 19.0981 300.073 18.5982C308.359 18.6115 318.285 18.3844 326.417 18.6956L328.659 19.4231L328.88 19.9225L328.015 20.4942C323.997 20.7437 318.972 20.6092 314.877 20.6021C305.7 19.943 262.401 19.9268 254.373 21.5909C264.601 22.2158 287.877 23.6356 297.531 22.4448C305.501 22.0247 324.417 23.417 331.178 22.1645L331.283 22.6967L329.305 23.9174C296.386 25.1096 263.07 23.0801 230.196 25.1562C217.564 25.954 215.246 35.5826 209.61 44.0375C203.097 53.8082 196.548 64.0531 193.053 75.2403ZM306.397 366.618C306.331 368.681 305.829 370.74 306.622 372.264C306.994 372.325 307.74 372.472 308.081 372.473L307.989 372.085C307.563 370.205 307.738 369.651 308.155 367.771C307.397 366.794 307.718 367.11 306.397 366.618ZM58.6724 402.724L59.2555 403.962C61.3543 404.466 73.0105 405.199 74.7627 404.349L75.1952 403.811C71.2633 402.082 64.0153 403.448 58.6724 402.724ZM369.871 298.17C369.689 296.1 369.934 293.179 368.938 291.724L368.054 291.166C367.901 293.166 367.444 296.285 368.088 298.075L368.826 298.513L369.871 298.17Z" fill="#FFD700"/>
<path d="M262.514 104.31C267.035 105.991 275.26 102.293 278.774 106.128L278.921 106.758C279.072 118.174 279.601 131.558 280.07 143.03C278.995 145.662 278.216 149.947 280.293 152.186C282.054 153.01 283.837 153.016 285.789 153.163L286.416 152.532L287.377 152.982C287.439 155.04 287.698 159.686 287.546 161.534C287.172 165.789 287.133 183.103 288.72 186.514L289.476 186.949L291.386 186.275C294.088 187.594 294.456 192.178 295.324 194.756C295.536 202.339 296.675 227.617 295.485 233.921L294.278 233.408L294.022 233.556C292.907 234.192 290.883 234.818 290.103 235.412C286.391 238.241 287.49 238.411 282.841 239.612L282.97 241.58C280.837 243.143 281.113 241.594 279.712 242.895C270.497 243.407 259.001 243.194 249.671 243.162L202.586 242.934C197.105 242.425 193.939 241.248 189.104 240.515C184.864 239.873 175.977 239.308 171.576 239.249C170.18 240.066 170.652 239.62 169.943 241.462L169.083 240.718C168.146 238.262 169.843 237.477 168.281 235.279C167.621 234.13 168.331 228.266 168.858 226.831C170.312 225.407 173.79 227.309 177.107 225.901L177.905 225.824C181.767 226.403 198.946 226.028 199.758 221.547C203.756 215.974 201.83 213.183 208.267 210.187C212.818 199.441 216.4 199.93 219.867 188.003C222.45 186.501 222.712 186.53 224.551 184.158C227.594 181.48 227.624 177.994 230.13 175.258C231.082 174.218 235.062 170.266 235.468 169.352C238.692 162.07 244.329 155.168 245.554 147.504C246.922 146.67 248.085 146.118 248.933 144.798C249.527 143.837 250.06 142.207 250.469 141.113L251.239 138.693C257.521 124.921 260.051 119.014 262.514 104.31ZM188.062 236.665C183.689 236.038 174.652 235.462 170.135 235.549C170.242 236.674 170.188 237.243 170.821 238.176C176.588 237.21 182.124 238.202 188.062 236.665Z" fill="#FFD700"/>
<path d="M170.135 235.549C174.652 235.462 183.689 236.038 188.063 236.665C182.125 238.202 176.589 237.21 170.821 238.176C172.316 237.287 174.576 237.02 176.357 236.695C174.276 236.353 172.201 235.971 170.135 235.549Z" fill="#FFD700"/>
<path d="M170.135 235.549C172.201 235.971 174.276 236.353 176.357 236.695C174.576 237.02 172.316 237.287 170.821 238.176C170.188 237.243 170.242 236.674 170.135 235.549Z" fill="#FFD700"/>
<path d="M261.667 254.306C261.878 252.861 261.597 253.338 262.637 252.451C264.411 252.28 265.563 252.425 267.327 252.578C266.494 253.029 265.344 253.776 264.446 253.833C264.04 255.147 263.564 256.201 263.999 257.512C264.733 258.075 297.879 257.034 302.41 258.131C302.452 258.141 302.986 258.054 303.013 258.05C304.701 262.947 301.704 262.113 303.398 266.699C302.037 267.353 299.98 267.491 298.4 267.691C293.172 268.369 269.316 268.013 263.53 267.815L262.11 266.874C261.381 264.759 261.531 261.773 261.63 259.546L261.747 258.139L261.667 254.306Z" fill="#FFD700"/>
<path d="M267.326 252.578C274.848 252.325 286.756 252.998 293.206 252.441C295.657 252.529 302.894 252.649 304.931 253.033C304.547 253.908 303.677 256.25 302.967 256.716C300.498 255.054 292.975 256.238 289.66 256.277C282.067 256.365 274.536 256.217 266.951 255.808C266.116 255.15 265.28 254.491 264.445 253.833C265.344 253.776 266.493 253.029 267.326 252.578Z" fill="#FFD700"/>
<path d="M264.869 271.526C274.752 271.781 284.543 271.173 294.45 271.74C296.665 271.866 300.379 271.678 302.316 271.884C302.861 273.118 303.243 272.753 303.498 274.515L302.784 275.216C301.298 275.496 298.736 275.312 297.171 275.193C286.93 274.411 276.815 274.587 266.566 274.966C264.396 275.047 263.52 276.168 261.986 274.527C262.25 273.221 263.581 272.56 264.869 271.526Z" fill="#FFD700"/>
<path d="M278.921 106.758C280.234 106.635 281.828 106.43 283.122 106.467C282.631 108.267 283.925 111.57 285.644 112.743L285.88 113.659C284.376 113.768 282.179 113.659 281.203 114.439C282.288 116.445 283.116 116.654 281.52 118.436L281.763 119.235C282.99 119.378 283.873 119.481 285.097 119.755L285.398 120.321L284.962 121.193C284.405 121.239 283.648 121.328 283.109 121.316L281.668 121.642L281.288 122.407C281.663 123.368 282.144 124.298 282.108 125.295C281.541 127.302 281.446 134.153 281.582 136.329C281.479 138.589 281.767 141.299 280.61 142.931L280.07 143.03C279.601 131.558 279.072 118.174 278.921 106.758Z" fill="#FFD700"/>
<path d="M263.847 271.45C264.654 271.144 269.329 271.103 270.898 270.949L271.278 270.502C269.702 269.6 266.134 269.418 264.159 269.199L264.373 268.981C268.168 268.431 274.714 268.571 278.869 268.541L303.555 268.367C303.83 270.216 304.082 269.938 303.374 271.415C303.323 270.665 303.243 270.675 302.814 270.027C299.248 269.509 292.105 269.965 288.395 270.126L288.178 270.756C289.9 271.855 300.568 271.446 303.374 271.415L302.316 271.884C300.38 271.679 296.666 271.867 294.45 271.741C284.543 271.174 274.752 271.781 264.87 271.527L263.847 271.45Z" fill="#FFD700"/>
<path d="M283.431 129.782L283.669 130.438C283.082 135.553 284.387 138.826 284.129 140.731L283.921 143.87C283.856 144.895 283.863 145.079 284.279 146.032L285.21 146.337C285.756 145.787 286.115 145.545 286.434 144.875L287.063 147.644L287.377 152.982L286.416 152.532L285.789 153.163C283.837 153.016 282.054 153.01 280.293 152.186C278.216 149.947 278.995 145.661 280.07 143.03L280.61 142.93C281.767 141.299 281.479 138.589 281.582 136.329C283.421 134.9 280.689 132.637 283.431 129.782Z" fill="#FFD700"/>
<path d="M168.421 226.847C168.917 225.671 168.886 223.386 169.421 221.425C172.024 219.071 193.245 222.016 197.085 222.526C197.609 222.596 199.219 221.823 199.758 221.547C198.946 226.028 181.767 226.403 177.906 225.824C181.035 225.196 187.614 226.388 189.745 223.898L189.385 223.5C187.49 223.22 172.005 222.739 171.101 223.196C170.466 224.5 170.548 223.931 170.788 225.35C171.806 226.006 175.406 225.807 177.108 225.901C173.79 227.309 170.312 225.407 168.859 226.831L168.421 226.847Z" fill="#FFD700"/>
<path d="M304.931 253.032C304.737 254.947 304.206 256.771 305.098 258.327C306.662 259.485 309.064 259.432 311.022 259.931C307.07 260.155 306.242 260.171 303.013 258.05C302.986 258.053 302.452 258.14 302.41 258.13C297.879 257.033 264.733 258.074 263.998 257.511C263.564 256.2 264.04 255.146 264.445 253.833C265.28 254.491 266.115 255.15 266.951 255.808C274.536 256.217 282.067 256.365 289.66 256.277C292.975 256.238 300.498 255.054 302.967 256.716C303.677 256.25 304.547 253.908 304.931 253.032Z" fill="#FFD700"/>
<path d="M169.084 240.718L169.943 241.462C170.653 239.62 170.181 240.066 171.576 239.249C175.978 239.308 184.865 239.873 189.105 240.515C193.94 241.248 197.105 242.425 202.587 242.934C201.783 243.036 169.78 242.777 168.982 242.613L168.544 241.735L169.084 240.718Z" fill="#FFD700"/>
<path d="M244.438 147.594C246.227 146.129 246.763 145.594 248.932 144.798C248.085 146.118 246.922 146.671 245.554 147.504C244.329 155.168 238.692 162.07 235.468 169.352C235.062 170.267 231.082 174.218 230.13 175.258C227.624 177.995 227.594 181.48 224.55 184.159C225.805 180.145 228.465 175.955 228.876 171.261C229.012 169.703 234.509 170.902 235.583 167.139C236.124 165.246 237.611 161.356 238.371 159.393C239.448 158.582 239.86 158.408 240.363 157.176C239.723 155.258 239.588 157.061 237.81 155.504C238.65 152.943 242.801 156.208 243.658 151.246C243.996 150.241 244.235 148.674 244.438 147.594Z" fill="#FFD700"/>
<path d="M254.239 267.839C254.636 265.481 254.264 260.452 254.905 259.141C256.863 259.211 259.867 259.635 261.629 259.546C261.53 261.773 261.381 264.758 262.11 266.873L263.53 267.815L263.182 267.994C260.271 267.53 257.144 267.34 254.239 267.839ZM261.534 264.589C259.407 262.52 258.827 263.01 255.899 263.591C257.92 265.395 258.889 264.976 261.534 264.589Z" fill="#FFD700"/>
<path d="M255.899 263.591C258.828 263.009 259.408 262.52 261.535 264.588C258.889 264.976 257.921 265.395 255.899 263.591Z" fill="#FFD700"/>
<path d="M287.546 161.535C287.662 162.433 287.921 164.014 287.937 164.856C287.664 169.188 288.46 173.509 288.504 177.969L288.551 178.429C288.465 180.291 288.158 182.507 288.973 184.136L289.429 183.877C289.83 181.565 289.612 180.815 289.184 178.476C291.257 178.261 290.754 178.04 292.472 178.802C293.932 180.577 293.428 182.833 294.453 185.224C294.6 186.244 294.726 187.411 295.005 188.392L295.324 194.756C294.456 192.179 294.089 187.595 291.387 186.275L289.477 186.95L288.721 186.515C287.134 183.104 287.172 165.79 287.546 161.535Z" fill="#FFD700"/>
<path d="M279.713 242.895C281.113 241.594 280.838 243.143 282.97 241.58L282.842 239.613C287.491 238.411 286.392 238.241 290.104 235.412C290.883 234.819 292.908 234.192 294.023 233.556L294.278 233.408L295.486 233.921C295.103 235.666 294.066 237.156 293.127 238.703C285.749 240.543 290.225 243.361 279.713 242.895Z" fill="#FFD700"/>
<path d="M168.421 226.847L168.858 226.831C168.331 228.266 167.621 234.13 168.282 235.279C166.238 235.271 162.978 235.481 161.252 234.682C160.675 233.659 160.754 231.307 160.931 230.237C161.653 225.88 164.409 229.883 168.421 226.847Z" fill="#FFD700"/>
<path d="M254.238 267.839C253.102 265.941 254.204 255.007 254.933 252.588C257.879 251.386 289.11 251.807 293.205 252.441C286.755 252.998 274.846 252.325 267.325 252.578C265.562 252.425 264.409 252.279 262.636 252.45C261.596 253.337 261.876 252.861 261.666 254.306C260.428 254.105 256.765 254.993 255.883 255.792C255.866 257.077 255.835 256.64 257.016 257.899C258.526 258.451 259.227 258.528 260.779 258.761L261.745 258.139L261.628 259.546C259.866 259.635 256.862 259.211 254.904 259.141C254.262 260.452 254.634 265.481 254.238 267.839Z" fill="#FFD700"/>
<path d="M303.013 258.05C306.242 260.171 307.07 260.155 311.023 259.931C311.908 261.497 311.712 262.218 311.549 263.994C309.871 263.291 308.422 262.477 306.631 262.691L305.729 263.251C306.198 265.791 309.651 265.646 311.846 265.728L311.516 267.066C309.834 267.947 308.595 267.714 306.491 267.568C303.529 267.74 301.361 267.757 298.4 267.691C299.98 267.491 302.037 267.353 303.398 266.699C301.704 262.113 304.701 262.947 303.013 258.05Z" fill="#FFD700"/>
<path d="M262.515 104.31C265.186 103.503 270.022 104.083 271.145 103.537L271.28 102.956C269.842 102.112 269.191 102.107 268.832 100.891C270.446 98.4207 275.118 98.7629 277.866 98.6987C277.705 101.435 277.354 103.65 278.775 106.129C275.261 102.293 267.036 105.992 262.515 104.31Z" fill="#FFD700"/>
<path d="M254.239 267.839C257.144 267.341 260.271 267.53 263.182 267.994L263.53 267.815C269.315 268.013 293.172 268.369 298.4 267.691C301.361 267.757 303.529 267.74 306.491 267.568L303.556 268.366L278.869 268.54C274.715 268.571 268.169 268.431 264.374 268.98L264.16 269.199C266.134 269.418 269.703 269.6 271.279 270.501L270.899 270.949C269.33 271.103 264.655 271.144 263.848 271.449L262.549 271.134C262.405 269.947 262.429 269.876 261.72 268.932C259.393 267.677 256.913 267.877 254.239 267.839Z" fill="#FFD700"/>
<path d="M287.936 164.855C288.266 166.389 288.562 167.784 288.997 169.297L289.575 169.442C291.129 168.233 290.624 168.239 292.249 168.293C294.958 170.713 294.833 180.34 294.967 184.269C295.013 185.642 295.025 187.017 295.004 188.392C294.725 187.41 294.6 186.243 294.452 185.224C294.473 183.288 293.303 171.923 292.333 171.122C290.1 173.04 291.16 175.944 288.503 177.969C288.459 173.509 287.664 169.188 287.936 164.855Z" fill="#FFD700"/>
<path d="M282.109 125.295C282.145 124.297 281.664 123.367 281.289 122.407L281.669 121.641L283.11 121.316C284.799 122.252 284.018 122.073 286.119 121.857C286.957 126.005 286.157 133.126 286.934 136.766C287.033 140.392 287.077 144.018 287.064 147.644L286.435 144.875C286.587 142.655 287.008 139.434 285.602 137.67C284.291 138.887 284.647 138.774 284.13 140.731C284.388 138.826 283.083 135.553 283.67 130.438C284.236 132.878 283.61 134.482 284.39 136.168C285.299 133.959 286.806 124.338 284.459 123.206C283.268 124.102 283.567 123.621 283.3 124.991L282.109 125.295Z" fill="#FFD700"/>
<path d="M285.881 113.659C287.199 115.313 287.303 133.79 286.934 136.766C286.157 133.126 286.956 126.006 286.119 121.857C284.018 122.074 284.799 122.252 283.11 121.316C283.649 121.328 284.406 121.238 284.963 121.193L285.399 120.321L285.098 119.754C283.874 119.481 282.991 119.377 281.763 119.234L281.52 118.436C283.117 116.654 282.288 116.445 281.204 114.439C282.18 113.659 284.377 113.768 285.881 113.659ZM286.317 115.419C284.403 114.508 284.741 114.332 282.887 114.48L282.745 115.547C284.17 115.876 284.879 115.651 286.317 115.419Z" fill="#FFD700"/>
<path d="M282.887 114.48C284.741 114.331 284.403 114.508 286.317 115.419C284.879 115.651 284.17 115.876 282.745 115.546L282.887 114.48Z" fill="#FFD700"/>
<path d="M288.504 177.969C291.161 175.944 290.101 173.04 292.334 171.122C293.305 171.923 294.474 183.288 294.453 185.224C293.428 182.833 293.932 180.576 292.472 178.801C290.755 178.04 291.257 178.26 289.184 178.475L288.552 178.429L288.504 177.969Z" fill="#FFD700"/>
<path d="M283.299 124.992C283.566 123.621 283.268 124.102 284.458 123.206C286.805 124.338 285.298 133.96 284.389 136.169C283.609 134.482 284.235 132.879 283.669 130.439L283.431 129.783C283.636 127.601 283.671 127.139 283.299 124.992Z" fill="#FFD700"/>
<path d="M288.396 270.126C292.105 269.965 299.249 269.509 302.815 270.026C303.244 270.675 303.324 270.665 303.375 271.415C300.569 271.446 289.901 271.855 288.178 270.756L288.396 270.126Z" fill="#FFD700"/>
<path d="M261.747 258.139L260.781 258.761C259.229 258.528 258.527 258.452 257.018 257.9C255.837 256.64 255.867 257.077 255.884 255.793C256.766 254.993 260.43 254.105 261.668 254.306L261.747 258.139Z" fill="#FFD700"/>
<path d="M284.13 140.732C284.647 138.775 284.291 138.887 285.602 137.671C287.008 139.434 286.587 142.656 286.435 144.876C286.116 145.546 285.757 145.788 285.211 146.338L284.28 146.032C283.864 145.08 283.857 144.896 283.922 143.871L284.13 140.732Z" fill="#FFD700"/>
<path d="M244.438 147.594C245.189 145.077 245.759 138.946 247.507 138.621C248.358 140.191 248.006 141.373 247.691 143.212C248.209 142.916 247.996 143.003 248.334 142.294L249.405 142.468C249.719 141.843 249.99 141.639 250.47 141.113C250.06 142.208 249.527 143.838 248.933 144.798C246.763 145.594 246.227 146.129 244.438 147.594Z" fill="#FFD700"/>
<path d="M311.846 265.728C309.651 265.645 306.198 265.791 305.729 263.25L306.631 262.691C308.422 262.476 309.871 263.291 311.549 263.994L311.846 265.728Z" fill="#FFD700"/>
<path d="M283.299 124.991C283.671 127.139 283.636 127.601 283.431 129.782C280.689 132.637 283.421 134.9 281.582 136.329C281.446 134.153 281.541 127.302 282.109 125.295L283.299 124.991Z" fill="#FFD700"/>
<path d="M283.122 106.466C285.106 106.462 284.953 106.141 286.106 107.123C286.535 109.043 285.752 110.597 285.644 112.743C283.925 111.569 282.631 108.267 283.122 106.466Z" fill="#FFD700"/>
<path d="M288.551 178.428L289.183 178.475C289.612 180.814 289.83 181.565 289.429 183.876L288.973 184.135C288.157 182.506 288.465 180.29 288.551 178.428Z" fill="#FFD700"/>
<path d="M160.985 308.425C165.41 307.432 174.175 306.354 178.635 306.012C175.726 311.575 171.733 306.16 166.733 309.82C160.455 314.365 155.149 320.771 150.503 326.677C150.053 327.25 151.607 331.11 150.067 331.713C142.96 334.498 146.886 336.511 145.06 339.456C144.463 338.936 144.424 338.433 144.217 337.678C142.874 339.716 143.685 344.665 142.454 346.469C142.154 346.908 138.344 348.406 137.085 349.272L137.138 349.013C137.286 348.269 137.386 348.025 137.233 347.266L136.069 347.288C135.164 350.123 135.927 354.052 135.18 355.518C133.945 357.94 129.702 361.991 128.144 364.395C127.475 365.427 127.432 371.181 126.732 371.953C123.274 375.759 119.609 379.879 116.198 383.749C115.443 384.606 115.126 388.691 112.93 389.585C111.016 390.364 108.417 390.581 106.377 390.844L106.276 391.369L106.981 391.93C104.638 394.534 95.0509 397.925 91.9722 397.637C88.4162 397.305 67.8001 398.2 66.1309 397.096C78.2981 397.08 90.9729 398.127 101.24 390.788C103.068 389.482 105.673 389.135 107.898 388.697C108.738 387.586 109.536 386.507 109.962 385.191C111.604 380.115 114.326 382.401 116.762 377.224L117.021 376.77C119.013 372.592 121.726 373.286 123.246 369.177C124.123 367.169 124.83 365.872 125.927 363.959C130.32 357.104 133.272 350.088 135.64 342.367L140.867 339.887C143.052 335.214 143.806 331.062 144.994 326.169C145.292 324.94 146.625 324.512 147.955 323.9C150.681 322.645 151.172 319.301 152.04 316.429L157.517 314.884C158.826 312.621 159.859 310.796 160.985 308.425Z" fill="#FFD700"/>
<path d="M371.914 355.908C373.102 357.77 374.326 361.406 374.142 363.584L374.667 364.067L374.576 364.269L375.534 363.318C374.782 361.844 374.121 360.902 374.292 359.279C375.18 357.746 374.671 358.23 376.174 357.366C377.994 358.799 377.395 362.964 376.709 364.96L375.654 364.948C374.594 366.719 374.804 379.609 374.954 382.359C375.069 385.664 373.89 386.682 375.664 389.729C377.563 388.006 376.992 381.505 376.851 379.166C377.735 374.568 375.894 369.52 377.445 365.183L379.225 365.451C379.599 368.086 379.125 385.49 378.637 388.593L378.927 389.248C377.364 391.099 379.051 393.182 377.751 395.133C376.273 397.349 376.433 395.337 373.38 396.088C364.401 398.297 326.83 399.688 320.751 397.127C319.178 395.478 320.674 397.103 320.732 394.371C318.945 394.136 314.217 394.258 313.714 392.492L316.088 391.999L316.275 391.099L316.659 391.629L316.473 391.147C315.088 390.954 313.702 390.771 312.314 390.597C310.519 387.811 311.565 376.222 311.879 372.487C312.573 377.347 312.35 382.14 312.977 386.709C317.182 388.807 320.784 392.663 322.555 393.403C331.579 397.17 349.957 395.577 359.908 395.089C362.316 394.878 366.446 394.465 368.549 393.552C369.877 391.746 367.991 392.411 368.491 390.433L371.132 389.692L372.173 389.363C373.958 386.892 371.983 360.783 371.914 355.908Z" fill="#FFD700"/>
<path d="M332.116 16.7573C333.797 16.6656 335.955 16.3396 337.352 17.0614C338.377 19.3166 338.288 20.0841 339.815 22.1235L339.575 23.0364C341.984 23.6208 344.442 24.2504 346.872 24.7304C347.302 26.5826 347.62 29.5829 348.576 30.9415C350.798 31.9736 352.53 32.3019 354.9 32.8588C355.032 35.6757 355.347 39.8682 355.087 42.5597L354.389 40.8191L353.807 40.8053C352.704 43.2021 352.944 54.5 353.112 57.7374C353.072 66.8039 352.601 79.9113 353.031 88.6722L352.498 89.0462L351.878 88.7459C351.08 77.887 352.021 64.5282 351.493 53.5069C351.358 50.6848 351.784 43.7101 351.095 41.5209L351.05 40.8561C351.077 39.0965 351.317 37.3293 350.356 35.8796C348.813 36.9235 349.071 40.8176 349.049 42.6C349.4 48.7365 349.17 56.3889 349.152 62.6209C349.043 76.4705 349.032 90.3211 349.118 104.171L348.506 104.399C346.948 102.466 347.767 55.0265 347.146 48.3901C347.091 45.2843 346.997 42.179 346.863 39.0747C346.19 26.2752 343.382 22.7978 329.306 23.9169L331.284 22.6961L331.179 22.1639L331.9 21.8251C330.538 21.415 329.347 20.9807 328.016 20.4937L328.881 19.922L328.66 19.4226L326.418 18.6951L329.834 18.678C331.189 17.8336 333.21 19.3751 336.851 18.286L336.823 17.9053C335.167 17.557 333.748 17.1988 332.116 16.7573Z" fill="#FFD700"/>
<path d="M349.05 42.6003C349.353 41.4813 349.36 41.0104 350.156 40.1992L351.051 40.8564L351.095 41.5212C350.789 45.3987 350.887 49.2951 350.932 53.1802C351.133 70.4588 350.823 87.7877 351.616 105.053C351.512 107.413 352.281 113.466 352.12 114.581L350.965 114.511C350.451 115.766 351.083 118.838 351.286 120.353L351.811 120.714C351.946 119.719 352.06 117.631 352.573 116.965C352.758 121.126 350.706 124.213 350.997 128.489C351.076 129.637 350.8 130.251 350.14 131.154L349.227 130.791C346.389 126.981 346.607 108.53 347.135 103.694C347.853 108.282 346.966 114.311 348.789 119.401C349.484 117.554 349.324 106.523 349.119 104.171C349.032 90.3213 349.043 76.4708 349.152 62.6211C349.17 56.3891 349.4 48.7368 349.05 42.6003Z" fill="#FFD700"/>
<path d="M134.523 202.579C134.084 198.255 132.8 191.505 134.856 186.433C134.935 186.239 138.468 185.048 138.755 184.058C138.857 183.707 139.407 183.236 139.865 183.058L140.088 185.3L140.778 185.539L140.534 185.71L140.013 184.915L141.233 184.873C142.814 181.437 142.651 180.795 141.847 177.042C141.935 178.398 142.045 179.753 142.177 181.106C141.357 175.222 140.673 171.336 145.794 167.596C145.746 167.631 146.202 164.457 146.237 164.221C147.69 163.418 147.582 163.786 149.755 164.294C149.985 163.406 149.881 160.921 149.867 159.861L149.923 160.278C149.724 157.675 149.404 150.982 151.725 149.383L152.173 152.313C154.169 152.881 152.377 149.7 155.761 148.27L155.964 147.441L155.45 146.934L153.487 147.368L153.188 147.023C156.109 144.998 155.732 146.651 157.363 142.457C158.555 141.605 158.273 141.878 160.16 142.045C158.637 149.046 155.425 151.315 152.624 157.531C151.945 159.038 151.277 163.698 151.016 165.48C149.645 165.988 149.181 166.048 147.714 165.946C147.042 167.445 144.678 173.584 144.767 175.073C144.459 178.121 143.451 180.026 143.418 182.887C142.659 190.332 137.137 192.587 134.523 202.579Z" fill="#FFD700"/>
<path d="M357.832 212.371L358.34 211.231L358.836 211.563C358.828 212.896 358.669 217.384 359.047 218.372C358.784 220.928 359.239 233.755 360.071 235.385L360.781 235.383L360.285 235.594C361.129 234.876 360.853 235.306 361.142 234.262L360.179 235.519C361.998 233.362 361.832 221.483 361.581 218.352C361.744 216.31 361.424 212.349 362.075 211.177C363.518 213.336 362.249 232.879 363.455 234.753C363.792 251.819 364.034 268.887 364.181 285.955C364.268 291.494 365.414 299.464 364.948 304.497C363.561 299.349 363.439 275.576 363.339 269.362C363.367 265.085 363.261 260.808 363.02 256.538C363.47 254.353 362.884 241.113 362.626 238.328C362.498 241.794 361.804 245.003 361.707 249.123C361.592 247.549 361.399 246.587 361.091 245.049C360.121 246.265 361.458 248.716 360.504 249.835C359.506 246.186 360.966 244.426 360.886 243.349C359.592 242.629 359.33 242.605 357.844 242.367L357.099 243.148L356.857 242.619C356.916 233.382 358.264 220.91 357.832 212.371Z" fill="#FFD700"/>
<path d="M252.924 307.693C259.848 307.813 269.082 308.251 275.812 308.062C278.692 308.408 281.576 308.732 284.461 309.033C277.688 309.856 270.096 309.678 263.926 310.819C269.475 311.521 283.409 311.094 286.691 312.535L287.153 313.343C286.728 313.856 286.552 314.197 285.898 314.359C283.798 313.528 281.046 313.615 278.832 313.757C273.364 313.443 267.502 313.978 261.592 313.709C256.873 314.739 256.416 312.027 253.713 314.67C254.196 312.656 253.957 312.048 253.756 310.002C256.26 310.859 259.432 311.931 260.939 309.677C260.852 309.807 261.857 309.756 262.36 309.433C260.144 308.688 256.205 308.51 252.924 307.693Z" fill="#FFD700"/>
<path d="M353.113 57.7371L353.182 57.3318C353.487 55.4805 353.49 47.0551 353.739 46.5148C354.957 49.1801 354.447 60.0593 354.449 63.7795L354.373 96.175C354.301 109.797 355.033 127.594 354.437 140.551C353.189 134.881 353.789 119.452 353.207 112.662C353.047 110.781 352.607 106.318 352.604 104.687C353.104 100.699 353.075 92.6668 353.031 88.6719C352.601 79.911 353.072 66.8036 353.113 57.7371Z" fill="#FFD700"/>
<path d="M363.022 201.306C363.121 206.933 364.495 230.587 363.455 234.754C362.25 232.879 363.519 213.336 362.076 211.178C361.425 212.349 361.745 216.311 361.582 218.353C360.533 220.247 360.634 223.791 360.584 225.982C359.198 222.226 360.173 221.89 359.174 218.76L359.047 218.373C358.67 217.385 358.829 212.897 358.836 211.564L358.341 211.232L357.833 212.372C357.254 211.693 357.447 211.632 357.368 210.544L357.412 204.472C357.669 203.142 357.722 202.726 358.356 201.479L359.927 201.197C361.409 201.461 361.845 201.801 363.022 201.306Z" fill="#FFD700"/>
<path d="M355.106 164.731C356.357 169.753 355.638 209.352 356.704 210.46L357.368 210.543C357.447 211.631 357.255 211.692 357.833 212.371C358.265 220.91 356.917 233.383 356.858 242.619C356.785 240.721 357.113 240.105 356.153 238.814C355.902 234.42 355.993 230.239 355.561 225.814C356.018 205.93 354.525 184.909 355.106 164.731Z" fill="#FFD700"/>
<path d="M353.112 57.7378C352.944 54.5004 352.704 43.2025 353.807 40.8057L354.389 40.8194L355.087 42.56C354.431 49.5248 355.056 63.804 355.05 71.4183L355.012 125.902C355.058 136.459 355.505 149.651 355.002 160.032C354.428 157.344 354.471 144.121 354.436 140.551C355.032 127.595 354.301 109.797 354.372 96.1757L354.448 63.7802C354.446 60.06 354.957 49.1807 353.738 46.5154C353.49 47.0557 353.486 55.4812 353.182 57.3325L353.112 57.7378Z" fill="#FFD700"/>
<path d="M355.56 225.814C355.992 230.24 355.901 234.42 356.152 238.814C355.64 240.958 355.912 244.597 356.674 246.668C357.225 245.632 357.114 244.347 357.099 243.149L357.844 242.367C359.33 242.606 359.592 242.629 360.886 243.35C360.966 244.426 359.506 246.186 360.504 249.835C361.458 248.716 360.121 246.266 361.091 245.049C361.399 246.587 361.592 247.549 361.707 249.124C361.805 245.003 362.498 241.795 362.626 238.328C362.884 241.114 363.47 254.354 363.02 256.539C362.215 254.415 363.421 253.043 362.21 251.412L360.191 251.72L358.754 250.436C357.192 251.891 357.828 256.592 357.93 258.722L357.098 258.747C355.988 257.451 356.261 256.769 356.003 254.798C355.484 248.865 354.92 231.554 355.56 225.814Z" fill="#FFD700"/>
<path d="M296.624 16.7716C305.665 16.8148 317.173 16.3934 325.922 16.7711C326.966 17.2534 327.494 17.223 328.646 17.2031C329.233 17.7761 329.458 17.9358 329.834 18.678L326.419 18.6951C318.287 18.3839 308.36 18.611 300.074 18.5977C295.151 18.0589 281.106 18.6671 278.124 17.6193C282.416 17.4331 292.59 17.4692 296.157 16.8562L296.624 16.7716Z" fill="#FFD700"/>
<path d="M328.016 20.4934C329.346 20.9805 330.537 21.4148 331.9 21.8249L331.178 22.1637C324.418 23.4162 305.501 22.024 297.531 22.444C294.341 21.7693 283.744 21.8748 280.042 21.8519C282.15 21.7336 286.504 22.0116 287.842 21.1572C295.599 21.1202 307.407 21.2328 314.878 20.6013C318.972 20.6084 323.998 20.7429 328.016 20.4934Z" fill="#FFD700"/>
<path d="M297.532 22.4439C287.879 23.6347 264.602 22.2149 254.374 21.59C262.402 19.9259 305.701 19.9421 314.878 20.6012C307.407 21.2327 295.599 21.1201 287.842 21.1571C285.179 20.9499 281.586 20.8254 279.01 21.5444L279.115 21.9488L280.042 21.8518C283.745 21.8746 294.342 21.7692 297.532 22.4439Z" fill="#FFD700"/>
<path d="M275.812 308.063C279.047 307.945 284.008 307.521 286.911 308.621C288.039 310.171 286.466 310.335 288.199 313.394C289.799 313.983 293.178 315.118 294.391 316.067C286.851 314.918 280.989 315.791 273.545 315.21C276.95 314.637 283.124 315.85 285.898 314.36C286.552 314.198 286.728 313.856 287.153 313.344L286.691 312.536C283.409 311.095 269.476 311.522 263.926 310.819C270.096 309.679 277.688 309.856 284.461 309.033C281.576 308.732 278.692 308.409 275.812 308.063Z" fill="#FFD700"/>
<path d="M181.036 305.946C182.842 304.398 183.869 305.069 184.706 303.747L182.745 302.88L183.024 302.467C185.033 302.203 195.065 301.937 196.41 302.75C195.586 303.742 193.584 303.481 191.635 304.019C196.29 303.882 203.878 302.97 207.343 305.685C198.573 305.626 189.803 305.713 181.036 305.946Z" fill="#FFD700"/>
<path d="M347.146 48.3901C347.766 55.0265 346.948 102.466 348.505 104.399L349.118 104.171C349.324 106.522 349.483 117.553 348.789 119.401C346.965 114.311 347.852 108.282 347.134 103.694C347.079 86.762 346.344 64.916 347.146 48.3901Z" fill="#FFD700"/>
<path d="M305.475 356.934C306.81 357.042 307.307 357.206 308.474 356.584C309.419 353.121 305.41 349.363 310.344 347.009C310.862 348.95 311.666 358.643 311.436 360.442C310.311 360.8 310.274 360.867 309.374 361.638L309.489 361.918C309.917 362.981 310.003 363.179 310.028 364.304C309.007 364.91 308.859 364.946 307.667 365.107C308.562 363.707 308.072 360.13 306.975 358.96L306.139 359.371L305.788 360.856L305.303 359.755C305.685 358.448 305.757 358.255 305.475 356.934Z" fill="#FFD700"/>
<path d="M351.095 41.5209C351.785 43.71 351.359 50.6847 351.494 53.5068C352.022 64.5282 351.081 77.887 351.879 88.7458L352.499 89.0461L353.031 88.6722C353.076 92.667 353.104 100.699 352.604 104.688L351.616 105.053C350.823 87.7874 351.133 70.4585 350.932 53.1799C350.887 49.2948 350.79 45.3984 351.095 41.5209Z" fill="#FFD700"/>
<path d="M359.909 395.089L360.728 393.773C359.832 391.838 358.032 391.513 355.747 390.529C358.289 389.484 368.154 389.545 371.133 389.693L368.491 390.433C367.992 392.412 369.878 391.746 368.55 393.552C366.447 394.465 362.317 394.878 359.909 395.089Z" fill="#FFD700"/>
<path d="M357.931 258.723C357.829 256.592 357.193 251.891 358.755 250.437L360.192 251.721L362.211 251.413C363.422 253.043 362.216 254.415 363.021 256.539C363.262 260.809 363.368 265.086 363.34 269.363C362.573 267.237 362.508 262.513 362.402 260.136C361.105 259.484 360.803 259.308 359.375 259.032C358.132 260.228 359.263 262.293 357.988 264.746C357.809 262.797 357.897 260.691 357.931 258.723Z" fill="#FFD700"/>
<path d="M300.073 18.5974C296.214 19.0973 265.326 18.807 262.257 17.8694C265.11 16.298 292.022 16.4525 296.624 16.7713L296.156 16.8559C292.589 17.4689 282.415 17.4328 278.123 17.619C281.105 18.6668 295.15 18.0586 300.073 18.5974Z" fill="#FFD700"/>
<path d="M305.248 346.206L306.167 346.628C306.78 344.637 306.173 343.243 307.149 342.159C309.204 341.995 308.484 341.816 310.122 342.595C310.914 343.781 310.625 345.629 310.345 347.009C305.411 349.363 309.42 353.121 308.475 356.584C307.308 357.206 306.811 357.042 305.476 356.934C305.768 353.203 305.485 349.929 305.248 346.206Z" fill="#FFD700"/>
<path d="M91.7449 302.012C92.397 298.47 97.1036 289.164 100.363 287.114C100.351 288.672 100.4 290.813 100.054 292.365C99.6117 294.351 95.3346 296.108 95.2095 297.881C96.3502 298.16 97.497 298.418 98.6482 298.655L98.7778 299.126C95.3629 301.463 95.0356 298.234 91.7449 302.012Z" fill="#FFD700"/>
<path d="M357.237 195.419C357.254 194.572 357.337 193.852 357.427 193.011L358.245 193.033C359.319 191.691 359.021 190.618 358.587 189.216C358.977 188.054 358.819 187.885 358.411 186.656L358.072 187.099L358.605 187.124L358.025 187.544L357.912 189.478L357.605 189.198C357.227 187.325 357.035 186.723 357.366 184.856L357.879 184.519C359.841 186.491 360.164 185.905 362.527 187.195C363.541 188.537 362.832 191.095 363.173 193.512L363.23 193.902C361.593 194.274 359.551 194.81 357.911 194.891L357.237 195.419Z" fill="#FFD700"/>
<path d="M126.535 224.21C126.397 218.716 125.273 215.22 127.733 209.865L128.366 209.882L129.727 211.36C130.728 210.651 130.555 209.258 132.71 208.11C130.773 213.351 128.321 219.126 126.535 224.21Z" fill="#FFD700"/>
<path d="M150.573 170.307C149.955 184.269 146.53 173.148 143.418 182.887C143.45 180.026 144.459 178.121 144.767 175.073L145.948 174.01C146.894 170.28 146.952 171.018 150.573 170.307Z" fill="#FFD700"/>
<path d="M84.5239 316.858C86.5423 311.741 87.1382 309.922 91.0245 305.81C90.8209 309.538 92.0207 314.476 90.1335 315.677C88.1022 316.97 86.8264 316.156 84.5239 316.858Z" fill="#FFD700"/>
<path d="M295.152 316.479C297.101 317.667 298.905 317.973 301.119 317.229C302.48 318.403 301.7 321.659 302.07 322.078C304.415 324.737 304.441 323.998 303.915 328.015C303.376 322.724 301.614 323.37 296.568 322.411C296.204 319.811 296.101 318.907 295.152 316.479Z" fill="#FFD700"/>
<path d="M379.226 365.451L380.109 365.478C380.556 369.33 381.203 385.569 380.177 388.744C379.612 389.033 379.523 389.15 378.927 389.248L378.638 388.593C379.126 385.49 379.6 368.086 379.226 365.451Z" fill="#FFD700"/>
<path d="M365.004 306.456C365.768 310.364 365.525 330.796 366.577 332.138C367.362 330.837 367.026 325.714 367.452 323.168C367.688 326.322 367.92 337.584 366.648 340.126L366.163 340.039C365.452 338.766 364.888 309.497 365.004 306.456Z" fill="#FFD700"/>
<path d="M359.047 218.372L359.174 218.76C360.172 221.89 359.197 222.226 360.584 225.982C360.633 223.791 360.532 220.247 361.581 218.352C361.832 221.484 361.999 233.362 360.18 235.52L361.143 234.263C360.853 235.306 361.129 234.877 360.286 235.594L360.782 235.384L360.072 235.385C359.24 233.756 358.784 220.928 359.047 218.372Z" fill="#FFD700"/>
<path d="M50.7183 374.65C53.204 371.045 52.6209 369.463 56.8558 365.395L56.8041 365.6C54.9705 373.105 61.116 371.698 50.7183 374.65Z" fill="#FFD700"/>
<path d="M374.954 382.359C375.622 379.39 375.175 375.832 375.835 372.54C376.679 374.878 376.052 377.551 376.851 379.165C376.992 381.504 377.563 388.006 375.664 389.729C373.89 386.681 375.069 385.664 374.954 382.359Z" fill="#FFD700"/>
<path d="M116.762 377.224C116.428 375.948 116.622 369.727 117.041 368.708C118.933 364.097 121.999 366.006 125.517 364.177L125.928 363.958C124.831 365.872 124.124 367.169 123.247 369.176C122.106 369.869 121.184 370.415 119.976 371.027C120.4 369.222 120.937 367.62 121.512 365.855C120.705 365.028 121.185 365.286 120.014 365.065C118.8 366.301 116.91 374.925 117.022 376.77L116.762 377.224Z" fill="#FFD700"/>
<path d="M357.236 195.419L357.91 194.891C359.55 194.811 361.592 194.274 363.229 193.902L363.057 195.881L361.486 195.695C359.721 197.271 361.503 198.684 359.926 201.197L358.355 201.479C357.721 202.726 357.668 203.142 357.411 204.472C357.216 201.896 357.278 198.09 357.236 195.419Z" fill="#FFD700"/>
<path d="M117.02 376.77C116.909 374.925 118.798 366.301 120.013 365.065C121.184 365.286 120.703 365.028 121.511 365.855C120.936 367.62 120.399 369.222 119.975 371.027C121.183 370.415 122.105 369.869 123.246 369.177C121.726 373.286 119.012 372.592 117.02 376.77Z" fill="#FFD700"/>
<path d="M144.767 175.074C144.677 173.584 147.042 167.445 147.713 165.946C149.181 166.048 149.644 165.989 151.016 165.48C150.527 167.546 150.54 168.169 150.573 170.308C146.952 171.018 146.894 170.28 145.948 174.011L144.767 175.074Z" fill="#FFD700"/>
<path d="M374.955 382.36C374.805 379.609 374.595 366.719 375.655 364.948L376.71 364.96L377.446 365.183C375.895 369.52 377.736 374.569 376.852 379.166C376.053 377.551 376.68 374.879 375.836 372.54C375.176 375.833 375.623 379.39 374.955 382.36Z" fill="#FFD700"/>
<path d="M58.6729 402.724C64.0157 403.448 71.2637 402.082 75.1957 403.81L74.7631 404.349C73.0109 405.198 61.3547 404.466 59.2559 403.961L58.6729 402.724Z" fill="#FFD700"/>
<path d="M278.832 313.758C281.047 313.616 283.798 313.528 285.898 314.36C283.125 315.85 276.951 314.637 273.545 315.21L270.147 315.153L269.962 314.635C271.342 314.007 276.288 314.195 278.832 313.758Z" fill="#FFD700"/>
<path d="M356.003 254.798C356.261 256.769 355.988 257.45 357.098 258.747L357.93 258.722C357.896 260.69 357.808 262.796 357.987 264.746C357.57 265.389 358.541 265.72 357.371 267.054L356.855 266.794C355.996 263.737 355.636 257.946 356.003 254.798Z" fill="#FFD700"/>
<path d="M261.592 313.709C267.502 313.978 273.364 313.443 278.832 313.758C276.288 314.195 271.341 314.007 269.962 314.635L270.146 315.153C268.843 315.348 263.657 315.18 262.036 315.154L261.592 313.709Z" fill="#FFD700"/>
<path d="M367.87 307.809C367.87 305.818 367.726 302.952 368.276 301.113L368.853 300.787L368.5 300.168L368.866 299.73C370.256 303.787 369.229 305.2 369.863 307.716L367.87 307.809Z" fill="#FFD700"/>
<path d="M75.5574 332.144C76.205 330.688 76.7041 329.158 77.9298 328.137L78.1965 329.697C79.7143 330.242 81.1093 330.563 82.0753 331.786C80.0644 333.288 77.8668 331.258 75.5574 332.144Z" fill="#FFD700"/>
<path d="M325.922 16.7712C328.985 16.2257 330.399 17.2858 332.116 16.7574C333.748 17.1988 335.167 17.5571 336.822 17.9054L336.851 18.286C333.21 19.3752 331.189 17.8337 329.834 18.6781C329.458 17.9358 329.232 17.7762 328.646 17.2031C327.494 17.2231 326.966 17.2535 325.922 16.7712Z" fill="#FFD700"/>
<path d="M359.928 201.197C361.505 198.684 359.723 197.271 361.487 195.694L363.058 195.881L363.023 201.305C361.846 201.8 361.409 201.461 359.928 201.197Z" fill="#FFD700"/>
<path d="M368.055 291.165L368.938 291.723C369.934 293.178 369.69 296.1 369.871 298.169L368.827 298.512L368.088 298.075C367.444 296.285 367.901 293.166 368.055 291.165Z" fill="#FFD700"/>
<path d="M305.789 360.856L306.139 359.371L306.976 358.96C308.072 360.131 308.562 363.707 307.668 365.107C306.588 364.555 306.521 364.535 305.722 363.669C305.996 362.532 306.119 361.99 305.789 360.856Z" fill="#FFD700"/>
<path d="M349.049 42.6001C349.071 40.8177 348.813 36.9236 350.356 35.8796C351.317 37.3294 351.077 39.0966 351.05 40.8562L350.155 40.199C349.359 41.0102 349.352 41.4811 349.049 42.6001Z" fill="#FFD700"/>
<path d="M253.712 314.669C256.416 312.026 256.873 314.739 261.592 313.708L262.036 315.153C259.09 314.859 256.821 315.457 253.712 314.669Z" fill="#FFD700"/>
<path d="M306.398 366.618C307.719 367.11 307.398 366.794 308.156 367.771C307.739 369.651 307.564 370.205 307.99 372.085L308.082 372.473C307.741 372.472 306.995 372.325 306.622 372.264C305.829 370.74 306.331 368.681 306.398 366.618Z" fill="#FFD700"/>
<path d="M356.153 238.814C357.112 240.105 356.785 240.722 356.858 242.619L357.1 243.148C357.115 244.347 357.226 245.632 356.674 246.668C355.913 244.597 355.641 240.958 356.153 238.814Z" fill="#FFD700"/>
<path d="M280.042 21.8519L279.115 21.9488L279.01 21.5444C281.586 20.8255 285.179 20.95 287.842 21.1572C286.504 22.0115 282.15 21.7336 280.042 21.8519Z" fill="#FFD700"/>
<path d="M6.52585 178.859C9.40344 176.553 7.73388 175.628 9.23608 174.508C9.4615 175.055 9.67436 175.723 10.0897 176.164C10.3607 176.452 25.1346 177.125 27.065 177.316L33.4116 178.298C23.7981 179.167 19.3059 177.84 8.08009 179.537C8.108 181.797 7.85968 189.172 8.40877 190.833C10.7627 191.241 10.3743 189.879 11.8363 191.917C12.5929 192.973 13.542 194.606 14.9358 194.329L15.0983 194.761C16.6341 198.757 21.4998 201.188 21.8406 202.787C22.782 207.201 22.1391 207.533 28.1824 210.937C28.0786 211.888 27.5656 213.473 27.9595 213.706C33.3848 216.902 33.6237 216.216 35.5521 222.523L36.4724 221.872C36.5201 221.939 36.5683 222.007 36.6164 222.075C37.9494 224.083 39.9688 225.348 41.9285 226.722C41.9285 226.722 42.2379 228.513 42.2682 228.639C42.7485 230.623 42.3298 231.469 44.6 232.33C45.8346 232.799 47.0777 233.341 48.2299 233.771C50.2379 234.521 51.2287 237.33 52.4221 238.867C53.4874 240.273 59.085 242.596 59.455 244.004C60.6097 248.396 61.238 248.144 65.3641 250.67L66.7408 250.548C66.8818 250.962 68.2714 255.076 68.4433 255.203C71.1455 257.202 75.3809 258.029 75.2905 261.855C76.7298 263.925 76.771 263.529 78.9537 264.465C81.8502 265.706 86.7331 272.747 86.9502 275.38C87.2298 278.773 83.4955 294.55 82.245 297.324C80.54 298.149 79.5626 298.7 77.6878 299.105C77.515 298.356 77.5532 298.739 77.9143 297.869L76.7059 297.36C75.6367 299.643 75.6833 302.443 75.5011 304.98C75.2647 308.272 69.5354 313.196 68.2302 316.512C67.3611 318.719 68.1105 321.52 66.7552 324.278C65.7043 325.095 65.372 325.228 64.1354 325.773C63.1386 327.473 63.2325 328.917 62.7215 330.507C62.6301 330.791 58.9082 333.557 58.6768 334.475C57.458 339.304 58.8556 339.475 55.1064 343.231C52.6496 345.692 49.3742 351.603 49.847 355.118C48.6118 355.741 41.8376 358.771 41.937 359.767C42.6566 366.954 34.3413 368.72 34.0985 375.51C33.9634 379.297 33.2368 380.275 30.0876 382.262C25.7201 385.017 24.1631 391.955 24.0062 396.617C23.584 396.992 22.7563 397.514 22.748 398.022C22.5224 411.9 40.8235 408.372 49.8525 412.991C50.4718 413.308 54.3222 411.958 56.3962 413.433C56.2611 413.448 56.1256 413.463 55.99 413.476C53.6895 413.692 41.9012 413.568 40.1833 412.706C39.7716 412.499 39.1965 411.956 38.8379 411.656C36.7262 409.888 22.5349 407.369 17.7907 404.801C16.1569 402.445 17.4072 393.667 17.5446 390.006L23.514 389.724C23.5433 387.544 23.9148 381.982 25.0973 380.245C25.6367 380.138 26.2058 380.041 26.7253 379.865C29.2443 379.01 37.6832 363.362 39.3783 360.183C41.1408 359.303 40.8414 355.84 42.6626 353.822C43.8674 353.957 44.0527 354.045 45.1642 353.679C45.8992 352.189 45.6156 352.474 45.1507 350.498L45.8143 349.592C50.7176 348.737 49.6543 345.745 52.4658 341.803C54.4181 339.066 58.7235 332.916 57.8549 329.563C58.6078 320.166 61.3989 324.956 62.714 322.476C64.8834 318.387 73.5383 301.958 74.8867 298.235C75.2965 297.063 75.9317 293.056 76.2058 291.633C77.657 290.551 80.1571 291.204 82.6061 290.422C83.7324 286.689 84.7784 276.212 83.5765 272.121C83.274 269.777 76.7963 268.303 76.1914 267.235C71.8984 259.667 66.4686 255.772 59.6234 250.599C57.9835 249.36 55.025 244.085 53.2127 242.343C50.1057 239.357 46.3069 236.98 43.1388 234.047C39.2566 230.021 30.2728 217.252 25.1946 215.347C22.5543 210.722 14.9434 195.505 9.0246 196.012L8.74604 196.038C7.02701 191.966 6.71422 186.452 5.27719 182.244C5.16246 181.908 3.36005 180.333 2.94312 179.975L3.01428 179.318L6.52585 178.859ZM23.4579 396.949C22.9445 395.254 22.6676 394.291 22.3934 392.546C21.217 391.299 21.4466 391.666 19.3365 391.323L19.4635 391.734C19.9991 393.504 20.0118 393.886 19.9198 395.709L20.5524 396.74C21.8903 397.047 22.0893 397.07 23.4579 396.949Z" fill="#FFD700"/>
<path d="M19.3381 391.323C21.4482 391.666 21.2187 391.299 22.3951 392.546C22.6693 394.291 22.9461 395.254 23.4595 396.949C22.0909 397.07 21.8919 397.047 20.554 396.74L19.9214 395.709C20.0134 393.886 20.0007 393.504 19.4651 391.734L19.3381 391.323Z" fill="#FFD700"/>
<path d="M221.263 8.61877C224.519 8.16032 226.286 8.11522 229.566 8.07935L228.812 9.91811L231.257 10.2796C229.505 10.4816 225.994 10.7164 224.546 11.307L224.601 12.6434C221.455 15.046 216.14 15.4713 212.887 17.7536C211.608 18.6517 210.458 22.369 209.303 23.3194C208.364 24.0916 203.723 25.624 203.173 26.4105C202.133 27.8983 203.074 30.4077 201.35 31.8717C198.837 34.0072 197.203 35.9564 195.864 38.9362C195.588 39.5497 194.782 41.0708 194.497 41.7056C194.282 42.1841 193.13 41.5393 193.132 43.2224C193.133 44.6132 193.905 45.9485 193.423 46.6774C193.006 47.3066 187.981 51.3147 187.992 51.2891C186.571 54.8562 185.755 59.1942 184.114 62.6806C183.928 63.0755 180.073 66.4592 180.077 66.4492C178.388 70.4959 178.566 75.4715 176.194 79.3913C175.98 79.7448 173.584 79.8071 173.103 79.8303C171.779 79.8954 170.904 79.683 169.725 80.4851C167.528 85.3857 166.337 90.5865 163.793 95.3232C162.991 96.8152 160.846 97.4016 159.23 97.9728C154.328 99.7053 149.378 96.7938 146.132 93.4448C144.526 91.7873 144.416 91.0071 142.367 89.516C144.674 89.6666 147.174 89.6922 149.32 90.4554C150.728 92.0957 150.407 93.1026 151.009 95.4481C158.729 103.848 165.957 88.2967 167.885 82.891C168.432 80.8192 168.519 79.463 170.278 77.9838C173.374 75.3793 176.019 73.011 176.566 68.9615C178.707 62.4069 180.351 61.3439 183.833 55.4445C184.423 54.4447 185.204 49.9338 185.851 49.1555C187.677 46.9587 193.002 42.3552 192.984 39.3045C193.886 38.1584 194.811 33.332 194.98 33.1903C199.065 29.7614 200.527 26.6637 202.332 21.8839L203.425 20.6764L205.74 20.6489C206.66 19.5251 206.395 19.9029 206.208 18.0995C207.755 16.4193 208.888 17.3488 211.286 15.7521C214.849 13.3808 217.091 9.89302 221.263 8.61877Z" fill="#FFD700"/>
<path d="M57.0631 252.6C55.8746 243.268 53.3572 246.796 48.6097 240.627C44.3868 235.139 45.9895 237.641 41.2823 235.312C41.257 235.3 38.2657 229.545 36.8075 227.832C35.782 227.285 35.3787 227.399 34.231 227.537C32.2821 225.989 33.1473 224.28 30.9486 221.987L30.7763 221.81C28.6358 219.573 26.3974 220.981 24.8618 219.564C22.9954 217.841 22.7094 212.062 20.1963 210.439C19.2544 209.83 18.9227 210.997 16.918 209.671L16.9733 208.92L19.0486 208.497L19.2197 208.024C13.2074 205.623 14.4946 198.741 12.1735 198.266C5.88686 196.978 7.69533 197.199 6.34745 189.696C5.32506 184.005 3.01383 186.576 0.741592 185.131C-0.000193658 183.312 -0.325843 181.083 0.432232 179.23C1.80078 178.748 1.33468 178.881 3.01468 179.318L2.94351 179.974C3.36044 180.332 5.16285 181.907 5.27758 182.243C6.71461 186.452 7.0274 191.965 8.74643 196.037L9.02499 196.012C14.9438 195.504 22.5547 210.722 25.195 215.347C30.2732 217.251 39.257 230.021 43.1392 234.047C46.3073 236.98 50.1061 239.357 53.2131 242.343C55.0254 244.085 57.9839 249.359 59.6238 250.599C66.469 255.771 71.8988 259.667 76.1918 267.235C76.7967 268.302 83.2744 269.776 83.5769 272.121C84.7787 276.212 83.7328 286.689 82.6064 290.421C80.1575 291.204 77.6574 290.55 76.2062 291.633C75.932 293.055 75.2968 297.063 74.8871 298.234C74.7679 295.397 75.2586 287.824 76.1431 285.141L83.1314 284.919C83.1989 280.198 83.1517 277.038 82.7152 272.352C79.4234 270.062 75.8342 269.408 73.5556 267.153C73.5114 266.231 72.9105 262.788 71.9708 262.462C65.8909 260.355 67.1241 259.35 64.1745 254.953C63.7022 254.25 58.5163 252.976 57.0631 252.6Z" fill="#FFD700"/>
<path d="M266.966 7.84685C267.84 6.3974 267.632 5.83507 268.899 4.22164C266.275 4.86437 261.844 4.33972 259.798 2.5423L259.811 1.70223C262.101 0.186592 266.497 0.846857 269.439 1.13349C268.087 1.48317 266.776 1.72936 265.471 2.17237C289.395 1.48792 312.423 2.2714 336.231 1.67743L336.543 3.55439C332.028 4.30731 314.969 3.88659 309.605 3.83841C304.902 3.43954 273.928 2.57062 271.943 4.00001C273.087 5.43658 277.802 5.75049 279.648 5.34331C291.919 5.735 304.196 5.8814 316.472 5.78237C320.038 5.77092 333.133 5.46357 336.061 5.82205L337.96 7.75133L266.966 7.84685Z" fill="#FFD700"/>
<path d="M67.3926 114.254C75.099 114.14 76.3331 113.158 84.2784 114.63C90.103 120.592 92.3503 119.381 98.7675 123.353C103.896 126.527 99.5904 126.969 108.13 128.794L106.015 129.133C104.6 128.655 98.4034 126.197 98.1789 125.787C95.3133 120.543 91.809 122.353 86.3976 120.987C84.9658 120.625 83.2409 117.457 81.2251 117.302C71.5296 114.593 73.6701 130.874 73.5296 136.258L72.8666 136.426C72.7687 134.97 71.1973 131.151 70.6058 129.71C68.6034 129.975 69.914 131.227 68.2587 131.826C66.8999 129.043 67.3647 117.848 67.3926 114.254Z" fill="#FFD700"/>
<path d="M295.503 384.922C295.737 387.543 296.013 391.173 296.51 393.724L297.392 394.23C297.938 393.204 297.677 393.554 298.738 392.875C303.021 393.75 304.549 401.31 305.688 404.999C311.2 407.241 318.146 410.469 324.174 410.184L324.482 410.217C334.493 414.289 344.179 413.181 355.093 413.078C357.702 413.295 362.545 413.082 365.059 412.326C363.23 412.117 362 412.073 360.317 411.336L360.393 410.77L361.897 410.041C364.994 409.899 367.393 409.605 370.453 409.211C372.647 408.624 383.111 406.431 385.246 406.144L386.868 406.664C385.162 407.009 377.65 408.865 376.788 408.905C373.242 409.4 371.013 409.028 368.849 411.927L368.99 412.042C367.03 413.728 365.024 413.561 362.217 413.927C352.841 413.259 327.194 414.531 319.898 412.631C320.105 412.025 320.119 412.055 320.09 411.423C318.679 410.58 307.006 406.796 304.261 405.831C303.464 401.746 303.204 397.358 298.057 396.481C294.083 395.804 295.375 388.04 295.503 384.922Z" fill="#FFD700"/>
<path d="M398.543 138.225C406.5 138.393 431.326 135.729 437.908 138.971C438.436 140.112 437.78 142.5 437.835 144.526L437.337 144.662C436.255 143.159 434.908 140.224 433.851 139.705C431.838 141.098 431.775 146.177 434.388 147.249L434.36 147.772L432.912 148.313C432.366 149.983 432.339 149.319 432.881 150.85C435.337 152.219 437.549 150.943 438.73 152.353L437.954 153.397C435.562 153.781 433.123 153.31 431.614 154.074C431.917 152.403 432.447 139.63 431.668 138.75C425.754 137.517 405.469 138.466 399.599 139.754C400.976 140.777 412.799 139.932 414.258 141.626L413.295 142.269C402.996 141.346 398.522 144.769 393.128 144.296C398.726 142.204 394.004 141.542 398.543 138.225Z" fill="#FFD700"/>
<path d="M414.843 182.125L414.795 182.555C414.022 189.138 412.334 186.642 414.014 194.92C420.593 197.018 421.84 199.148 428.22 201.769C421.683 200.492 414.946 200.134 408.411 198.79C406.379 197.032 406.971 194.911 406.968 192.619C406.957 186.083 411.44 187.594 414.843 182.125Z" fill="#FFD700"/>
<path d="M118.63 81.2822C121.589 81.4552 125.317 81.2437 128.464 81.3231C129.803 81.6391 132.348 82.1513 133.214 83.1592C131.568 83.3236 130.516 83.1549 129.213 84.0473C129.683 84.9235 130.518 85.0286 131.718 85.3678C132.178 85.4957 132.643 85.6049 133.112 85.6948L134.276 86.7193C137.168 87.2025 139.538 88.1329 142.121 89.4573C136.661 88.9255 123.763 86.4427 119.015 90.0203C117.479 92.3506 118.553 97.1053 117.176 101.172C116.797 93.5362 118.89 87.3018 118.63 81.2822Z" fill="#FFD700"/>
<path d="M422.492 241.962C423.893 243.173 426.587 243.215 428.565 243.447L427.746 244.959C426.05 245.215 424.412 245.044 423.34 245.895C423.95 247.044 423.618 246.804 424.642 247.402C426.064 246.547 427.675 246.842 429.308 246.928C430.871 248.094 429.703 249.437 430.936 250.511C431.787 254.105 431.433 263.736 430.365 267.223C427.571 268.282 424.43 267.128 420.207 268.449C418.633 268.346 413.694 268.554 411.639 268.54C414.838 267.779 422.277 267.744 423.003 263.841C423.272 262.399 422.782 261.454 423.895 260.186C426.822 258.343 428.796 260.039 430.599 258.032C431.006 256.301 430.768 252.933 429.798 251.447C428.351 251.386 427.838 251.248 426.459 250.923C428.046 250.618 428.1 250.892 428.833 249.872L428.07 249.162C426.18 248.546 425.867 248.608 423.888 248.85L423.542 250.139L423.007 249.571C422.992 247.162 422.692 244.391 422.492 241.962Z" fill="#FFD700"/>
<path d="M388.936 359.548C390.118 363.768 389.081 369.764 390.407 373.325L390.878 373.489C392.75 371.572 391.24 366.856 392.69 365.052C394.113 365.009 393.547 364.854 394.814 365.782C396.032 369.019 397.548 381.741 396.749 384.824C395.388 382.71 397.075 382.51 395.475 380.345C394.185 380.096 394.065 380.009 392.881 380.428C392.786 380.715 390.653 387.722 390.673 387.508C389.798 388.311 389.791 388.361 389.349 389.464L389.223 388.006C389.767 383.343 388.953 365.373 388.936 359.548Z" fill="#FFD700"/>
<path d="M381.331 314.428C381.792 305.949 378.394 290.633 388.771 286.284C387.602 287.892 387.915 287.361 387.257 289.026C385.871 292.531 382.567 294.622 382.117 298.938C383.697 300.18 386.356 299.98 386.677 302.013C387.327 306.139 388.978 319.149 387.788 322.646C386.521 320.972 387.709 310.379 386.081 308.074C384.268 307.516 384.992 307.498 383.315 308.007C382.426 309.652 384.213 309.757 383.987 310.845C382.886 316.136 383.326 327.301 382.207 331.75C381.746 326.346 382.445 319.491 381.331 314.428Z" fill="#FFD700"/>
<path d="M34.5083 178.22L41.6455 178.775C47.7736 179.426 54.5657 182.678 59.8917 182.936C65.323 184.17 70.0178 184.991 75.5012 185.899C68.1658 186.856 52.7788 186.058 45.6803 184.286C46.4213 183.895 47.0719 183.687 47.8576 183.407C45.0317 182.82 41.8636 182.324 38.8514 182.26C38.4735 181.854 38.1457 181.502 37.8676 181.203C38.318 180.945 42.3677 181.132 43.3987 181.128C42.2525 179.952 39.1261 181.02 34.5083 178.22Z" fill="#FFD700"/>
<path d="M72.8667 136.426L73.5297 136.258C74.0318 138.408 76.292 152.886 76.5568 153.252L78.0005 150.651L78.6446 150.547L78.7857 150.986C79.336 152.658 79.3469 152.394 80.2369 153.675C83.8147 158.824 83.2902 166.982 85.0896 172.47C86.724 177.454 95.98 187.241 82.2632 185.939C85.8842 185.307 88.9102 184.475 87.1218 180.056C86.8611 179.936 85.2872 179.204 85.2063 179.091C81.8266 174.351 84.6699 160.758 78.9987 156.809C77.3221 158.298 78.1247 160.451 76.675 161.86C75.8033 160.604 73.5138 140.398 72.8667 136.426Z" fill="#FFD700"/>
<path d="M295.472 375.707C296.603 380.059 295.636 384.976 297.011 389.129L297.404 389.303L298.59 388.372C300.499 388.626 301.168 388.626 302.754 389.69C304.169 391.845 304.209 394.828 305.114 397.19C308.198 405.241 316.549 408.176 324.174 410.185C318.147 410.47 311.2 407.242 305.688 405C304.55 401.311 303.021 393.751 298.738 392.875C297.678 393.554 297.938 393.204 297.392 394.231L296.51 393.725C296.013 391.174 295.737 387.544 295.503 384.922C295.412 381.851 295.402 378.779 295.472 375.707Z" fill="#FFD700"/>
<path d="M269.439 1.13385C270.902 1.32497 272.087 1.22684 273.262 1.15523C281.082 0.678243 333.593 -1.07936 337.115 0.973379L337.064 1.67137L336.232 1.67779C312.424 2.27176 289.395 1.48828 265.471 2.17273C266.777 1.72972 268.088 1.48353 269.439 1.13385Z" fill="#FFD700"/>
<path d="M431.228 202.378C433.492 202.691 436.35 203.006 438.534 203.476C438.62 211.333 438.922 210.736 446.853 212.121C447.07 214.262 447.326 218.215 448 220.115C444.491 219.413 443.724 218.971 440.454 220.193C440.015 216.578 440.075 215.03 439.318 211.104C436.09 209.431 433.681 208.74 432.854 204.099C432.762 203.585 431.666 202.769 431.228 202.378ZM446.795 218.618C445.08 216.194 443.704 216.585 442.529 213.34C441.949 213.156 441.3 212.929 440.716 212.783C440.713 214.53 440.432 216.912 441.513 218.18C442.8 218.967 445.181 218.677 446.795 218.618Z" fill="#FFD700"/>
<path d="M440.716 212.783C441.3 212.93 441.95 213.156 442.53 213.34C443.705 216.585 445.08 216.194 446.796 218.618C445.182 218.677 442.8 218.967 441.514 218.18C440.432 216.912 440.713 214.53 440.716 212.783Z" fill="#FFD700"/>
<path d="M324.482 410.218C328.986 409.687 340.924 409.767 346.135 409.636C352.815 409.469 364.426 408.716 370.454 409.211C367.394 409.606 364.995 409.899 361.898 410.041C358.496 409.975 355.688 409.8 352.478 411.073L352.199 411.746C353.374 412.946 353.185 412.613 355.094 413.078C344.18 413.181 334.494 414.289 324.482 410.218Z" fill="#FFD700"/>
<path d="M440.454 220.193C443.724 218.971 444.49 219.413 448 220.115C447.877 222.321 448.077 224.483 446.935 226.288C444.685 227.077 443.331 225.113 439.844 227.752C439.384 229.12 439.023 230.207 438.432 231.536C436.372 232.456 436.46 230.856 434.164 231.39L433.455 231.158L433.99 230.559L433.621 227.971C437.218 224.53 439.306 228.139 440.454 220.193Z" fill="#FFD700"/>
<path d="M369.525 32.7484C369.756 33.0045 370.034 33.3134 370.36 33.675C370.777 40.6659 371.119 51.8588 370.878 58.3616C369.417 52.6252 371.012 43.3697 369.461 37.8414C366.861 58.0789 368.97 83.7995 367.821 104.43C367.634 107.811 367.714 119.759 366.999 122.382L366.827 113.267L367.643 58.8549C367.727 54.2756 368.626 36.0837 367.828 33.3533L367.765 33.1457L369.525 32.7484Z" fill="#FFD700"/>
<path d="M287.46 337.454L288.015 337.271L289.316 348.087C290.185 346.757 289.41 343.229 290.511 340.776C296.589 340.13 296.098 369.363 295.41 373.385L294.927 370.082C295.292 366.812 294.864 348.344 290.647 348.155C289.432 350.664 290.725 354.461 289.529 356.92L288.883 356.874C287.951 352.396 288.247 345.653 287.548 340.571L287.46 337.454Z" fill="#FFD700"/>
<path d="M381.331 314.428C382.445 319.491 381.746 326.347 382.207 331.75C383.326 327.301 382.886 316.136 383.987 310.845C384.213 309.757 382.426 309.652 383.315 308.007C384.991 307.498 384.268 307.516 386.081 308.074C387.709 310.38 386.521 320.972 387.788 322.646C387.882 324.773 388.43 334.546 388.211 335.952C386.595 333.113 387.75 325.753 385.945 322.311C385.579 321.612 386.501 319.006 385.306 316.798L384.796 317.047C382.866 323.451 383.658 338.209 381.953 340.907C381.358 338.003 381.182 317.904 381.331 314.428Z" fill="#FFD700"/>
<path d="M381.952 340.906C383.658 338.209 382.865 323.451 384.795 317.046L385.305 316.798C386.5 319.006 385.578 321.612 385.945 322.31C387.749 325.753 386.594 333.113 388.21 335.952L388.671 344.907C387.795 342.376 386.813 339.981 387.123 337.317L387.169 336.946L386.688 337.305L385.999 334.946C385.65 335.76 386.047 338.837 385.694 340.705C384.796 339.282 386.256 334.117 384.129 332.793C383.315 334.869 384.968 341.467 382.26 342.401L381.952 340.906Z" fill="#FFD700"/>
<path d="M108.129 128.794C109.266 128.976 109.364 129.048 110.347 128.577C111.532 120.307 110.443 111.615 111.763 103.335C111.995 101.875 111.313 101.125 111.868 99.1793L112.467 98.9958L113.003 99.9286C112.615 102.826 113.359 108.585 113.278 112.444C113.246 115.865 112.368 126.561 113.821 128.514L114.894 128.814C116.62 127.463 116.024 121.8 116.638 119.191C116.996 122.659 116.858 126.021 116.793 129.503C112.806 129.832 109.883 130.295 106.015 129.133L108.129 128.794ZM112.654 122.009C112.676 119.876 112.974 117.619 111.94 115.813C111.905 118.003 111.584 120.162 112.654 122.009ZM112.575 113.911C112.624 111.83 112.923 109.549 111.94 107.75C111.91 109.872 111.618 112.076 112.575 113.911Z" fill="#FFD700"/>
<path d="M111.94 115.813C112.975 117.619 112.677 119.876 112.655 122.009C111.585 120.162 111.906 118.003 111.94 115.813Z" fill="#FFD700"/>
<path d="M111.94 107.75C112.923 109.549 112.624 111.83 112.575 113.91C111.617 112.076 111.909 109.872 111.94 107.75Z" fill="#FFD700"/>
<path d="M287.541 333.815C285.664 329.793 268.106 333.442 263.016 330.797C264.379 330.589 265.955 330.465 266.723 329.373L265.912 328.73C264.95 328.935 264.245 329.043 263.268 329.164L262.909 328.535L263.303 327.956C267.32 327.982 267.97 327.383 271.561 327.017L271.337 327.933C272.27 328.634 284.347 330.081 286.282 330.267C287.069 331.725 287.403 332.167 287.541 333.815Z" fill="#FFD700"/>
<path d="M242.769 323.763C254.338 322.408 274.759 323.716 286.683 324.647C287.931 324.745 288.202 335.758 288.016 337.271L287.461 337.454L287.54 333.815C287.402 332.167 287.069 331.724 286.281 330.267L286.138 329.453C284.724 328.639 280.743 328.872 278.305 328.372L278 327.747C279.384 326.809 283.084 326.627 285.341 325.927L284.998 325.419C282.199 324.498 277.516 324.446 274.547 324.611C265.535 324.488 251.359 324.616 242.769 323.763Z" fill="#FFD700"/>
<path d="M393.127 144.297C398.521 144.769 402.995 141.347 413.295 142.27C413.918 142.829 414.283 143.141 414.968 143.629L414.927 144.94C410.753 146.475 399.925 145.316 394.97 145.561C391.079 145.754 386.03 146.45 382.343 146.008L384.633 145.682C387.417 145.648 390 144.47 393.127 144.297Z" fill="#FFD700"/>
<path d="M287.549 340.571C288.248 345.653 287.952 352.396 288.884 356.874L289.529 356.92C290.725 354.461 289.433 350.664 290.648 348.154C294.864 348.344 295.292 366.811 294.927 370.082C294.527 368.712 294.458 367.095 294.327 365.659C293.98 363.383 293.715 360.407 293.05 358.239C292.839 357.552 292.265 357.536 291.371 357.169C288.443 358.055 291.574 361.978 289.566 364.589C287.216 363.467 287.395 343.755 287.549 340.571Z" fill="#FFD700"/>
<path d="M336.544 3.55432L337.065 4.39967L336.216 5.24197C334.39 3.86585 298.479 4.15124 294.042 4.61744C297.037 6.17504 330.104 4.96162 336.216 5.24197L336.063 5.82198C333.134 5.46351 320.039 5.77085 316.473 5.7823C304.197 5.88133 291.92 5.73493 279.649 5.34324L279.821 4.75135C281.827 3.70087 305.444 3.92629 309.606 3.83834C314.971 3.88652 332.029 4.30725 336.544 3.55432Z" fill="#FFD700"/>
<path d="M191.332 41.1696C191.848 40.2112 192.136 40.0487 192.983 39.3041C193.002 42.3547 187.677 46.9583 185.851 49.1551C185.203 49.9334 184.423 54.4443 183.833 55.4441C180.351 61.3435 178.706 62.4064 176.565 68.9611L175.786 69.0922C176.708 64.8056 177.143 61.6827 177.29 57.3386C186.156 56.6344 183.938 48.8144 186.176 41.3535L187.669 42.0763C187.809 43.1773 187.979 44.0901 188.199 45.1787L188.734 45.2291C189.613 43.8839 190.479 42.5306 191.332 41.1696Z" fill="#FFD700"/>
<path d="M39.3789 360.183C39.3744 360.107 41.8169 350.852 42.1035 349.705C44.0722 348.184 44.9642 349.378 47.359 348.367C49.7508 347.102 49.2234 342.59 50.7009 340.677C51.9658 339.039 56.3626 337.189 55.0957 334.625L53.2084 334.165L53.5144 333.476C57.5084 332.682 56.0547 332.441 57.8555 329.563C58.7241 332.916 54.4187 339.066 52.4664 341.803C49.6549 345.745 50.7183 348.737 45.8149 349.592L45.1514 350.498C45.6162 352.474 45.8998 352.189 45.1648 353.679C44.0533 354.045 43.8681 353.957 42.6632 353.822C40.842 355.84 41.1415 359.303 39.3789 360.183Z" fill="#FFD700"/>
<path d="M354.719 14.9153C357.739 16.3888 359.689 16.5637 362.676 17.5483C363.034 21.2808 364.34 27.26 364.076 30.3292C363.018 25.5475 363.465 25.1284 358.545 22.7501C355.431 21.2442 355.412 17.9137 354.719 14.9153Z" fill="#FFD700"/>
<path d="M404.187 275.608C403.44 273.933 403.733 272.808 404.056 271.065C404.818 266.95 408.703 268.009 411.639 268.54C413.694 268.554 418.633 268.346 420.207 268.449C416.458 269.915 412.494 271.42 408.798 272.972C407.098 273.686 406.566 274.655 404.187 275.608Z" fill="#FFD700"/>
<path d="M41.646 178.775C45.495 178.432 60.2666 177.972 62.7925 180.326C61.8663 182.339 61.5783 181.105 60.5323 182.683L59.8922 182.936C54.5662 182.678 47.7741 179.427 41.646 178.775Z" fill="#FFD700"/>
<path d="M365.482 70.7371C366.005 75.659 365.816 82.3068 365.845 87.4021L366.042 114.171C365.961 116.682 365.717 125.915 366.376 128.058C366.792 126.626 366.846 126.027 366.986 124.595C367.292 127.06 367.283 133.922 366.355 136.172C365.05 132.824 364.92 76.8389 365.482 70.7371Z" fill="#FFD700"/>
<path d="M389.372 394.042C388.503 392.84 388.421 389.259 389.223 388.006L389.349 389.463C391.616 389.485 394.878 389.689 396.952 389.065C396.903 390.098 396.919 396.631 396.828 396.976C394.366 397.021 391.85 397.254 389.57 396.414L389.58 395.246L391.498 394.33C393.32 394.512 393.729 394.612 395.495 394.058L395.577 393.458C393.852 391.692 391.697 391.013 389.445 392.362L389.372 394.042Z" fill="#FFD700"/>
<path d="M389.979 139.409C392.844 138.81 395.625 138.062 398.544 138.225C394.005 141.543 398.727 142.205 393.129 144.297C390.001 144.47 387.419 145.648 384.634 145.682C388.714 143.776 389.128 143.906 389.979 139.409Z" fill="#FFD700"/>
<path d="M202.331 21.8838C202.326 20.3309 202.183 18.8811 202.818 17.4641C204.276 16.5213 203.537 16.7732 205.138 16.567C214.946 15.3016 209.794 9.31437 221.263 8.61865C217.09 9.8929 214.848 13.3806 211.286 15.752C208.887 17.3486 207.754 16.4192 206.207 18.0994C206.395 19.9027 206.659 19.525 205.74 20.6488L203.425 20.6763L202.331 21.8838Z" fill="#FFD700"/>
<path d="M294.041 4.61813C298.478 4.15193 334.389 3.86654 336.215 5.24266C330.103 4.96231 297.037 6.17573 294.041 4.61813Z" fill="#FFD700"/>
<path d="M114.465 125.139C115.931 120.032 115.698 107.982 116.577 106.694C116.87 110.5 116.293 116.261 116.639 119.191C116.024 121.8 116.62 127.463 114.894 128.814L113.822 128.514C112.368 126.561 113.246 115.865 113.279 112.444C113.894 114.061 113.895 121.714 114.465 125.139Z" fill="#FFD700"/>
<path d="M274.546 324.61C277.516 324.446 282.198 324.497 284.997 325.419L285.34 325.927C283.083 326.627 279.384 326.808 277.999 327.747L278.304 328.372C280.742 328.872 284.724 328.639 286.137 329.453L286.281 330.267C284.346 330.08 272.269 328.633 271.336 327.932L271.56 327.016C273.572 327.04 276.614 327.195 278.183 325.981C276.85 324.792 276.598 325.06 274.546 324.61Z" fill="#FFD700"/>
<path d="M390.674 387.508C390.655 387.722 392.787 380.715 392.882 380.428C394.067 380.009 394.186 380.096 395.476 380.346C397.076 382.511 395.39 382.71 396.75 384.825L396.99 388.411C394.451 387.036 393.564 387.29 390.674 387.508Z" fill="#FFD700"/>
<path d="M279.649 5.34323C277.803 5.75042 273.088 5.43651 271.944 3.99994C273.929 2.57055 304.903 3.43947 309.606 3.83833C305.443 3.92629 281.827 3.70086 279.821 4.75135L279.649 5.34323Z" fill="#FFD700"/>
<path d="M362.218 413.926C365.024 413.561 367.03 413.728 368.991 412.041L368.85 411.926C371.014 409.028 373.243 409.4 376.789 408.905C376.054 409.938 376.084 410.351 376.174 411.581C373.776 414.02 365.594 414.327 362.218 413.926Z" fill="#FFD700"/>
<path d="M175.786 69.0923L176.565 68.9612C176.019 73.0107 173.374 75.379 170.277 77.9834C168.519 79.4627 168.432 80.8189 167.885 82.8906C168.748 67.577 172.314 78.2272 175.786 69.0923Z" fill="#FFD700"/>
<path d="M355.094 413.078C353.185 412.613 353.374 412.946 352.198 411.746L352.478 411.073C355.688 409.8 358.496 409.975 361.898 410.04L360.394 410.769L360.318 411.336C362.001 412.072 363.23 412.117 365.06 412.326C362.546 413.081 357.703 413.294 355.094 413.078Z" fill="#FFD700"/>
<path d="M289.565 364.589C291.573 361.978 288.442 358.054 291.37 357.169C292.264 357.536 292.839 357.552 293.049 358.238C293.714 360.406 293.979 363.382 294.326 365.658C292.733 364.179 291.566 364.27 289.565 364.589Z" fill="#FFD700"/>
<path d="M428.565 243.447L430.037 243.569C431.413 245.229 430.996 248.238 430.936 250.511C429.702 249.437 430.87 248.094 429.308 246.928C427.675 246.842 426.063 246.547 424.642 247.402C423.617 246.803 423.95 247.043 423.34 245.894C424.412 245.044 426.05 245.215 427.746 244.959L428.565 243.447Z" fill="#FFD700"/>
<path d="M433.456 231.159L434.165 231.391L434.315 232.659C436.547 233.858 436.276 232.606 438.797 234.436L438.72 234.951C436.943 235.631 432.537 235.278 429.97 235.581C431.141 235.125 431.369 235.056 432.306 234.253C432.533 232.866 432.677 232.369 433.456 231.159Z" fill="#FFD700"/>
<path d="M389.175 400.397L389.617 400.622C389.406 402.466 389.139 402.078 390.07 403.23C391.639 403.252 395.511 403.195 396.768 403.736C392.3 405.534 391.246 403.735 386.868 406.664L385.247 406.144C389.509 404.566 388.409 404.416 389.175 400.397Z" fill="#FFD700"/>
<path d="M389.571 396.415C391.851 397.255 394.367 397.021 396.829 396.976L396.903 399.83C394.065 398.713 391.859 399.214 389.059 399.41L389.571 396.415Z" fill="#FFD700"/>
<path d="M128.464 81.3236C130.087 81.1459 132.192 80.7144 133.559 81.4433C134.721 83.0338 133.97 84.7611 134.277 86.7198L133.113 85.6953C132.643 85.6054 132.178 85.4962 131.719 85.3683C130.519 85.0291 129.684 84.924 129.213 84.0478C130.517 83.1554 131.569 83.3241 133.214 83.1597C132.349 82.1518 129.804 81.6396 128.464 81.3236Z" fill="#FFD700"/>
<path d="M389.372 394.043L389.445 392.363C391.697 391.013 393.852 391.692 395.577 393.459L395.495 394.058C393.729 394.613 393.32 394.512 391.498 394.33L389.58 395.247L389.372 394.043Z" fill="#FFD700"/>
<path d="M366.043 114.171L366.828 113.267L367 122.382L366.987 124.595C366.847 126.027 366.793 126.626 366.376 128.058C365.718 125.914 365.962 116.682 366.043 114.171Z" fill="#FFD700"/>
<path d="M389.059 399.41C391.859 399.214 394.065 398.713 396.903 399.83C396.145 400.798 396.507 400.653 395.45 400.795C393.509 401.041 391.54 400.983 389.618 400.623L389.176 400.397L389.059 399.41Z" fill="#FFD700"/>
<path d="M186.176 41.3541C188.168 41.0257 189.276 41.9267 191.332 41.1702C190.479 42.5311 189.613 43.8844 188.734 45.2296L188.199 45.1793C187.979 44.0906 187.809 43.1778 187.669 42.0768L186.176 41.3541Z" fill="#FFD700"/>
<path d="M423.542 250.139L423.888 248.851C425.867 248.609 426.18 248.546 428.069 249.162L428.833 249.872C428.099 250.893 428.046 250.618 426.459 250.923L423.542 250.139Z" fill="#FFD700"/>
<path d="M434.389 147.249C436.166 146.337 435.728 146.241 437.48 146.39L438.263 147.299L438.094 148.406C436.511 149.342 435.928 148.844 434.36 147.772L434.389 147.249Z" fill="#FFD700"/>
</svg>
