<svg width="78" height="75" viewBox="0 0 78 75" fill="none" xmlns="http://www.w3.org/2000/svg">
<path d="M58.4796 1.40194C59.513 1.42693 60.0732 1.57711 61.0656 1.91177C61.1518 2.12166 61.3181 2.49541 61.3793 2.69759C61.4993 3.23985 61.5026 3.84219 62.0415 4.11452C62.8928 4.54464 62.8155 4.62044 62.9985 5.48523C63.0157 5.55767 63.0626 5.77423 63.0855 5.83121C63.2035 7.8327 63.2978 10.7508 63.2419 12.793C63.1446 13.8965 63.167 24.0215 63.3928 24.6271C63.5535 24.2201 63.555 22.9792 63.5022 22.5333L63.5044 22.133C63.628 21.6588 63.6141 19.4979 63.6466 18.8865C63.8453 15.1553 63.4804 10.5037 63.9304 6.84373C64.1988 7.84352 63.9227 9.51741 64.1756 10.5549C64.1883 15.5893 64.0826 21.3898 64.3651 26.3764C65.033 26.4194 65.4904 26.4268 66.1594 26.4059C66.7975 26.4859 67.6711 26.36 68.3444 26.3252C69.2019 26.2808 71.0755 26.4904 71.7978 26.2128L71.8048 25.9756C71.6862 25.8875 71.6232 25.8309 71.5152 25.7299L71.6818 25.6136C71.4295 25.3071 69.3835 25.4599 69.1453 25.2749C70.161 25.042 73.6711 24.8705 74.6945 25.0935C74.8291 25.2525 74.7375 27.5626 74.6851 27.8648C74.6909 28.9585 73.8407 29.4687 73.3209 30.3231C72.7955 31.1869 72.3007 32.0673 71.7829 32.9377C71.1941 33.9268 70.4184 33.6535 70.4203 34.8356C70.4209 35.2501 70.3184 35.6336 70.67 35.9517C71.8009 36.1946 72.9666 36.2594 74.0976 36.4904L74.6183 36.6007C74.6941 36.6713 74.8838 36.8189 74.8997 36.9118C75.0428 37.7511 75.4596 37.8761 76.0181 38.1788C76.1491 38.8887 76.1387 39.1688 76.2147 39.8226C76.0162 41.2595 75.6548 40.6069 75.0324 41.2292L75.0963 41.6972L75.0037 41.8056C74.8689 42.0244 74.8439 42.1144 74.8047 42.3652C74.6425 42.5104 74.603 42.5229 74.4004 42.6054C74.0059 42.7116 73.4486 42.7399 73.2335 42.9512C73.0999 43.2368 73.1158 43.4447 73.1064 43.7594C73.1412 44.1987 73.193 44.6999 73.1956 45.1355L73.2882 45.2382L73.793 45.38C74.0315 45.4388 74.1203 45.4637 74.3707 45.4749C74.5385 45.7435 74.5797 46.3525 74.5094 46.6656C74.1972 47.0287 73.8557 46.722 73.3493 47.0553C73.1566 47.2845 73.2414 47.4555 73.195 47.7163C73.0693 48.4222 71.7821 48.4285 71.2285 48.5661C70.7206 48.4701 70.0483 48.2786 69.9164 49.0228C69.8606 49.3379 69.8099 49.5414 69.939 49.8444C69.1048 50.2076 68.5561 50.5537 68.2366 51.434C67.7535 51.6088 67.6272 51.4021 67.2716 51.7752C65.4759 52.5617 66.0639 55.3316 65.9841 56.8649C65.9583 57.4937 65.9888 61.1286 66.0918 61.6537L66.145 61.9241C66.6136 61.7552 66.3277 60.5618 66.4685 60.1864C66.8364 60.4259 66.5839 61.36 66.7392 61.6174C66.8003 61.2795 66.7316 60.723 66.7921 60.5758L66.9112 61.0025L66.9945 60.9376L66.9865 61.0045C66.9329 61.4863 67.1028 61.9195 67.2544 62.3772L67.3002 65.0251C67.3032 66.0786 67.444 69.3285 67.3498 70.1718C67.2112 70.3984 67.2253 71.046 67.3757 71.2635L67.4117 71.4812L67.41 71.6925L67.3213 72.2342L67.3416 72.4127C67.209 73.1396 67.3993 73.1668 66.6618 73.4521C66.2923 73.5039 64.4818 73.9006 64.102 74.0066C63.0591 73.9172 61.0499 74.0533 59.8939 74.0836C58.9922 74.1073 56.9266 74.0927 56.1473 74.1887L56.0941 74.1827C54.7747 73.8195 53.3296 73.2886 52.7959 71.8327C52.6393 71.4055 52.6324 70.8659 52.3875 70.4761C52.1131 70.2838 51.9974 70.2838 51.667 70.2378L51.4618 70.4063L51.3937 70.3748C51.1559 69.6237 51.3233 68.7345 51.1275 67.9473L51.1168 67.5275C51.2358 66.8001 51.3208 61.5132 50.2691 61.6302C50.0785 62.0737 50.2126 62.7117 50.0622 62.9522L49.8372 60.9961C49.8694 60.7226 49.8226 58.7308 49.6066 58.7132C47.5433 58.5447 44.0097 58.3082 42.0079 58.5533C38.6688 58.6296 35.2613 58.2587 31.9071 58.5008C31.0272 58.5644 30.1012 58.7143 29.2319 58.736C28.283 60.0612 27.8495 60.5226 27.473 62.0827C26.4132 62.6357 26.3641 63.5149 25.8127 64.5106C25.2334 65.5568 24.719 66.631 24.2156 67.7156C23.0806 68.441 23.2636 69.4769 22.3334 70.6047C21.4777 71.6426 20.801 72.1475 19.7783 73.0161L19.7617 73.1116L19.8944 73.2359C19.4993 73.7648 17.1806 73.7656 17.0842 74.3347L17.2238 74.4945L17.1844 74.6441C16.2079 74.9304 11.052 74.8393 9.75865 74.7704C9.39977 74.5034 8.7335 74.7477 8.62633 74.6904C7.06399 73.855 3.89722 74.493 3.93627 71.9831C3.9377 71.8913 4.08093 71.7969 4.15397 71.729C4.18113 70.886 4.45054 69.6311 5.20628 69.1329C5.75121 68.7736 5.87693 68.5968 5.90031 67.9119C5.94233 66.6838 7.38119 66.3645 7.25666 65.0647C7.23947 64.8846 8.41166 64.3365 8.62539 64.2238C8.54357 63.5882 9.11033 62.5191 9.53547 62.074C10.1842 61.3949 9.94238 61.3638 10.1533 60.4906C10.1933 60.3246 10.8373 59.8244 10.8531 59.7729C10.9416 59.4854 10.9253 59.2242 11.0978 58.9168C11.3118 58.8183 11.3693 58.7942 11.5511 58.6463C11.7857 58.1476 11.656 57.641 11.8064 57.2419C12.0322 56.6423 13.0236 55.7516 13.0645 55.1563C13.096 54.6975 13.088 54.1912 13.273 53.7782L13.4821 53.8704C13.4196 54.0277 13.413 53.9584 13.4429 54.0939C13.7673 54.0205 13.9364 53.921 14.2314 53.7717C14.4478 53.2701 15.094 50.4168 15.0456 49.803C15.0081 49.3269 14.1631 48.0536 13.6619 47.829C13.2842 47.6598 13.2771 47.7315 13.0281 47.3571C13.0437 46.6651 12.3108 46.5156 11.8432 46.154C11.8135 46.131 11.573 45.387 11.5486 45.3121L11.3104 45.3343C10.5965 44.8773 10.4877 44.923 10.2879 44.1287C10.2239 43.874 9.25531 43.454 9.07097 43.1996C8.86447 42.9217 8.69302 42.4137 8.34558 42.2781C8.1462 42.2002 7.9311 42.1022 7.71746 42.0174C7.32464 41.8617 7.39708 41.7087 7.31398 41.3499C7.30874 41.3272 7.2552 41.0032 7.2552 41.0032C6.91609 40.7547 6.56667 40.5259 6.33601 40.1627C6.32768 40.1505 6.31934 40.1382 6.31109 40.126L6.15185 40.2438C5.81815 39.1032 5.77682 39.2272 4.83804 38.6492C4.76989 38.6072 4.85866 38.3204 4.87662 38.1485C3.83091 37.5328 3.94214 37.4729 3.77924 36.6744C3.72027 36.3853 2.87833 35.9456 2.61258 35.223L2.58447 35.1449C2.34329 35.195 2.17906 34.8996 2.04814 34.7087C1.79516 34.34 1.86236 34.5863 1.45505 34.5126C1.36003 34.2122 1.403 32.8784 1.39817 32.4697C3.34065 32.1629 4.11797 32.4027 5.78146 32.2456L5.97112 32.2316C6.77017 32.7379 7.31115 32.5447 7.50949 32.7575C7.33108 32.7583 6.63035 32.7244 6.5524 32.7711C6.60053 32.825 6.65725 32.8888 6.72265 32.9622C7.24386 32.9737 7.79205 33.0635 8.28104 33.1696C8.14508 33.2203 8.03251 33.2578 7.90429 33.3285C9.13259 33.6491 11.7951 33.7934 13.0644 33.6203L14.2344 33.6275C16.6079 33.863 15.0062 32.093 14.7234 31.1916C14.4121 30.199 14.5028 28.7237 13.8837 27.7925C13.7297 27.5609 13.7278 27.6086 13.6326 27.3061L13.6082 27.2269L13.4968 27.2456L13.2469 27.7161C13.2011 27.6498 12.81 25.0314 12.7231 24.6427C12.7475 23.6689 12.3771 20.7245 14.0547 21.2145C14.4036 21.2425 14.702 21.8154 14.9498 21.8808C15.8862 22.1279 16.4925 21.8006 16.9884 22.749C17.0272 22.8231 18.0994 23.2676 18.3444 23.354C19.0137 23.5641 19.5195 23.4805 20.2094 23.4209C20.2207 22.7911 20.2446 22.1832 20.1826 21.5559C20.1228 21.0261 20.2227 19.9842 20.172 19.2959L20.2757 18.2972C20.514 17.5618 20.3282 16.7019 20.5939 16.2804C21.4155 15.6334 23.6473 16.0824 24.5921 16.1786L24.6347 16.1892C24.9892 16.4588 25.0083 16.6 25.2862 16.8997C25.8478 17.5054 26.7044 18.0319 27.5525 17.7186C27.8322 17.6153 28.2034 17.5093 28.3421 17.2394C28.7824 16.3828 28.9885 15.4422 29.3686 14.5559C29.5727 14.4109 29.7241 14.4493 29.9532 14.4375C30.0364 14.4333 30.4509 14.422 30.4879 14.3581C30.8985 13.6492 30.8676 12.7494 31.1598 12.0175C31.1591 12.0193 31.8263 11.4074 31.8585 11.3359C32.1424 10.7054 32.2836 9.92089 32.5294 9.27576C32.5276 9.2804 33.3971 8.55552 33.4691 8.44173C33.5526 8.30991 33.419 8.06842 33.4188 7.81688C33.4184 7.51249 33.6178 7.62911 33.655 7.54257C33.7044 7.42776 33.8438 7.15267 33.8915 7.04173C34.1233 6.50281 34.4061 6.1503 34.841 5.76409C35.1393 5.49932 34.9763 5.04548 35.1564 4.77641C35.2516 4.63419 36.0546 4.35704 36.217 4.21739C36.4169 4.04552 36.6158 3.37323 36.8373 3.21081C37.4001 2.79805 38.3198 2.72113 38.8641 2.28661L38.8546 2.04493C39.1053 1.93811 39.7128 1.89564 40.016 1.85912L39.5928 1.79374L39.7233 1.46119C41.1997 1.33631 44.5904 1.42581 46.195 1.41921L58.4796 1.40194ZM33.4054 13.6074C32.2923 14.4098 32.1526 15.6943 31.5343 16.8279C30.9597 17.8815 30.6535 18.9567 30.2979 20.0945C30.1467 20.5783 29.7268 20.7388 29.4796 21.16C29.0883 22.2962 27.9129 24.6244 27.7133 25.6892C27.3868 25.6591 27.4356 25.6096 27.2294 25.7636C26.9472 26.5223 27.0124 26.2233 26.5069 26.5894L26.5587 26.6518L26.8985 26.5733L26.9874 26.6651L26.9522 26.815C26.3666 27.0736 26.6766 27.6488 26.3314 27.5462L26.2538 27.0164C25.8522 27.3054 25.9076 28.5159 25.942 28.9866L25.9323 28.9114C25.9347 29.103 25.9527 29.5524 25.913 29.7131C25.5369 29.6212 25.5557 29.5546 25.3042 29.6997C25.2981 29.7425 25.2192 30.3165 25.2275 30.3102C24.3414 30.9866 24.4597 31.6894 24.6016 32.7534C24.5787 32.5088 24.5597 32.2638 24.5445 32.0185C24.6838 32.6972 24.7119 32.8133 24.4382 33.4347L24.2272 33.4423L24.3174 33.5861L24.3595 33.5552L24.2402 33.5119L24.2016 33.1066C24.1224 33.1387 24.0272 33.2239 24.0096 33.2874C23.9598 33.4663 23.3485 33.6818 23.3349 33.7168C22.979 34.6342 23.2012 35.8549 23.2772 36.637C23.2271 37.0832 23.1498 37.2219 22.9635 37.6371C22.5906 37.8448 22.6205 38.0966 22.4473 38.2249L22.2118 37.9577L22.1024 37.9545C21.6767 38.9231 21.8712 39.5553 21.895 40.5489C21.8364 41.8687 21.2653 42.2813 20.6462 43.3383C20.3924 43.7717 20.3066 44.9529 20.1465 45.4663C20.0705 45.7102 19.6742 45.9297 19.5025 46.2932C19.232 46.8658 18.9168 48.6999 18.6935 49.0695C17.9301 49.5283 17.5026 51.0809 17.3665 51.9251C16.8025 52.296 15.9881 53.979 15.8752 54.6196C15.8216 54.8225 15.7481 55.0987 15.7505 55.3065C15.078 56.0501 14.9749 56.379 14.6256 57.3044C14.3315 58.3249 14.269 58.6029 13.4847 59.3443C13.2726 59.5289 13.1863 59.8056 13.0742 60.069C12.5701 61.3841 11.6872 63.0721 10.9937 64.3082C10.6307 64.9552 10.2364 65.2789 9.83797 66.0824C9.10518 66.8182 9.20607 67.1042 8.77595 67.7563C8.49915 68.355 7.99942 68.8827 7.65232 69.4329C7.34122 69.9259 7.18276 70.7626 7.05273 71.3511C8.81505 71.8008 9.61092 71.8004 11.443 71.8157C11.7319 72.0153 15.2992 71.8535 15.9145 71.9135C16.4472 71.9656 18.1061 71.3523 18.5116 70.8814L18.3897 70.7799L18.4071 70.6851C18.7602 70.6374 19.2099 70.5983 19.5411 70.4573C19.9209 70.2956 19.9758 69.5569 20.1066 69.4018C20.6968 68.702 21.3308 67.9569 21.9292 67.2684C22.0505 67.1289 22.0578 66.0884 22.1736 65.9017C22.4431 65.4669 23.1774 64.7342 23.3911 64.2961C23.5203 64.031 23.3882 63.3205 23.5448 62.8078L23.7463 62.8038C23.7728 62.9411 23.7555 62.9851 23.7299 63.1198L23.7207 63.1666C23.9385 63.01 24.5979 62.739 24.6498 62.6597C24.8628 62.3335 24.7223 61.4384 24.9548 61.0699C24.9906 61.2064 24.9973 61.2973 25.1007 61.3914C25.4167 60.8588 24.7374 60.4948 25.9671 59.9911C26.2335 59.8819 25.9646 59.1839 26.0425 59.0802C26.8464 58.0122 27.7646 56.8536 28.851 56.0316C29.7161 55.3698 30.407 56.349 30.9104 55.3429L31.3259 55.331C32.8428 55.2888 34.3604 55.2731 35.8779 55.2839C38.5032 55.3721 41.1388 55.5168 43.765 55.6469C44.3327 55.7948 45.0143 55.8269 45.3978 55.9616C45.3108 56.0201 45.1368 56.0293 45.1518 56.0058C44.8912 56.4134 44.3423 56.2196 43.909 56.0645C43.9438 56.4346 43.9851 56.5446 43.9014 56.9088C44.4394 57.0512 44.832 56.9431 45.3417 56.9962C45.6222 57.0011 46.5195 57.0313 46.7451 56.9961L47.3332 57.0065C48.6213 57.1114 49.6356 56.9536 50.9402 57.1613L51.0721 57.236C51.2363 57.6751 51.2541 57.8386 51.3171 58.3088C52.1902 58.4822 52.4951 58.3654 52.5883 59.3223C52.6377 60.3798 52.8047 61.5971 52.8188 62.6121C52.8599 63.2854 52.9089 63.8775 52.8583 64.5524C52.9071 64.7913 52.8947 64.8261 52.8285 65.0624L52.9126 65.2616C52.9697 65.4668 52.9484 65.5647 52.9009 65.7703C53.0393 65.927 53.0509 65.9306 53.2377 66.0304C53.4439 66.0014 53.4696 65.9948 53.6462 65.8852C53.6419 65.6817 53.627 65.6459 53.553 65.4537L53.533 65.4031C53.6887 65.2635 53.6951 65.2514 53.8898 65.1868C53.9205 65.8967 53.967 66.6589 53.9665 67.365C53.9123 68.0406 53.7313 70.1365 54.0419 70.6404C54.282 70.6717 54.5219 70.7049 54.7615 70.7399L54.7938 70.827L54.7272 70.7312L54.6949 70.8939L54.2841 70.983C54.3712 71.3025 55.1892 71.2803 55.4985 71.3228C55.4884 71.8169 55.2296 71.5231 55.5018 71.8212C56.5536 72.2844 63.0548 72.0329 64.6084 71.6334C65.1369 71.4975 65.1092 71.8615 65.3648 71.4606C65.5898 71.1079 65.2979 70.7311 65.5683 70.3964C65.6714 70.3786 65.6867 70.3576 65.7845 70.3053C65.9619 69.7311 65.8501 66.7942 65.7727 66.0975L65.6199 66.0927L65.3119 66.0441L65.1845 66.0038C65.3033 65.6429 65.4069 64.8897 65.092 64.6305C64.8319 64.7867 64.92 64.6993 64.7663 64.9764C64.7367 65.27 64.8511 65.4404 64.9813 65.7069L64.8155 65.8788L64.8312 65.8424L64.7404 65.7549C64.7722 65.3611 64.5604 64.7036 64.3548 64.3668C64.3392 63.4266 64.1789 55.9867 64 55.6512C63.8903 55.1961 64.0681 54.9406 63.8274 54.2069L63.7642 54.2861L63.8252 54.398L63.7253 54.4571C63.6301 54.7896 63.6551 55.3078 63.655 55.6679C63.5358 56.2489 63.6966 57.9039 63.5826 58.4457C63.5089 58.9061 63.567 59.8326 63.4312 60.0679C63.2492 59.8252 63.2912 56.1301 63.1589 55.4232L63.1494 55.069C63.23 54.1589 63.0317 52.7174 63.0168 51.7157C62.9913 48.6289 62.9493 45.5422 62.8911 42.4557C63.071 41.7022 62.8332 37.4242 62.8161 36.4066L62.8222 35.4255L62.852 35.0677L62.8422 34.9972C62.783 34.5601 62.9058 34.0975 62.7303 33.8547C62.3215 33.6215 62.2656 33.7275 61.926 33.3708L61.8372 33.4317C61.78 33.7694 61.8133 33.8783 61.8787 34.2171L61.9318 34.2676L61.9513 33.9178L62.0516 33.8418L61.9595 33.8374L62.0181 33.7572C62.0887 33.9795 62.1161 34.01 62.0485 34.2202C62.1237 34.4738 62.1753 34.6678 61.9893 34.9105L61.8478 34.9065C61.8322 35.0587 61.8179 35.1889 61.8149 35.342C61.8222 35.825 61.8116 36.5133 61.8454 36.9793L61.8377 38.0774L61.7228 38.0622C61.5382 37.8619 61.6628 30.7004 61.4463 29.7921L61.4284 28.9421C61.5155 27.0647 61.4381 24.6789 61.43 22.7697L61.4366 12.9162C61.4377 11.5391 61.3296 8.95667 61.443 7.69709C61.488 7.21034 61.4335 6.45211 61.4106 5.94267C61.0005 5.84195 60.7008 5.78257 60.3163 5.59591C60.1508 5.35022 60.0959 4.80761 60.0214 4.47263C59.6009 4.38583 59.1757 4.27196 58.7587 4.16626L58.8003 4.00117C58.5361 3.63233 58.5516 3.49354 58.3741 3.08568C58.1325 2.95514 57.759 3.01409 57.4682 3.03068C57.1711 3.12624 56.9264 2.93452 56.3963 3.03317C54.8824 2.96485 52.8912 3.04108 51.3268 3.03326C50.5306 2.97559 45.8737 2.94766 45.3801 3.23186C45.9111 3.40141 51.256 3.45392 51.9236 3.36352C53.3574 3.36592 55.0751 3.32484 56.4823 3.38113L56.8702 3.5127L56.9083 3.60302L56.7587 3.70641C56.0635 3.75152 55.1939 3.7272 54.4853 3.72591C52.8973 3.60672 45.4051 3.6038 44.0159 3.90475C45.7857 4.01776 49.8134 4.27454 51.4838 4.05918C52.8629 3.98321 56.1361 4.23501 57.306 4.00848L57.3241 4.10473L56.9819 4.3255C51.2858 4.54112 45.5208 4.17408 39.8325 4.54954C37.6466 4.69383 37.2455 6.43518 36.2703 7.96427C35.1433 9.73131 34.0101 11.5841 33.4054 13.6074ZM53.018 66.3036C53.0065 66.6767 52.9196 67.049 53.0569 67.3247C53.1213 67.3357 53.2504 67.3624 53.3094 67.3625L53.2935 67.2923C53.2197 66.9523 53.2501 66.8521 53.3222 66.5122C53.191 66.3354 53.2465 66.3927 53.018 66.3036ZM10.1525 72.8334L10.2534 73.0573C10.6166 73.1485 12.6335 73.281 12.9367 73.1273L13.0116 73.0299C12.3312 72.7173 11.077 72.9644 10.1525 72.8334ZM64.0013 53.9246C63.9699 53.5503 64.0122 53.022 63.8398 52.7588L63.687 52.6579C63.6605 53.0197 63.5814 53.5838 63.6928 53.9075L63.8206 53.9866L64.0013 53.9246Z" fill="black" fill-opacity="0.988235"/>
<path d="M45.4247 18.8646C46.2069 19.1688 47.6302 18.4998 48.2383 19.1935L48.2637 19.3074C48.2899 21.3719 48.3814 23.7925 48.4624 25.8672C48.2764 26.3432 48.1417 27.1181 48.5011 27.5232C48.8058 27.6721 49.1143 27.6732 49.4521 27.6999L49.5605 27.5857L49.7269 27.667C49.7376 28.0393 49.7824 28.8796 49.756 29.2137C49.6913 29.9833 49.6847 33.1145 49.9593 33.7315L50.0901 33.8101L50.4206 33.6882C50.8882 33.9268 50.9518 34.7558 51.1019 35.222C51.1387 36.5934 51.3358 41.1651 51.1298 42.3051L50.9209 42.2122L50.8767 42.239C50.6838 42.3541 50.3334 42.4674 50.1985 42.5747C49.5562 43.0863 49.7464 43.1171 48.9419 43.3344L48.9642 43.6902C48.5952 43.9729 48.6429 43.6927 48.4005 43.928C46.806 44.0206 44.8168 43.9822 43.2023 43.9763L35.055 43.9351C34.1064 43.843 33.5587 43.6302 32.722 43.4977C31.9883 43.3816 30.4505 43.2793 29.6889 43.2686C29.4475 43.4164 29.5291 43.3358 29.4064 43.6689L29.2576 43.5343C29.0955 43.0901 29.3892 42.9483 29.1189 42.5506C29.0046 42.3428 29.1275 41.2823 29.2187 41.0227C29.4702 40.7653 30.072 41.1093 30.6461 40.8547L30.7841 40.8407C31.4524 40.9455 34.425 40.8777 34.5655 40.0672C35.2573 39.0592 34.924 38.5545 36.0379 38.0128C36.8254 36.0692 37.4452 36.1577 38.0452 34.0006C38.492 33.7291 38.5374 33.7343 38.8555 33.3054C39.3822 32.821 39.3874 32.1906 39.821 31.6957C39.9857 31.5076 40.6745 30.793 40.7446 30.6277C41.3026 29.3107 42.2779 28.0623 42.4899 26.6764C42.7267 26.5256 42.928 26.4257 43.0746 26.1869C43.1773 26.0132 43.2696 25.7185 43.3405 25.5206L43.4737 25.083C44.5607 22.5922 44.9984 21.5239 45.4247 18.8646ZM32.5417 42.8014C31.7849 42.6879 30.2212 42.5837 29.4396 42.5994C29.4581 42.8029 29.4487 42.9059 29.5583 43.0746C30.5563 42.9 31.5142 43.0792 32.5417 42.8014Z" fill="black"/>
<path d="M29.4397 42.5995C30.2213 42.5838 31.785 42.6879 32.5418 42.8014C31.5143 43.0793 30.5564 42.9 29.5584 43.0746C29.817 42.9138 30.2081 42.8655 30.5162 42.8068C30.1561 42.745 29.7971 42.6758 29.4397 42.5995Z" fill="black" fill-opacity="0.529412"/>
<path d="M29.4397 42.5995C29.7971 42.6758 30.1561 42.745 30.5162 42.8069C30.2081 42.8656 29.817 42.9138 29.5584 43.0746C29.4488 42.9059 29.4582 42.803 29.4397 42.5995Z" fill="black" fill-opacity="0.270588"/>
<path d="M45.2781 45.9919C45.3145 45.7305 45.266 45.8166 45.4459 45.6563C45.7528 45.6253 45.9522 45.6516 46.2573 45.6793C46.1132 45.7609 45.9143 45.896 45.7588 45.9063C45.6887 46.1438 45.6063 46.3345 45.6815 46.5715C45.8086 46.6733 51.544 46.4851 52.3281 46.6835C52.3354 46.6853 52.4277 46.6696 52.4325 46.669C52.7246 47.5545 52.2059 47.4036 52.499 48.2331C52.2636 48.3514 51.9076 48.3763 51.6343 48.4125C50.7295 48.5351 46.6015 48.4707 45.6004 48.4349L45.3547 48.2647C45.2286 47.8821 45.2545 47.3423 45.2716 46.9395L45.2918 46.685L45.2781 45.9919Z" fill="black" fill-opacity="0.984314"/>
<path d="M46.2573 45.6792C47.5588 45.6335 49.6194 45.7553 50.7354 45.6545C51.1595 45.6704 52.4118 45.6921 52.7642 45.7614C52.6978 45.9198 52.5473 46.3433 52.4244 46.4276C51.9973 46.127 50.6955 46.3412 50.1218 46.3481C48.8079 46.3641 47.5049 46.3374 46.1923 46.2634C46.0478 46.1444 45.9032 46.0253 45.7588 45.9062C45.9142 45.8959 46.1132 45.7608 46.2573 45.6792Z" fill="black" fill-opacity="0.937255"/>
<path d="M45.8322 49.106C47.5423 49.1521 49.2364 49.0423 50.9507 49.1447C51.3341 49.1676 51.9767 49.1336 52.3118 49.1707C52.4062 49.394 52.4723 49.328 52.5163 49.6467L52.3928 49.7733C52.1357 49.824 51.6924 49.7908 51.4216 49.7693C49.6495 49.6279 47.8993 49.6596 46.1258 49.7282C45.7503 49.7427 45.5988 49.9456 45.3333 49.6487C45.379 49.4127 45.6093 49.2931 45.8322 49.106Z" fill="black" fill-opacity="0.0431373"/>
<path d="M48.2637 19.3075C48.4908 19.2851 48.7666 19.248 48.9906 19.2547C48.9056 19.5803 49.1295 20.1776 49.427 20.3899L49.4678 20.5555C49.2075 20.5752 48.8274 20.5555 48.6586 20.6966C48.8462 21.0593 48.9895 21.0972 48.7133 21.4195L48.7553 21.5638C48.9678 21.5897 49.1205 21.6084 49.3323 21.6579L49.3844 21.7603L49.3089 21.918C49.2126 21.9262 49.0815 21.9424 48.9883 21.9403L48.739 21.9992L48.6732 22.1376C48.738 22.3113 48.8213 22.4795 48.8151 22.6599C48.717 23.0229 48.7005 24.2619 48.724 24.6554C48.7062 25.0642 48.7561 25.5543 48.5559 25.8493L48.4624 25.8673C48.3813 23.7925 48.2898 21.372 48.2637 19.3075Z" fill="black" fill-opacity="0.101961"/>
<path d="M45.6553 49.0922C45.7949 49.037 46.6038 49.0295 46.8753 49.0017L46.9411 48.9208C46.6684 48.7577 46.0509 48.7249 45.7092 48.6851L45.7463 48.6457C46.403 48.5463 47.5357 48.5716 48.2545 48.5661L52.5262 48.5347C52.5738 48.8691 52.6174 48.8188 52.4949 49.086C52.4861 48.9503 52.4722 48.9522 52.3979 48.8349C51.781 48.7413 50.5449 48.8237 49.9029 48.8528L49.8654 48.9668C50.1634 49.1655 52.0093 49.0916 52.4949 49.086L52.3118 49.1709C51.9767 49.1337 51.3341 49.1677 50.9507 49.1448C49.2365 49.0424 47.5423 49.1522 45.8322 49.1062L45.6553 49.0922Z" fill="black" fill-opacity="0.2"/>
<path d="M49.044 23.4714L49.0851 23.59C48.9836 24.5151 49.2095 25.107 49.1647 25.4516L49.1288 26.0192C49.1175 26.2047 49.1188 26.2379 49.1908 26.4102L49.3518 26.4654C49.4463 26.366 49.5084 26.3222 49.5636 26.2011L49.6725 26.7018L49.7268 27.6671L49.5605 27.5858L49.452 27.6999C49.1143 27.6733 48.8058 27.6721 48.501 27.5232C48.1416 27.1182 48.2764 26.3432 48.4624 25.8673L48.5559 25.8492C48.7561 25.5542 48.7062 25.0641 48.724 24.6554C49.0423 24.397 48.5695 23.9877 49.044 23.4714Z" fill="black" fill-opacity="0.917647"/>
<path d="M29.1431 41.0257C29.2288 40.813 29.2234 40.3998 29.3161 40.0453C29.7665 39.6195 33.4385 40.152 34.103 40.2444C34.1937 40.257 34.4723 40.1171 34.5656 40.0673C34.425 40.8777 31.4525 40.9456 30.7842 40.8408C31.3258 40.7272 32.4641 40.9428 32.8329 40.4925L32.7707 40.4205C32.4426 40.3698 29.7632 40.2829 29.6067 40.3656C29.4969 40.6014 29.5111 40.4983 29.5526 40.755C29.7287 40.8736 30.3518 40.8377 30.6462 40.8547C30.0721 41.1093 29.4703 40.7653 29.2188 41.0228L29.1431 41.0257Z" fill="black" fill-opacity="0.768627"/>
<path d="M52.7642 45.7615C52.7308 46.1078 52.6389 46.4376 52.7932 46.7191C53.0639 46.9284 53.4795 46.9189 53.8183 47.009C53.1344 47.0495 52.9912 47.0524 52.4324 46.6689C52.4277 46.6695 52.3353 46.6852 52.3281 46.6834C51.544 46.485 45.8085 46.6733 45.6814 46.5714C45.6062 46.3344 45.6887 46.1437 45.7588 45.9062C45.9032 46.0253 46.0478 46.1444 46.1923 46.2634C47.5049 46.3374 48.8079 46.3642 50.1218 46.3482C50.6955 46.3412 51.9972 46.1271 52.4244 46.4276C52.5473 46.3434 52.6978 45.9199 52.7642 45.7615Z" fill="black" fill-opacity="0.478431"/>
<path d="M29.2577 43.5343L29.4065 43.6689C29.5292 43.3358 29.4476 43.4165 29.689 43.2687C30.4506 43.2793 31.9884 43.3816 32.7221 43.4977C33.5588 43.6302 34.1065 43.8431 35.0551 43.9351C34.9158 43.9536 29.3782 43.9069 29.2402 43.877L29.1643 43.7183L29.2577 43.5343Z" fill="black" fill-opacity="0.2"/>
<path d="M42.2967 26.6927C42.6063 26.4277 42.699 26.331 43.0745 26.187C42.9279 26.4257 42.7266 26.5257 42.4899 26.6765C42.2778 28.0624 41.3025 29.3108 40.7445 30.6277C40.6744 30.7931 39.9856 31.5077 39.8209 31.6958C39.3873 32.1907 39.3821 32.821 38.8555 33.3055C39.0726 32.5796 39.5329 31.8218 39.6039 30.973C39.6274 30.6912 40.5787 30.9081 40.7646 30.2275C40.8581 29.8851 41.1155 29.1815 41.247 28.8266C41.4333 28.6799 41.5046 28.6485 41.5916 28.4256C41.4809 28.0788 41.4575 28.4048 41.1498 28.1233C41.2952 27.6601 42.0135 28.2506 42.1617 27.3531C42.2203 27.1714 42.2617 26.888 42.2967 26.6927Z" fill="black" fill-opacity="0.505882"/>
<path d="M43.9927 48.4393C44.0613 48.0129 43.997 47.1033 44.108 46.8662C44.4468 46.8789 44.9665 46.9556 45.2715 46.9394C45.2544 47.3422 45.2285 47.8821 45.3547 48.2646L45.6004 48.4348L45.5402 48.4672C45.0365 48.3834 44.4954 48.3491 43.9927 48.4393ZM45.2551 47.8514C44.887 47.4772 44.7867 47.5658 44.28 47.671C44.6297 47.9973 44.7973 47.9215 45.2551 47.8514Z" fill="black" fill-opacity="0.901961"/>
<path d="M44.28 47.671C44.7867 47.5658 44.8871 47.4772 45.2552 47.8514C44.7974 47.9215 44.6298 47.9973 44.28 47.671Z" fill="black" fill-opacity="0.686275"/>
<path d="M49.7561 29.2139C49.7761 29.3763 49.8209 29.6622 49.8236 29.8146C49.7765 30.5981 49.9142 31.3795 49.9218 32.1861L49.93 32.2693C49.9152 32.6059 49.8619 33.0068 50.003 33.3014L50.082 33.2545C50.1513 32.8365 50.1136 32.7007 50.0394 32.2777C50.3981 32.2388 50.3112 32.1989 50.6084 32.3367C50.8611 32.6576 50.7738 33.0658 50.9512 33.4982C50.9767 33.6825 50.9985 33.8937 51.0467 34.0711L51.102 35.2221C50.9518 34.7559 50.8882 33.9269 50.4206 33.6883L50.0901 33.8102L49.9593 33.7316C49.6848 33.1147 49.6914 29.9834 49.7561 29.2139Z" fill="black" fill-opacity="0.862745"/>
<path d="M48.4006 43.9281C48.643 43.6928 48.5953 43.973 48.9643 43.6903L48.942 43.3345C49.7465 43.1172 49.5563 43.0864 50.1986 42.5748C50.3335 42.4674 50.6839 42.3542 50.8768 42.2391L50.921 42.2123L51.1299 42.3052C51.0637 42.6207 50.8843 42.8902 50.7217 43.1699C49.445 43.5026 50.2196 44.0124 48.4006 43.9281Z" fill="black" fill-opacity="0.901961"/>
<path d="M29.143 41.0257L29.2187 41.0228C29.1275 41.2824 29.0046 42.3429 29.1189 42.5507C28.7654 42.5492 28.2011 42.5873 27.9025 42.4428C27.8026 42.2577 27.8163 41.8324 27.847 41.6388C27.9719 40.851 28.4489 41.5749 29.143 41.0257Z" fill="black" fill-opacity="0.588235"/>
<path d="M43.9925 48.4393C43.7961 48.0961 43.9867 46.1186 44.1128 45.681C44.6225 45.4637 50.0268 45.5398 50.7352 45.6546C49.6192 45.7553 47.5586 45.6335 46.2571 45.6792C45.952 45.6516 45.7526 45.6253 45.4457 45.6562C45.2658 45.8166 45.3143 45.7305 45.2779 45.9918C45.0637 45.9554 44.4298 46.116 44.2771 46.2606C44.2742 46.493 44.2689 46.4139 44.4732 46.6417C44.7345 46.7415 44.8559 46.7553 45.1244 46.7975L45.2916 46.685L45.2713 46.9394C44.9663 46.9556 44.4466 46.8789 44.1078 46.8662C43.9968 47.1033 44.0612 48.0129 43.9925 48.4393Z" fill="black" fill-opacity="0.482353"/>
<path d="M52.4325 46.6689C52.9912 47.0525 53.1344 47.0496 53.8184 47.0091C53.9715 47.2923 53.9377 47.4227 53.9095 47.7439C53.6192 47.6167 53.3684 47.4695 53.0584 47.5082L52.9024 47.6094C52.9835 48.0689 53.5811 48.0426 53.9609 48.0575L53.9038 48.2995C53.6127 48.4589 53.3983 48.4166 53.0342 48.3902C52.5217 48.4214 52.1466 48.4244 51.6343 48.4124C51.9076 48.3763 52.2636 48.3513 52.499 48.2331C52.2059 47.4036 52.7246 47.5544 52.4325 46.6689Z" fill="black" fill-opacity="0.894118"/>
<path d="M45.4248 18.8647C45.887 18.7187 46.7238 18.8235 46.9181 18.7248L46.9414 18.6199C46.6926 18.4671 46.58 18.4663 46.5179 18.2463C46.7971 17.7996 47.6056 17.8615 48.0811 17.8499C48.0533 18.3447 47.9924 18.7452 48.2384 19.1936C47.6303 18.4999 46.207 19.1688 45.4248 18.8647Z" fill="black" fill-opacity="0.698039"/>
<path d="M43.9927 48.4393C44.4954 48.3491 45.0365 48.3834 45.5402 48.4673L45.6004 48.4349C46.6015 48.4707 50.7295 48.5351 51.6342 48.4124C52.1466 48.4244 52.5216 48.4214 53.0342 48.3902L52.5264 48.5346L48.2547 48.5661C47.5358 48.5716 46.4031 48.5463 45.7464 48.6457L45.7094 48.6851C46.0511 48.7248 46.6685 48.7577 46.9412 48.9208L46.8754 49.0017C46.604 49.0295 45.795 49.037 45.6554 49.0922L45.4307 49.0352C45.4057 48.8205 45.4099 48.8076 45.2872 48.6369C44.8845 48.41 44.4554 48.4461 43.9927 48.4393Z" fill="black" fill-opacity="0.427451"/>
<path d="M49.8235 29.8145C49.8806 30.0919 49.932 30.344 50.0072 30.6178L50.1071 30.644C50.376 30.4252 50.2886 30.4263 50.5699 30.4361C51.0386 30.8738 51.0169 32.6149 51.0402 33.3253C51.0481 33.5738 51.0503 33.8224 51.0466 34.071C50.9984 33.8936 50.9766 33.6824 50.9511 33.4981C50.9546 33.148 50.7523 31.0926 50.5844 30.9478C50.198 31.2946 50.3814 31.8199 49.9217 32.186C49.9141 31.3794 49.7764 30.5979 49.8235 29.8145Z" fill="black" fill-opacity="0.439216"/>
<path d="M48.8153 22.6599C48.8215 22.4795 48.7382 22.3113 48.6733 22.1376L48.7392 21.9992L48.9885 21.9403C49.2808 22.1095 49.1457 22.0773 49.5092 22.0382C49.6541 22.7884 49.5157 24.0762 49.6502 24.7345C49.6674 25.3902 49.6749 26.046 49.6727 26.7018L49.5637 26.2011C49.5901 25.7995 49.663 25.2169 49.4196 24.898C49.1928 25.118 49.2544 25.0977 49.1649 25.4516C49.2097 25.107 48.9837 24.5152 49.0853 23.59C49.1834 24.0314 49.0749 24.3214 49.2099 24.6264C49.3673 24.2268 49.628 22.4868 49.222 22.2821C49.0159 22.4442 49.0675 22.3571 49.0214 22.6049L48.8153 22.6599Z" fill="black" fill-opacity="0.560784"/>
<path d="M49.468 20.5554C49.696 20.8547 49.714 24.1962 49.6502 24.7345C49.5157 24.0762 49.654 22.7884 49.5091 22.0382C49.1456 22.0773 49.2807 22.1095 48.9884 21.9403C49.0817 21.9424 49.2127 21.9262 49.3091 21.918L49.3845 21.7603L49.3324 21.6578C49.1206 21.6084 48.9679 21.5897 48.7555 21.5638L48.7134 21.4194C48.9896 21.0972 48.8463 21.0593 48.6587 20.6965C48.8276 20.5554 49.2077 20.5752 49.468 20.5554ZM49.5434 20.8738C49.2122 20.7091 49.2707 20.6771 48.9499 20.7039L48.9253 20.8968C49.1718 20.9565 49.2946 20.9158 49.5434 20.8738Z" fill="black" fill-opacity="0.317647"/>
<path d="M48.95 20.7039C49.2707 20.6771 49.2122 20.709 49.5434 20.8738C49.2947 20.9157 49.1718 20.9564 48.9253 20.8968L48.95 20.7039Z" fill="black" fill-opacity="0.54902"/>
<path d="M49.9219 32.1861C50.3816 31.82 50.1983 31.2947 50.5846 30.9479C50.7525 31.0927 50.9548 33.148 50.9513 33.4982C50.7739 33.0657 50.8612 32.6576 50.6085 32.3366C50.3113 32.1989 50.3982 32.2387 50.0395 32.2777L49.9301 32.2693L49.9219 32.1861Z" fill="black" fill-opacity="0.607843"/>
<path d="M49.0212 22.605C49.0674 22.3571 49.0157 22.4442 49.2218 22.2821C49.6279 22.4868 49.3671 24.2269 49.2098 24.6264C49.0748 24.3214 49.1832 24.0314 49.0852 23.5901L49.044 23.4715C49.0794 23.0769 49.0856 22.9934 49.0212 22.605Z" fill="black" fill-opacity="0.219608"/>
<path d="M49.903 48.8528C50.545 48.8236 51.7811 48.7412 52.3981 48.8348C52.4723 48.9521 52.4862 48.9503 52.495 49.086C52.0094 49.0916 50.1635 49.1655 49.8655 48.9667L49.903 48.8528Z" fill="black" fill-opacity="0.568627"/>
<path d="M45.2919 46.685L45.1247 46.7975C44.8562 46.7553 44.7348 46.7415 44.4735 46.6416C44.2692 46.4139 44.2745 46.493 44.2774 46.2606C44.43 46.116 45.064 45.9554 45.2781 45.9918L45.2919 46.685Z" fill="black" fill-opacity="0.0117647"/>
<path d="M49.1649 25.4517C49.2544 25.0977 49.1929 25.1181 49.4197 24.8981C49.663 25.217 49.5902 25.7996 49.5638 26.2011C49.5086 26.3222 49.4465 26.3661 49.352 26.4655L49.191 26.4102C49.119 26.238 49.1178 26.2048 49.129 26.0193L49.1649 25.4517Z" fill="black" fill-opacity="0.713725"/>
<path d="M42.2969 26.6927C42.4268 26.2375 42.5253 25.1286 42.8278 25.0698C42.9751 25.3538 42.9143 25.5677 42.8596 25.9002C42.9492 25.8467 42.9124 25.8624 42.9709 25.7341L43.1563 25.7657C43.2107 25.6527 43.2575 25.6157 43.3405 25.5207C43.2696 25.7186 43.1774 26.0133 43.0746 26.187C42.6992 26.331 42.6064 26.4277 42.2969 26.6927Z" fill="black" fill-opacity="0.317647"/>
<path d="M53.9608 48.0575C53.5811 48.0425 52.9835 48.0688 52.9023 47.6094L53.0584 47.5081C53.3684 47.4694 53.6192 47.6167 53.9095 47.7439L53.9608 48.0575Z" fill="black" fill-opacity="0.0588235"/>
<path d="M49.0213 22.605C49.0857 22.9934 49.0795 23.0769 49.0441 23.4715C48.5696 23.9878 49.0423 24.397 48.7241 24.6554C48.7006 24.2619 48.7171 23.0229 48.8152 22.6599L49.0213 22.605Z" fill="black" fill-opacity="0.678431"/>
<path d="M48.9906 19.2547C49.3339 19.2539 49.3075 19.1959 49.5069 19.3735C49.5812 19.7207 49.4456 20.0016 49.427 20.3898C49.1295 20.1775 48.9056 19.5803 48.9906 19.2547Z" fill="black" fill-opacity="0.294118"/>
<path d="M49.93 32.2692L50.0394 32.2776C50.1135 32.7006 50.1513 32.8364 50.0819 33.2544L50.0029 33.3013C49.8618 33.0067 49.9151 32.6058 49.93 32.2692Z" fill="black" fill-opacity="0.729412"/>
<path d="M27.8563 55.7794C28.6221 55.5997 30.1388 55.4048 30.9105 55.3429C30.4071 56.349 29.7162 55.3698 28.851 56.0316C27.7647 56.8536 26.8465 58.0122 26.0426 59.0802C25.9647 59.1839 26.2336 59.8819 25.9672 59.9911C24.7375 60.4948 25.4168 60.8588 25.1008 61.3914C24.9974 61.2973 24.9907 61.2064 24.9549 61.0699C24.7224 61.4384 24.8629 62.3335 24.6499 62.6597C24.598 62.739 23.9386 63.01 23.7207 63.1666L23.7299 63.1198C23.7556 62.9851 23.7729 62.9411 23.7464 62.8038L23.5449 62.8078C23.3883 63.3205 23.5204 64.031 23.3912 64.2961C23.1775 64.7342 22.4432 65.4669 22.1737 65.9017C22.0579 66.0884 22.0506 67.1289 21.9293 67.2684C21.3309 67.9569 20.6969 68.702 20.1066 69.4018C19.9759 69.5569 19.921 70.2956 19.5412 70.4573C19.21 70.5983 18.7603 70.6374 18.4071 70.6851L18.3898 70.7799L18.5117 70.8814C18.1062 71.3523 16.4473 71.9656 15.9146 71.9135C15.2993 71.8535 11.732 72.0153 11.4431 71.8157C13.5485 71.8128 15.7417 72.0021 17.5182 70.6749C17.8345 70.4386 18.2853 70.3759 18.6704 70.2966C18.8158 70.0957 18.9538 69.9007 19.0275 69.6626C19.3116 68.7446 19.7826 69.158 20.2041 68.2218L20.249 68.1397C20.5937 67.384 21.0631 67.5096 21.3262 66.7664C21.4779 66.4034 21.6002 66.1687 21.7901 65.8227C22.5503 64.5831 23.061 63.3141 23.4708 61.9178L24.3752 61.4693C24.7534 60.6241 24.8837 59.8733 25.0893 58.9884C25.141 58.766 25.3716 58.6888 25.6017 58.578C26.0735 58.3511 26.1584 57.7463 26.3086 57.2269L27.2563 56.9475C27.4827 56.5383 27.6616 56.2082 27.8563 55.7794Z" fill="black" fill-opacity="0.929412"/>
<path d="M64.3548 64.3667C64.5604 64.7035 64.7722 65.3611 64.7404 65.7548L64.8312 65.8423L64.8155 65.8788L64.9813 65.7068C64.8511 65.4403 64.7367 65.2699 64.7663 64.9763C64.92 64.6992 64.8319 64.7867 65.092 64.6304C65.4069 64.8896 65.3033 65.6429 65.1845 66.0037L65.002 66.0017C64.8185 66.3219 64.855 68.6531 64.8809 69.1505C64.9008 69.7481 64.6968 69.9322 65.0037 70.4833C65.3323 70.1717 65.2335 68.9959 65.209 68.5729C65.362 67.7415 65.0434 66.8285 65.3119 66.044L65.6199 66.0927C65.6847 66.5692 65.6026 69.7167 65.5182 70.2778L65.5683 70.3963C65.2979 70.7311 65.5898 71.1078 65.3649 71.4606C65.1092 71.8615 65.1369 71.4974 64.6084 71.6333C63.0548 72.0328 56.5536 72.2844 55.5018 71.8212C55.2296 71.5231 55.4884 71.8169 55.4985 71.3227C55.1892 71.2803 54.3712 71.3025 54.2841 70.9829L54.6949 70.8938L54.7272 70.7311L54.7938 70.827L54.7615 70.7398C54.5219 70.7048 54.282 70.6717 54.0419 70.6403C53.7313 70.1365 53.9123 68.0405 53.9665 67.365C54.0867 68.244 54.0481 69.1109 54.1566 69.9371C54.8842 70.3166 55.5075 71.014 55.8138 71.1477C57.3754 71.829 60.5554 71.5409 62.2774 71.4527C62.6941 71.4144 63.4087 71.3398 63.7725 71.1748C64.0024 70.848 63.6761 70.9684 63.7625 70.6106L64.2196 70.4767L64.3997 70.4171C64.7085 69.9702 64.3669 65.2483 64.3548 64.3667Z" fill="black" fill-opacity="0.956863"/>
<path d="M57.4684 3.03061C57.7591 3.01403 58.1327 2.95507 58.3742 3.08561C58.5517 3.49347 58.5362 3.63226 58.8005 4.0011L58.7589 4.16619C59.1759 4.27189 59.6011 4.38576 60.0216 4.47256C60.096 4.80754 60.151 5.35015 60.3164 5.59585C60.7009 5.7825 61.0007 5.84188 61.4108 5.9426C61.4336 6.45204 61.4882 7.21027 61.4432 7.69702L61.3224 7.38223L61.2217 7.37974C61.0308 7.8132 61.0723 9.85645 61.1015 10.4419C61.0944 12.0816 61.013 14.4521 61.0873 16.0366L60.9952 16.1042L60.8879 16.0499C60.7498 14.086 60.9127 11.6701 60.8213 9.67684C60.7979 9.16646 60.8717 7.90507 60.7523 7.50916L60.7447 7.38893C60.7493 7.0707 60.7907 6.7511 60.6245 6.48891C60.3575 6.67771 60.4021 7.38197 60.3984 7.70432C60.4591 8.81412 60.4193 10.1981 60.4161 11.3251C60.3973 13.8299 60.3954 16.3348 60.4104 18.8396L60.3043 18.8808C60.0348 18.5312 60.1764 9.95167 60.0691 8.75147C60.0596 8.18978 60.0432 7.62818 60.02 7.06675C59.9037 4.75194 59.4177 4.12305 56.9821 4.32543L57.3243 4.10466L57.3061 4.00841L57.431 3.94713C57.1952 3.87297 56.9891 3.79442 56.7589 3.70634L56.9085 3.60295L56.8703 3.51263L56.4824 3.38106L57.0734 3.37797C57.3078 3.22526 57.6576 3.50404 58.2876 3.30707L58.2827 3.23824C57.9962 3.17524 57.7508 3.11045 57.4684 3.03061Z" fill="black" fill-opacity="0.913725"/>
<path d="M60.3985 7.70438C60.4509 7.502 60.4521 7.41684 60.5899 7.27014L60.7447 7.38899L60.7524 7.50922C60.6995 8.21047 60.7164 8.91516 60.7242 9.61778C60.7589 12.7426 60.7053 15.8766 60.8425 18.9991C60.8246 19.4258 60.9576 20.5205 60.9298 20.7223L60.7299 20.7096C60.6409 20.9365 60.7502 21.4922 60.7855 21.7661L60.8763 21.8314C60.8996 21.6515 60.9194 21.2739 61.0082 21.1533C61.0402 21.906 60.685 22.4642 60.7354 23.2376C60.749 23.4451 60.7014 23.5562 60.5872 23.7194L60.4292 23.6538C59.938 22.9647 59.9758 19.6279 60.0672 18.7534C60.1915 19.5831 60.0379 20.6734 60.3535 21.5939C60.4736 21.2598 60.446 19.2649 60.4104 18.8397C60.3955 16.3348 60.3974 13.8299 60.4162 11.3252C60.4194 10.1981 60.4592 8.81418 60.3985 7.70438Z" fill="black" fill-opacity="0.027451"/>
<path d="M23.2774 36.6369C23.2014 35.8549 22.9792 34.6342 23.3351 33.7168C23.3486 33.6818 23.96 33.4663 24.0098 33.2874C24.0274 33.2238 24.1226 33.1387 24.2017 33.1065L24.2404 33.5119L24.3597 33.5552L24.3176 33.5861L24.2273 33.4423L24.4384 33.4347C24.712 32.8133 24.6839 32.6972 24.5447 32.0185C24.5599 32.2638 24.5789 32.5088 24.6018 32.7534C24.4599 31.6893 24.3416 30.9865 25.2277 30.3102C25.2194 30.3165 25.2983 29.7425 25.3044 29.6997C25.5559 29.5546 25.537 29.6212 25.9132 29.713C25.9529 29.5524 25.9348 29.103 25.9324 28.9113L25.9421 28.9866C25.9078 28.5158 25.8524 27.3054 26.254 27.0163L26.3315 27.5462C26.6768 27.6488 26.3668 27.0736 26.9523 26.815L26.9876 26.6651L26.8986 26.5733L26.5589 26.6518L26.5071 26.5894C27.0126 26.2233 26.9474 26.5223 27.2296 25.7636C27.4358 25.6095 27.387 25.659 27.7135 25.6892C27.45 26.9554 26.8942 27.3657 26.4095 28.4898C26.292 28.7623 26.1765 29.6052 26.1313 29.9274C25.894 30.0194 25.8138 30.0302 25.5599 30.0117C25.4437 30.2828 25.0346 31.393 25.05 31.6624C24.9967 32.2137 24.8222 32.5581 24.8166 33.0756C24.6852 34.4221 23.7297 34.8298 23.2774 36.6369Z" fill="black" fill-opacity="0.937255"/>
<path d="M61.9181 38.4079L62.006 38.2017L62.0918 38.2617C62.0905 38.5028 62.063 39.3144 62.1283 39.4931C62.0829 39.9553 62.1617 42.2752 62.3056 42.5699L62.4285 42.5696L62.3427 42.6077C62.4887 42.4779 62.4409 42.5555 62.491 42.3669L62.3243 42.5942C62.6391 42.2041 62.6103 40.0558 62.5669 39.4895C62.5951 39.1202 62.5397 38.4037 62.6524 38.1919C62.9021 38.5822 62.6824 42.1167 62.8911 42.4556C62.9494 45.542 62.9913 48.6287 63.0168 51.7156C63.0318 52.7173 63.23 54.1588 63.1494 55.0689C62.9094 54.1379 62.8884 49.8385 62.8711 48.7147C62.8759 47.9412 62.8575 47.1678 62.8158 46.3955C62.8938 46.0003 62.7924 43.6059 62.7478 43.1021C62.7256 43.729 62.6055 44.3093 62.5886 45.0545C62.5688 44.7697 62.5354 44.5958 62.482 44.3176C62.3143 44.5376 62.5456 44.9808 62.3805 45.1832C62.2078 44.5233 62.4604 44.2049 62.4466 44.0103C62.2227 43.8799 62.1774 43.8757 61.9203 43.8326L61.7914 43.9739L61.7495 43.8781C61.7597 42.2078 61.9929 39.9522 61.9181 38.4079Z" fill="black" fill-opacity="0.407843"/>
<path d="M43.7651 55.6469C44.9633 55.6686 46.561 55.7478 47.7257 55.7137C48.224 55.7763 48.723 55.8348 49.2223 55.8892C48.0503 56.038 46.7366 56.006 45.6689 56.2122C46.6292 56.3392 49.0402 56.2621 49.608 56.5226L49.6881 56.6688C49.6145 56.7615 49.584 56.8232 49.4709 56.8526C49.1074 56.7022 48.6313 56.718 48.2482 56.7437C47.3021 56.6869 46.2877 56.7836 45.2651 56.7349C44.4484 56.9212 44.3694 56.4307 43.9016 56.9087C43.9852 56.5445 43.944 56.4346 43.9092 56.0644C44.3425 56.2195 44.8913 56.4133 45.152 56.0057C45.137 56.0292 45.311 56.02 45.3979 55.9616C45.0145 55.8268 44.3328 55.7947 43.7651 55.6469Z" fill="black" fill-opacity="0.945098"/>
<path d="M61.1015 10.4419L61.1135 10.3686C61.1662 10.0338 61.1669 8.51006 61.2099 8.41235C61.4207 8.89438 61.3323 10.8619 61.3327 11.5347L61.3195 17.3935C61.3072 19.857 61.4337 23.0757 61.3306 25.419C61.1147 24.3935 61.2185 21.6032 61.1179 20.3752C61.0901 20.0351 61.014 19.2279 61.0134 18.933C61.1 18.2117 61.0951 16.759 61.0873 16.0366C61.013 14.4521 61.0945 12.0816 61.1015 10.4419Z" fill="black" fill-opacity="0.0705882"/>
<path d="M62.8163 36.4066C62.8334 37.4242 63.0712 41.7022 62.8912 42.4557C62.6826 42.1168 62.9022 38.5823 62.6525 38.192C62.5398 38.4038 62.5953 39.1203 62.567 39.4896C62.3855 39.8322 62.4029 40.4731 62.3944 40.8694C62.1545 40.1901 62.3232 40.1294 62.1504 39.5632L62.1284 39.4932C62.0631 39.3145 62.0906 38.5029 62.0919 38.2618L62.0062 38.2018L61.9182 38.408C61.8182 38.2851 61.8516 38.2741 61.8379 38.0774L61.8455 36.9792C61.8899 36.7386 61.8992 36.6635 62.0088 36.4379L62.2807 36.387C62.5371 36.4347 62.6126 36.4961 62.8163 36.4066Z" fill="black" fill-opacity="0.72549"/>
<path d="M61.4465 29.792C61.6629 30.7003 61.5384 37.8618 61.723 38.0621L61.8379 38.0772C61.8516 38.2739 61.8182 38.2849 61.9183 38.4078C61.993 39.9521 61.7598 42.2077 61.7497 43.8781C61.737 43.5349 61.7937 43.4235 61.6276 43.19C61.5841 42.3953 61.6 41.6393 61.5251 40.8389C61.6043 37.2429 61.3458 33.4412 61.4465 29.792Z" fill="black" fill-opacity="0.819608"/>
<path d="M61.1014 10.442C61.0723 9.85648 61.0308 7.81323 61.2216 7.37976L61.3224 7.38225L61.4431 7.69704C61.3297 8.95663 61.4378 11.5391 61.4367 12.9161L61.4301 22.7696C61.4382 24.6789 61.5155 27.0647 61.4285 28.9421C61.3291 28.456 61.3366 26.0646 61.3305 25.419C61.4336 23.0757 61.3071 19.857 61.3194 17.3935L61.3326 11.5348C61.3322 10.8619 61.4206 8.89441 61.2098 8.41239C61.1668 8.5101 61.1661 10.0339 61.1134 10.3687L61.1014 10.442Z" fill="black" fill-opacity="0.333333"/>
<path d="M61.525 40.839C61.5998 41.6393 61.584 42.3954 61.6275 43.1901C61.5389 43.5777 61.586 44.2359 61.7177 44.6104C61.8132 44.4231 61.7939 44.1906 61.7914 43.9739L61.9203 43.8326C62.1774 43.8758 62.2227 43.88 62.4466 44.0103C62.4604 44.205 62.2078 44.5233 62.3805 45.1832C62.5456 44.9808 62.3143 44.5377 62.482 44.3177C62.5354 44.5958 62.5688 44.7698 62.5886 45.0546C62.6055 44.3093 62.7256 43.7291 62.7478 43.1022C62.7924 43.6059 62.8938 46.0004 62.8158 46.3955C62.6766 46.0114 62.8853 45.7633 62.6757 45.4684L62.3263 45.5241L62.0777 45.2919C61.8073 45.555 61.9175 46.4052 61.935 46.7904L61.7912 46.795C61.599 46.5604 61.6463 46.4372 61.6016 46.0807C61.5118 45.0076 61.4143 41.877 61.525 40.839Z" fill="black" fill-opacity="0.25098"/>
<path d="M51.327 3.03316C52.8914 3.04098 54.8826 2.96475 56.3965 3.03307C56.5773 3.1203 56.6686 3.1148 56.868 3.11119C56.9694 3.21483 57.0085 3.24371 57.0735 3.37794L56.4825 3.38103C55.0753 3.32475 53.3576 3.36582 51.9238 3.36342C51.0721 3.26596 48.6417 3.37596 48.1257 3.18647C48.8684 3.15278 50.6288 3.15932 51.2461 3.04846L51.327 3.03316Z" fill="black" fill-opacity="0.458824"/>
<path d="M56.7588 3.7063C56.989 3.79438 57.1951 3.87293 57.4309 3.9471L57.3061 4.00837C56.1362 4.2349 52.863 3.9831 51.4839 4.05907C50.9319 3.93704 49.0983 3.95612 48.4575 3.95199C48.8223 3.9306 49.5757 3.98087 49.8073 3.82635C51.1495 3.81965 53.1927 3.84002 54.4854 3.72581C55.194 3.7271 56.0636 3.75142 56.7588 3.7063Z" fill="black" fill-opacity="0.321569"/>
<path d="M51.484 4.05905C49.8136 4.27441 45.7859 4.01763 44.0161 3.90462C45.4053 3.60367 52.8975 3.60659 54.4855 3.72579C53.1928 3.84 51.1496 3.81963 49.8074 3.82633C49.3465 3.78887 48.7248 3.76635 48.2791 3.89637L48.2973 3.96951L48.4576 3.95197C49.0984 3.9561 50.932 3.93702 51.484 4.05905Z" fill="black" fill-opacity="0.803922"/>
<path d="M47.7257 55.7138C48.2854 55.6925 49.1438 55.6157 49.6461 55.8148C49.8413 56.095 49.5691 56.1248 49.8691 56.6779C50.1459 56.7845 50.7307 56.9898 50.9404 57.1613C49.6358 56.9536 48.6215 57.1114 47.3334 57.0065C47.9227 56.9027 48.9909 57.1221 49.4709 56.8526C49.5841 56.8233 49.6145 56.7615 49.6882 56.6689L49.6081 56.5227C49.0403 56.2622 46.6292 56.3393 45.6689 56.2123C46.7366 56.0061 48.0504 56.0381 49.2223 55.8893C48.723 55.8349 48.224 55.7764 47.7257 55.7138Z" fill="black" fill-opacity="0.341176"/>
<path d="M31.3259 55.331C31.6384 55.051 31.8161 55.1724 31.961 54.9334L31.6216 54.7765L31.6699 54.7018C32.0176 54.654 33.7534 54.6059 33.9862 54.7529C33.8436 54.9323 33.4972 54.8852 33.16 54.9825C33.9654 54.9578 35.2784 54.7928 35.878 55.2838C34.3605 55.2731 32.8429 55.2888 31.3259 55.331Z" fill="black" fill-opacity="0.0156863"/>
<path d="M60.0691 8.75146C60.1764 9.95167 60.0348 18.5312 60.3043 18.8808L60.4103 18.8396C60.4459 19.2648 60.4735 21.2598 60.3533 21.5939C60.0378 20.6733 60.1914 19.583 60.0671 18.7533C60.0575 15.6911 59.9303 11.7402 60.0691 8.75146Z" fill="black" fill-opacity="0.454902"/>
<path d="M52.8583 64.5523C53.0894 64.5717 53.1754 64.6015 53.3774 64.4889C53.541 63.8626 52.8472 63.183 53.7009 62.7573C53.7906 63.1083 53.9297 64.8612 53.8899 65.1867C53.6952 65.2513 53.6888 65.2634 53.533 65.403L53.5531 65.4536C53.6271 65.6459 53.6419 65.6816 53.6462 65.8851C53.4696 65.9948 53.4439 66.0013 53.2378 66.0303C53.3925 65.7771 53.3077 65.1303 53.118 64.9186L52.9732 64.9929L52.9127 65.2615L52.8286 65.0623C52.8948 64.826 52.9072 64.7912 52.8583 64.5523Z" fill="black" fill-opacity="0.894118"/>
<path d="M60.7524 7.50916C60.8718 7.90507 60.798 9.16646 60.8214 9.67684C60.9127 11.6701 60.7499 14.086 60.888 16.0499L60.9952 16.1042L61.0874 16.0366C61.0951 16.759 61.1 18.2117 61.0135 18.933L60.8425 18.999C60.7053 15.8765 60.7589 12.7426 60.7242 9.61772C60.7164 8.91509 60.6995 8.21041 60.7524 7.50916Z" fill="black" fill-opacity="0.482353"/>
<path d="M62.2775 71.4527L62.4192 71.2147C62.2643 70.8648 61.9528 70.8058 61.5574 70.628C61.9973 70.4391 63.7042 70.4501 64.2197 70.4767L63.7626 70.6106C63.6762 70.9684 64.0026 70.848 63.7727 71.1748C63.4088 71.3398 62.6942 71.4144 62.2775 71.4527Z" fill="black" fill-opacity="0.0745098"/>
<path d="M61.9352 46.7905C61.9176 46.4052 61.8075 45.555 62.0778 45.292L62.3265 45.5242L62.6758 45.4685C62.8854 45.7634 62.6767 46.0115 62.816 46.3956C62.8576 47.1679 62.876 47.9414 62.8712 48.7148C62.7384 48.3304 62.7273 47.4761 62.7089 47.0461C62.4844 46.9282 62.4322 46.8964 62.1852 46.8465C61.9701 47.0628 62.1657 47.4363 61.9451 47.8799C61.9141 47.5274 61.9294 47.1465 61.9352 46.7905Z" fill="black" fill-opacity="0.113725"/>
<path d="M51.9237 3.3634C51.256 3.45381 45.9111 3.4013 45.3801 3.23175C45.8738 2.94755 50.5306 2.97548 51.3268 3.03315L51.246 3.04844C50.6287 3.1593 48.8682 3.15277 48.1256 3.18646C48.6415 3.37595 51.0719 3.26595 51.9237 3.3634Z" fill="black" fill-opacity="0.811765"/>
<path d="M52.8191 62.612L52.9782 62.6883C53.0842 62.3283 52.9793 62.0763 53.1481 61.8802C53.5038 61.8505 53.3791 61.8181 53.6625 61.959C53.7996 62.1736 53.7495 62.5077 53.7011 62.7574C52.8474 63.183 53.5411 63.8626 53.3776 64.4889C53.1756 64.6015 53.0896 64.5718 52.8585 64.5523C52.9092 63.8775 52.8602 63.2854 52.8191 62.612Z" fill="black" fill-opacity="0.0313725"/>
<path d="M15.8752 54.6195C15.9881 53.979 16.8025 52.296 17.3665 51.925C17.3644 52.2069 17.3729 52.5941 17.3131 52.8748C17.2365 53.234 16.4964 53.5517 16.4747 53.8724C16.6721 53.9228 16.8706 53.9695 17.0698 54.0123L17.0922 54.0976C16.5013 54.5202 16.4447 53.9362 15.8752 54.6195Z" fill="black" fill-opacity="0.196078"/>
<path d="M61.8152 35.3419C61.8181 35.1888 61.8325 35.0586 61.848 34.9064L61.9895 34.9104C62.1755 34.6677 62.124 34.4737 62.0488 34.2201C62.1163 34.0099 62.0889 33.9794 62.0183 33.7571L61.9597 33.8373L62.0518 33.8417L61.9516 33.9177L61.9321 34.2675L61.8789 34.217C61.8135 33.8782 61.7802 33.7693 61.8374 33.4316L61.9262 33.3707C62.2658 33.7274 62.3217 33.6214 62.7305 33.8546C62.9061 34.0974 62.7833 34.56 62.8424 34.9971L62.8523 35.0676C62.569 35.1349 62.2156 35.2319 61.9318 35.2464L61.8152 35.3419Z" fill="black" fill-opacity="0.92549"/>
<path d="M21.8952 40.5489C21.8714 39.5553 21.6769 38.9231 22.1026 37.9545L22.212 37.9576L22.4475 38.2249C22.6207 38.0966 22.5908 37.8448 22.9637 37.6371C22.6285 38.5849 22.2043 39.6295 21.8952 40.5489Z" fill="black" fill-opacity="0.890196"/>
<path d="M26.0547 30.8004C25.9477 33.3255 25.3551 31.3141 24.8167 33.0755C24.8222 32.558 24.9968 32.2136 25.0501 31.6624L25.2544 31.4701C25.4181 30.7955 25.4281 30.9289 26.0547 30.8004Z" fill="black" fill-opacity="0.247059"/>
<path d="M14.6257 57.3044C14.975 56.379 15.0781 56.05 15.7506 55.3064C15.7153 55.9805 15.923 56.8736 15.5964 57.0908C15.2449 57.3246 15.0241 57.1774 14.6257 57.3044Z" fill="black" fill-opacity="0.0588235"/>
<path d="M51.0723 57.236C51.4094 57.4507 51.7216 57.5061 52.1046 57.3716C52.3402 57.5838 52.2053 58.1726 52.2693 58.2485C52.675 58.7293 52.6795 58.5957 52.5885 59.3223C52.4953 58.3654 52.1904 58.4821 51.3173 58.3087C51.2543 57.8386 51.2365 57.675 51.0723 57.236Z" fill="black" fill-opacity="0.262745"/>
<path d="M65.6201 66.0927L65.7729 66.0975C65.8503 66.7941 65.9621 69.731 65.7846 70.3052C65.6868 70.3575 65.6715 70.3785 65.5684 70.3963L65.5183 70.2778C65.6028 69.7167 65.6849 66.5692 65.6201 66.0927Z" fill="black" fill-opacity="0.447059"/>
<path d="M63.1591 55.4232C63.2913 56.1301 63.2493 59.8252 63.4313 60.0679C63.5671 59.8326 63.5091 58.9061 63.5828 58.4456C63.6237 59.0161 63.6637 61.0528 63.4436 61.5126L63.3598 61.4967C63.2367 61.2665 63.1392 55.9732 63.1591 55.4232Z" fill="black" fill-opacity="0.501961"/>
<path d="M62.1283 39.4931L62.1503 39.5631C62.3231 40.1293 62.1544 40.1901 62.3943 40.8693C62.4028 40.4731 62.3854 39.8321 62.5669 39.4895C62.6103 40.0558 62.6391 42.2041 62.3244 42.5943L62.491 42.3669C62.4409 42.5556 62.4887 42.478 62.3427 42.6077L62.4285 42.5697L62.3056 42.5699C62.1617 42.2752 62.0829 39.9554 62.1283 39.4931Z" fill="black" fill-opacity="0.541176"/>
<path d="M8.77612 67.7563C9.20624 67.1042 9.10535 66.8182 9.83814 66.0824L9.8292 66.1194C9.51192 67.4767 10.5753 67.2224 8.77612 67.7563Z" fill="black" fill-opacity="0.121569"/>
<path d="M64.8809 69.1504C64.9965 68.6134 64.9191 67.97 65.0334 67.3746C65.1794 67.7975 65.0709 68.2808 65.2091 68.5729C65.2335 68.9958 65.3323 70.1716 65.0038 70.4832C64.6968 69.9321 64.9008 69.7481 64.8809 69.1504Z" fill="black" fill-opacity="0.14902"/>
<path d="M20.2042 68.2217C20.1463 67.991 20.18 66.8659 20.2524 66.6816C20.5798 65.8477 21.1103 66.1928 21.7191 65.8622L21.7902 65.8226C21.6003 66.1686 21.478 66.4033 21.3263 66.7663C21.1289 66.8915 20.9694 66.9903 20.7603 67.101C20.8337 66.7745 20.9266 66.4849 21.026 66.1656C20.8864 66.016 20.9695 66.0627 20.7668 66.0228C20.5567 66.2462 20.2297 67.8059 20.249 68.1396L20.2042 68.2217Z" fill="black" fill-opacity="0.117647"/>
<path d="M61.8149 35.3419L61.9316 35.2465C62.2154 35.2319 62.5688 35.1349 62.852 35.0676L62.8222 35.4255L62.5504 35.3918C62.2451 35.6768 62.5534 35.9324 62.2805 36.3869L62.0086 36.4379C61.899 36.6635 61.8897 36.7386 61.8454 36.9792C61.8116 36.5133 61.8222 35.825 61.8149 35.3419Z" fill="black" fill-opacity="0.843137"/>
<path d="M20.2489 68.1396C20.2295 67.8059 20.5565 66.2463 20.7666 66.0228C20.9694 66.0628 20.8862 66.016 21.0258 66.1657C20.9264 66.4849 20.8335 66.7745 20.7601 67.101C20.9692 66.9903 21.1287 66.8916 21.3261 66.7664C21.063 67.5095 20.5936 67.384 20.2489 68.1396Z" fill="black" fill-opacity="0.239216"/>
<path d="M25.05 31.6624C25.0345 31.393 25.4437 30.2828 25.5599 30.0117C25.8137 30.0301 25.894 30.0194 26.1313 29.9274C26.0467 30.301 26.0489 30.4137 26.0546 30.8005C25.428 30.929 25.4181 30.7956 25.2543 31.4702L25.05 31.6624Z" fill="black" fill-opacity="0.658824"/>
<path d="M64.881 69.1505C64.8552 68.6531 64.8187 66.3219 65.0022 66.0017L65.1847 66.0038L65.3121 66.0441C65.0436 66.8285 65.3622 67.7415 65.2092 68.573C65.0711 68.2809 65.1795 67.7976 65.0336 67.3747C64.9193 67.9701 64.9966 68.6135 64.881 69.1505Z" fill="black" fill-opacity="0.580392"/>
<path d="M10.1526 72.8334C11.0771 72.9643 12.3313 72.7173 13.0116 73.0299L12.9368 73.1273C12.6336 73.2809 10.6167 73.1485 10.2535 73.0572L10.1526 72.8334Z" fill="black" fill-opacity="0.890196"/>
<path d="M48.2482 56.7437C48.6314 56.718 49.1075 56.7022 49.4709 56.8526C48.991 57.1221 47.9227 56.9027 47.3334 57.0064L46.7453 56.996L46.7134 56.9023C46.9521 56.7888 47.808 56.8228 48.2482 56.7437Z" fill="black" fill-opacity="0.133333"/>
<path d="M61.6016 46.0807C61.6463 46.4372 61.599 46.5604 61.7912 46.7949L61.935 46.7904C61.9293 47.1464 61.914 47.5273 61.9449 47.8798C61.8728 47.9962 62.0408 48.056 61.8384 48.2973L61.7491 48.2503C61.6005 47.6974 61.5381 46.65 61.6016 46.0807Z" fill="black" fill-opacity="0.0627451"/>
<path d="M45.2651 56.7349C46.2878 56.7837 47.3021 56.6869 48.2482 56.7437C47.808 56.8229 46.9521 56.7888 46.7134 56.9024L46.7453 56.996C46.5197 57.0313 45.6224 57.001 45.3419 56.9962L45.2651 56.7349Z" fill="black" fill-opacity="0.423529"/>
<path d="M63.655 55.6678C63.6551 55.3077 63.6301 54.7895 63.7253 54.457L63.8252 54.3979L63.7641 54.286L63.8274 54.2068C64.068 54.9405 63.8903 55.196 64 55.6511L63.655 55.6678Z" fill="black" fill-opacity="0.145098"/>
<path d="M13.0742 60.0689C13.1863 59.8055 13.2726 59.5288 13.4847 59.3442L13.5309 59.6264C13.7935 59.7249 14.0349 59.783 14.2021 60.0042C13.8541 60.2759 13.4738 59.9087 13.0742 60.0689Z" fill="black" fill-opacity="0.219608"/>
<path d="M56.3965 3.03313C56.9265 2.93448 57.1713 3.12621 57.4684 3.03064C57.7508 3.11048 57.9962 3.17528 58.2827 3.23827L58.2876 3.3071C57.6576 3.50407 57.3078 3.22529 57.0734 3.378C57.0084 3.24377 56.9693 3.21489 56.8679 3.11125C56.6686 3.11486 56.5772 3.12036 56.3965 3.03313Z" fill="black" fill-opacity="0.733333"/>
<path d="M62.2808 36.3869C62.5536 35.9324 62.2453 35.6768 62.5506 35.3917L62.8224 35.4254L62.8163 36.4065C62.6127 36.496 62.5371 36.4346 62.2808 36.3869Z" fill="black" fill-opacity="0.827451"/>
<path d="M63.6871 52.6578L63.8399 52.7588C64.0123 53.022 63.97 53.5503 64.0013 53.9246L63.8206 53.9866L63.6928 53.9075C63.5815 53.5837 63.6605 53.0196 63.6871 52.6578Z" fill="black" fill-opacity="0.52549"/>
<path d="M52.9128 65.2616L52.9734 64.9929L53.1181 64.9186C53.3079 65.1303 53.3927 65.7771 53.2379 66.0304C53.0511 65.9305 53.0395 65.9269 52.9011 65.7702C52.9486 65.5647 52.9699 65.4667 52.9128 65.2616Z" fill="black" fill-opacity="0.258824"/>
<path d="M60.3984 7.70431C60.4021 7.38195 60.3575 6.6777 60.6245 6.48889C60.7908 6.75109 60.7493 7.07069 60.7447 7.38891L60.5898 7.27006C60.4521 7.41676 60.4509 7.50192 60.3984 7.70431Z" fill="black" fill-opacity="0.560784"/>
<path d="M43.9016 56.9086C44.3694 56.4307 44.4484 56.9212 45.2651 56.7349L45.3418 56.9961C44.8321 56.9429 44.4396 57.0511 43.9016 56.9086Z" fill="black" fill-opacity="0.843137"/>
<path d="M53.0182 66.3036C53.2467 66.3926 53.1911 66.3354 53.3223 66.5122C53.2502 66.852 53.2199 66.9522 53.2936 67.2923L53.3095 67.3624C53.2505 67.3623 53.1215 67.3357 53.057 67.3247C52.9198 67.049 53.0066 66.6766 53.0182 66.3036Z" fill="black" fill-opacity="0.682353"/>
<path d="M61.6276 43.1901C61.7937 43.4236 61.737 43.535 61.7497 43.8782L61.7915 43.9739C61.7941 44.1906 61.8133 44.4231 61.7179 44.6104C61.5861 44.2359 61.539 43.5777 61.6276 43.1901Z" fill="black" fill-opacity="0.529412"/>
<path d="M48.4575 3.95199L48.2972 3.96952L48.2791 3.89639C48.7247 3.76637 49.3464 3.78888 49.8073 3.82635C49.5758 3.98086 48.8224 3.93059 48.4575 3.95199Z" fill="black" fill-opacity="0.576471"/>
<path d="M1.12922 32.3471C1.62715 31.93 1.33826 31.7626 1.59819 31.5601C1.6372 31.6591 1.67403 31.7798 1.74589 31.8596C1.79279 31.9117 4.34921 32.0334 4.68325 32.0679L5.78145 32.2456C4.11796 32.4027 3.34064 32.1628 1.39816 32.4696C1.40299 32.8783 1.36002 34.2121 1.45504 34.5125C1.86235 34.5863 1.79515 34.34 2.04813 34.7086C2.17905 34.8995 2.34328 35.195 2.58446 35.1449L2.61257 35.2229C2.87832 35.9455 3.72026 36.3853 3.77923 36.6744C3.94213 37.4728 3.8309 37.5327 4.87661 38.1485C4.85865 38.3203 4.76988 38.6071 4.83803 38.6491C5.77681 39.2271 5.81814 39.1031 6.15184 40.2437L6.31108 40.126C6.31933 40.1382 6.32767 40.1505 6.336 40.1627C6.56666 40.5258 6.91608 40.7546 7.25519 41.0031C7.25519 41.0031 7.30873 41.3271 7.31397 41.3498C7.39707 41.7086 7.32463 41.8616 7.71745 42.0174C7.93109 42.1021 8.14619 42.2002 8.34557 42.278C8.69301 42.4136 8.86446 42.9216 9.07096 43.1995C9.2553 43.4539 10.2239 43.874 10.2879 44.1287C10.4877 44.9229 10.5964 44.8773 11.3104 45.3342L11.5486 45.312C11.573 45.387 11.8135 46.1309 11.8432 46.154C12.3108 46.5155 13.0437 46.665 13.028 47.357C13.2771 47.7314 13.2842 47.6598 13.6619 47.829C14.1631 48.0535 15.008 49.3269 15.0456 49.803C15.094 50.4167 14.4478 53.27 14.2314 53.7716C13.9364 53.9209 13.7673 54.0204 13.4429 54.0938C13.413 53.9583 13.4196 54.0276 13.4821 53.8703L13.273 53.7782C13.0879 54.1911 13.096 54.6974 13.0645 55.1563C13.0236 55.7515 12.0322 56.6422 11.8064 57.2418C11.656 57.641 11.7856 58.1476 11.5511 58.6463C11.3693 58.7942 11.3118 58.8182 11.0978 58.9167C10.9253 59.2241 10.9416 59.4854 10.8531 59.7728C10.8373 59.8243 10.1933 60.3245 10.1533 60.4906C9.94237 61.3638 10.1842 61.3948 9.53546 62.074C9.11032 62.519 8.54357 63.5881 8.62538 64.2238C8.41165 64.3364 7.23946 64.8846 7.25665 65.0647C7.38118 66.3644 5.94232 66.6837 5.9003 67.9118C5.87692 68.5967 5.7512 68.7735 5.20627 69.1328C4.45053 69.6311 4.18112 70.8859 4.15396 71.729C4.08092 71.7969 3.93768 71.8912 3.93626 71.9831C3.89721 74.4929 7.06398 73.855 8.62632 74.6903C8.73349 74.7476 9.39976 74.5034 9.75864 74.7703C9.73526 74.7729 9.7118 74.7757 9.68834 74.778C9.29028 74.817 7.25046 74.7947 6.95321 74.6387C6.88196 74.6013 6.78245 74.503 6.7204 74.4488C6.355 74.129 3.89938 73.6736 3.07846 73.2092C2.79575 72.783 3.0121 71.1956 3.03587 70.5334L4.0688 70.4824C4.07387 70.0881 4.13815 69.0823 4.34277 68.7682C4.4361 68.7487 4.53458 68.7312 4.62447 68.6993C5.06035 68.5448 6.5206 65.7147 6.8139 65.1398C7.11889 64.9807 7.06707 64.3543 7.38221 63.9895C7.59069 64.0139 7.62275 64.0298 7.81507 63.9636C7.94226 63.6941 7.89319 63.7456 7.81275 63.3883L7.92757 63.2245C8.77603 63.0697 8.59203 62.5287 9.07853 61.8157C9.41635 61.3207 10.1613 60.2085 10.011 59.6022C10.1413 57.9027 10.6243 58.769 10.8518 58.3205C11.2272 57.5809 12.7249 54.6098 12.9582 53.9364C13.0291 53.7245 13.139 52.9997 13.1864 52.7425C13.4375 52.5467 13.8701 52.6648 14.2939 52.5234C14.4888 51.8484 14.6698 49.9535 14.4618 49.2137C14.4095 48.7897 13.2886 48.5231 13.1839 48.3301C12.4411 46.9614 11.5015 46.2568 10.3171 45.3214C10.0333 45.0972 9.52136 44.1433 9.20778 43.8282C8.67015 43.2883 8.01282 42.8583 7.46462 42.3279C6.79285 41.5998 5.23832 39.2904 4.35961 38.946C3.90273 38.1095 2.58578 35.3575 1.5616 35.4492L1.5134 35.4538C1.21594 34.7174 1.16182 33.7203 0.913158 32.9591C0.893306 32.8984 0.581422 32.6136 0.509277 32.5488L0.521592 32.4301L1.12922 32.3471ZM4.05909 71.7891C3.97025 71.4825 3.92235 71.3084 3.8749 70.9927C3.67134 70.7672 3.71106 70.8336 3.34594 70.7716L3.36791 70.846C3.46059 71.166 3.46279 71.2351 3.44686 71.5648L3.55633 71.7513C3.78784 71.8067 3.82227 71.8109 4.05909 71.7891Z" fill="black" fill-opacity="0.890196"/>
<path d="M3.34619 70.7716C3.71131 70.8336 3.67159 70.7671 3.87515 70.9927C3.9226 71.3084 3.9705 71.4825 4.05934 71.7891C3.82253 71.8108 3.78809 71.8067 3.55658 71.7513L3.44712 71.5648C3.46304 71.2351 3.46084 71.166 3.36817 70.8459L3.34619 70.7716Z" fill="black" fill-opacity="0.145098"/>
<path d="M38.2867 1.55874C38.8501 1.47583 39.1558 1.46767 39.7234 1.46118L39.5929 1.79373L40.016 1.85911C39.7128 1.89563 39.1054 1.9381 38.8547 2.04491L38.8642 2.28659C38.3199 2.72112 37.4002 2.79803 36.8374 3.21079C36.6159 3.37321 36.417 4.0455 36.2171 4.21738C36.0547 4.35703 35.2517 4.63417 35.1564 4.7764C34.9764 5.04547 35.1393 5.49931 34.841 5.76408C34.4062 6.15028 34.1234 6.5028 33.8916 7.04171C33.8439 7.15266 33.7045 7.42774 33.6551 7.54256C33.6179 7.6291 33.4185 7.51248 33.4189 7.81687C33.4191 8.06841 33.5527 8.30989 33.4692 8.44172C33.3972 8.5555 32.5277 9.28039 32.5295 9.27574C32.2837 9.92088 32.1425 10.7054 31.8586 11.3359C31.8264 11.4073 31.1592 12.0193 31.1599 12.0175C30.8677 12.7493 30.8986 13.6492 30.488 14.3581C30.451 14.422 30.0365 14.4333 29.9533 14.4375C29.7242 14.4493 29.5727 14.4109 29.3686 14.5559C28.9885 15.4422 28.7825 16.3828 28.3422 17.2394C28.2035 17.5092 27.8322 17.6153 27.5526 17.7186C26.7045 18.0319 25.8479 17.5054 25.2863 16.8997C25.0083 16.5999 24.9893 16.4588 24.6348 16.1892C25.0339 16.2164 25.4665 16.221 25.8378 16.3591C26.0814 16.6557 26.0259 16.8378 26.1301 17.262C27.466 18.7811 28.7167 15.9686 29.0503 14.991C29.145 14.6163 29.16 14.3711 29.4643 14.1035C30.0001 13.6325 30.4577 13.2042 30.5523 12.4718C30.9228 11.2864 31.2074 11.0942 31.8099 10.0273C31.912 9.84646 32.047 9.03065 32.159 8.88989C32.475 8.4926 33.3965 7.66003 33.3933 7.10832C33.5494 6.90103 33.7095 6.02817 33.7386 6.00256C34.4456 5.38243 34.6986 4.82221 35.0109 3.95776L35.2001 3.73939L35.6006 3.73441C35.7597 3.53117 35.714 3.59949 35.6815 3.27335C35.9493 2.96948 36.1453 3.13757 36.5603 2.84882C37.1767 2.41995 37.5647 1.78919 38.2867 1.55874Z" fill="black" fill-opacity="0.894118"/>
<path d="M9.87402 45.6834C9.66837 43.9955 9.23276 44.6336 8.41128 43.5179C7.68055 42.5255 7.95787 42.978 7.14336 42.5568C7.13898 42.5545 6.62137 41.5137 6.36906 41.2039C6.1916 41.105 6.12182 41.1256 5.92322 41.1506C5.586 40.8706 5.7357 40.5616 5.35526 40.1469L5.32544 40.1149C4.95504 39.7104 4.56772 39.9649 4.30201 39.7086C3.97905 39.3971 3.92956 38.3519 3.4947 38.0584C3.33172 37.9483 3.27433 38.1593 2.92744 37.9195L2.937 37.7837L3.29612 37.7071L3.32572 37.6216C2.28536 37.1874 2.5081 35.9429 2.10646 35.8568C1.01864 35.6239 1.33158 35.6639 1.09834 34.307C0.921431 33.2778 0.521504 33.7427 0.128323 33.4814C-3.35099e-05 33.1525 -0.0563829 32.7493 0.0747921 32.4141C0.311601 32.3269 0.230949 32.3511 0.52165 32.4301L0.509335 32.5488C0.58148 32.6135 0.893364 32.8983 0.913216 32.9591C1.16188 33.7203 1.216 34.7174 1.51345 35.4538L1.56166 35.4491C2.58583 35.3574 3.90279 38.1095 4.35967 38.946C5.23838 39.2904 6.7929 41.5998 7.46468 42.3279C8.01287 42.8583 8.67021 43.2883 9.20783 43.8282C9.52142 44.1433 10.0333 45.0972 10.3171 45.3214C11.5016 46.2568 12.4411 46.9613 13.184 48.3301C13.2887 48.5231 14.4095 48.7896 14.4619 49.2137C14.6698 49.9535 14.4889 51.8483 14.294 52.5234C13.8702 52.6648 13.4376 52.5467 13.1865 52.7424C13.139 52.9997 13.0291 53.7245 12.9582 53.9364C12.9376 53.4232 13.0225 52.0536 13.1756 51.5683L14.3848 51.5282C14.3965 50.6745 14.3883 50.1029 14.3128 49.2554C13.7432 48.8413 13.1221 48.7231 12.7278 48.3152C12.7202 48.1485 12.6162 47.5258 12.4536 47.4669C11.4016 47.0858 11.6149 46.9041 11.1046 46.1088C11.0228 45.9816 10.1255 45.7513 9.87402 45.6834Z" fill="black" fill-opacity="0.423529"/>
<path d="M46.195 1.41916C46.3462 1.15702 46.3103 1.05532 46.5294 0.763531C46.0754 0.879771 45.3086 0.784887 44.9546 0.45982L44.9568 0.307891C45.3531 0.0337851 46.1137 0.153195 46.6228 0.205033C46.3889 0.268274 46.1621 0.312798 45.9362 0.392917C50.0759 0.269133 54.0607 0.410827 58.1804 0.303405L58.2343 0.642858C57.453 0.779026 54.5013 0.702937 53.573 0.694223C52.7593 0.622087 47.3997 0.464942 47.0562 0.72345C47.2541 0.983256 48.07 1.04003 48.3894 0.966387C50.5127 1.03723 52.6371 1.0637 54.7613 1.04579C55.3784 1.04372 57.6442 0.988138 58.151 1.05297L58.4796 1.40188L46.195 1.41916Z" fill="black" fill-opacity="0.0117647"/>
<path d="M11.6614 20.6632C12.9949 20.6426 13.2084 20.4649 14.5833 20.7312C15.5911 21.8094 15.98 21.5903 17.0904 22.3086C17.9778 22.8827 17.2328 22.9626 18.7104 23.2926L18.3446 23.354C18.0996 23.2675 17.0274 22.8231 16.9886 22.7489C16.4927 21.8006 15.8863 22.1278 14.95 21.8808C14.7022 21.8154 14.4037 21.2424 14.0549 21.2144C12.3773 20.7245 12.7476 23.6689 12.7233 24.6426L12.6086 24.673C12.5917 24.4097 12.3198 23.719 12.2174 23.4583C11.8709 23.5063 12.0977 23.7328 11.8113 23.8411C11.5761 23.3377 11.6566 21.3131 11.6614 20.6632Z" fill="black" fill-opacity="0.839216"/>
<path d="M51.1329 69.6139C51.1734 70.088 51.2211 70.7445 51.3071 71.2059L51.4598 71.2974C51.5542 71.1117 51.5091 71.175 51.6927 71.0522C52.4338 71.2106 52.6983 72.5778 52.8953 73.2449C53.849 73.6505 55.0511 74.2342 56.0941 74.1827L56.1473 74.1887C57.8796 74.9251 59.5556 74.7247 61.4442 74.706C61.8957 74.7452 62.7337 74.7067 63.1686 74.5701C62.8521 74.5323 62.6393 74.5242 62.3481 74.3911L62.3612 74.2885L62.6215 74.1567C63.1575 74.1311 63.5725 74.078 64.102 74.0066C64.4817 73.9005 66.2923 73.5039 66.6618 73.452L66.9424 73.5461C66.6472 73.6084 65.3473 73.9441 65.1982 73.9513C64.5846 74.0409 64.1989 73.9736 63.8245 74.4978L63.8489 74.5186C63.5097 74.8236 63.1625 74.7933 62.6769 74.8595C61.0545 74.7388 56.6167 74.9687 55.3542 74.6252C55.3899 74.5157 55.3923 74.5211 55.3873 74.4068C55.1432 74.2543 53.1234 73.5699 52.6484 73.3954C52.5105 72.6566 52.4655 71.863 51.5749 71.7045C50.8872 71.582 51.1108 70.1779 51.1329 69.6139Z" fill="black" fill-opacity="0.317647"/>
<path d="M68.9627 24.9983C70.3395 25.0288 74.6353 24.5469 75.7742 25.1333C75.8656 25.3397 75.752 25.7715 75.7616 26.1379L75.6754 26.1624C75.4882 25.8906 75.2552 25.36 75.0723 25.266C74.7239 25.5179 74.7129 26.4365 75.1652 26.6303L75.1603 26.7249L74.9097 26.8227C74.8152 27.1249 74.8106 27.0047 74.9044 27.2817C75.3293 27.5292 75.7121 27.2984 75.9164 27.5534L75.7822 27.7421C75.3683 27.8117 74.9462 27.7264 74.6852 27.8647C74.7375 27.5624 74.8292 25.2524 74.6946 25.0934C73.6712 24.8704 70.1611 25.0419 69.1454 25.2748C69.3836 25.4598 71.4295 25.307 71.6818 25.6135L71.5153 25.7297C69.7331 25.5629 68.959 26.1818 68.0256 26.0964C68.9943 25.718 68.1772 25.5983 68.9627 24.9983Z" fill="black" fill-opacity="0.65098"/>
<path d="M71.7831 32.9376L71.7748 33.0154C71.641 34.206 71.3489 33.7545 71.6396 35.2517C72.7781 35.6311 72.9939 36.0162 74.0978 36.4904C72.9668 36.2594 71.801 36.1946 70.6702 35.9516C70.3185 35.6336 70.421 35.25 70.4204 34.8356C70.4186 33.6534 71.1942 33.9268 71.7831 32.9376Z" fill="black" fill-opacity="0.301961"/>
<path d="M20.5274 14.7001C21.0394 14.7314 21.6846 14.6931 22.229 14.7075C22.4608 14.7646 22.9012 14.8573 23.051 15.0395C22.7662 15.0693 22.5842 15.0388 22.3586 15.2001C22.4401 15.3586 22.5845 15.3776 22.7921 15.439C22.8716 15.4621 22.9522 15.4818 23.0334 15.4981L23.2348 15.6834C23.7351 15.7708 24.1453 15.939 24.5923 16.1785C23.6475 16.0824 21.4156 15.6334 20.594 16.2804C20.3283 16.7018 20.5141 17.5617 20.2758 18.2972C20.2101 16.9162 20.5724 15.7887 20.5274 14.7001Z" fill="black" fill-opacity="0.776471"/>
<path d="M73.1067 43.7593C73.3491 43.9783 73.8152 43.986 74.1575 44.0279L74.0159 44.3013C73.7224 44.3477 73.439 44.3167 73.2534 44.4705C73.3591 44.6783 73.3015 44.6349 73.4787 44.7432C73.7247 44.5885 74.0036 44.6419 74.2862 44.6575C74.5565 44.8682 74.3544 45.1112 74.5679 45.3055C74.7152 45.9553 74.6538 47.6972 74.469 48.3278C73.9856 48.5194 73.4421 48.3106 72.7114 48.5494C72.439 48.531 71.5844 48.5686 71.2288 48.566C71.7823 48.4283 73.0695 48.4221 73.1952 47.7162C73.2416 47.4554 73.1569 47.2844 73.3495 47.0552C73.856 46.7219 74.1975 47.0286 74.5096 46.6655C74.5799 46.3524 74.5387 45.7434 74.3709 45.4748C74.1206 45.4636 74.0317 45.4387 73.7932 45.3799C74.0678 45.3247 74.0771 45.3744 74.204 45.1898L74.0718 45.0614C73.7449 44.95 73.6908 44.9613 73.3483 45.005L73.2884 45.2381L73.1959 45.1354C73.1932 44.6998 73.1414 44.1986 73.1067 43.7593Z" fill="black" fill-opacity="0.843137"/>
<path d="M67.3003 65.025C67.5048 65.7881 67.3253 66.8726 67.5548 67.5165L67.6363 67.5463C67.9602 67.1995 67.699 66.3467 67.9498 66.0204C68.1961 66.0126 68.0981 65.9846 68.3174 66.1525C68.5282 66.7379 68.7905 69.0386 68.6523 69.5963C68.4168 69.2139 68.7086 69.1778 68.4318 68.7862C68.2086 68.7411 68.1879 68.7254 67.9829 68.8011C67.9664 68.853 67.5975 70.1203 67.6009 70.0816C67.4495 70.2269 67.4483 70.2359 67.3718 70.4353L67.3499 70.1716C67.4441 69.3283 67.3032 66.0785 67.3003 65.025Z" fill="black" fill-opacity="0.192157"/>
<path d="M65.9843 56.8649C66.064 55.3316 65.4761 52.5616 67.2718 51.7751C67.0695 52.066 67.1236 51.9699 67.0097 52.2709C66.7698 52.9049 66.1982 53.2831 66.1204 54.0636C66.3937 54.2882 66.8538 54.252 66.9093 54.6198C67.0218 55.3659 67.3076 57.7188 67.1017 58.3512C66.8823 58.0484 67.0879 56.1328 66.8062 55.7158C66.4926 55.6148 66.6177 55.6117 66.3276 55.7038C66.1738 56.0012 66.4831 56.0202 66.4439 56.217C66.2535 57.1738 66.3295 59.193 66.1359 59.9977C66.0562 59.0205 66.1771 57.7806 65.9843 56.8649Z" fill="black" fill-opacity="0.305882"/>
<path d="M5.97119 32.2316L7.2062 32.3319C8.26658 32.4497 9.44186 33.0377 10.3635 33.0844C11.3033 33.3076 12.1156 33.4561 13.0645 33.6202C11.7952 33.7933 9.13266 33.649 7.90436 33.3285C8.03257 33.2577 8.14515 33.2203 8.28111 33.1695C7.79212 33.0634 7.24393 32.9736 6.72272 32.9621C6.65732 32.8887 6.6006 32.825 6.55247 32.771C6.63042 32.7243 7.33115 32.7582 7.50956 32.7574C7.31122 32.5446 6.77024 32.7378 5.97119 32.2316Z" fill="black" fill-opacity="0.917647"/>
<path d="M12.6086 24.6729L12.7234 24.6426C12.8103 25.0313 13.2014 27.6497 13.2472 27.716L13.497 27.2455L13.6084 27.2268L13.6328 27.306C13.7281 27.6085 13.73 27.5608 13.884 27.7924C14.503 28.7236 14.4123 30.199 14.7237 31.1915C15.0065 32.0929 16.6081 33.8629 14.2346 33.6274C14.8612 33.5131 15.3848 33.3627 15.0753 32.5635C15.0302 32.5419 14.7579 32.4094 14.7438 32.389C14.159 31.5317 14.651 29.0734 13.6697 28.3592C13.3796 28.6285 13.5185 29.0178 13.2676 29.2726C13.1168 29.0456 12.7206 25.3913 12.6086 24.6729Z" fill="black" fill-opacity="0.564706"/>
<path d="M51.1275 67.9473C51.3233 68.7345 51.156 69.6237 51.3938 70.3748L51.4618 70.4063L51.6671 70.2378C51.9975 70.2838 52.1132 70.2838 52.3876 70.4761C52.6325 70.8659 52.6393 71.4055 52.7959 71.8327C53.3296 73.2886 54.7747 73.8195 56.0941 74.1827C55.0511 74.2343 53.8491 73.6505 52.8954 73.245C52.6983 72.5778 52.4339 71.2107 51.6927 71.0523C51.5092 71.1751 51.5542 71.1117 51.4599 71.2975L51.3071 71.2059C51.2211 70.7445 51.1734 70.0881 51.133 69.6139C51.1172 69.0585 51.1154 68.5029 51.1275 67.9473Z" fill="black" fill-opacity="0.807843"/>
<path d="M46.6229 0.205059C46.8761 0.239623 47.0811 0.221877 47.2843 0.208926C48.6375 0.122662 57.7238 -0.195204 58.3334 0.176038L58.3245 0.302271L58.1805 0.303431C54.0608 0.410853 50.0761 0.269159 45.9363 0.392943C46.1622 0.312824 46.389 0.2683 46.6229 0.205059Z" fill="black" fill-opacity="0.466667"/>
<path d="M74.6184 36.6006C75.0102 36.657 75.5047 36.714 75.8826 36.7991C75.8974 38.22 75.9497 38.1121 77.3221 38.3626C77.3596 38.7498 77.404 39.4647 77.5205 39.8083C76.9133 39.6814 76.7807 39.6014 76.2148 39.8225C76.1388 39.1687 76.1492 38.8886 76.0182 38.1787C75.4597 37.876 75.0429 37.751 74.8998 36.9117C74.8839 36.8188 74.6941 36.6712 74.6184 36.6006ZM77.312 39.5376C77.0152 39.0991 76.7772 39.1699 76.5739 38.583C76.4735 38.5496 76.3611 38.5087 76.2601 38.4823C76.2596 38.7983 76.2109 39.229 76.3981 39.4583C76.6207 39.6007 77.0328 39.5482 77.312 39.5376Z" fill="black" fill-opacity="0.376471"/>
<path d="M76.2602 38.4823C76.3613 38.5088 76.4736 38.5497 76.5741 38.583C76.7774 39.1699 77.0153 39.0992 77.3122 39.5376C77.033 39.5483 76.6208 39.6007 76.3982 39.4583C76.211 39.229 76.2597 38.7983 76.2602 38.4823Z" fill="black" fill-opacity="0.0862745"/>
<path d="M56.1475 74.1887C56.9267 74.0927 58.9924 74.1072 59.8941 74.0836C61.0501 74.0532 63.0592 73.9171 64.1022 74.0066C63.5727 74.078 63.1576 74.1311 62.6217 74.1567C62.0331 74.1448 61.5472 74.1132 60.9918 74.3435L60.9434 74.4651C61.1468 74.6822 61.1141 74.622 61.4444 74.706C59.5558 74.7247 57.8798 74.9251 56.1475 74.1887Z" fill="black" fill-opacity="0.866667"/>
<path d="M76.2147 39.8225C76.7806 39.6013 76.9132 39.6814 77.5204 39.8083C77.4992 40.2073 77.5338 40.5982 77.3363 40.9247C76.947 41.0674 76.7126 40.7122 76.1092 41.1894C76.0297 41.4369 75.9672 41.6335 75.8649 41.8738C75.5084 42.0401 75.5237 41.7507 75.1263 41.8474L75.0037 41.8055L75.0963 41.6971L75.0324 41.2291C75.6548 40.6068 76.0162 41.2593 76.2147 39.8225Z" fill="black" fill-opacity="0.886275"/>
<path d="M63.9414 5.92261C63.9814 5.96893 64.0295 6.02479 64.0859 6.09019C64.1581 7.3545 64.2173 9.37876 64.1756 10.5548C63.9228 9.51737 64.1988 7.84348 63.9304 6.84369C63.4804 10.5037 63.8453 15.1553 63.6467 18.8865C63.6142 19.4979 63.628 21.6587 63.5044 22.133L63.4746 20.4845L63.6158 10.644C63.6302 9.81583 63.7859 6.5258 63.6478 6.03201L63.6369 5.99445L63.9414 5.92261Z" fill="black" fill-opacity="0.615686"/>
<path d="M49.7412 61.0293L49.8373 60.9961L50.0623 62.9522C50.2127 62.7117 50.0785 62.0737 50.2691 61.6301C51.3208 61.5132 51.2358 66.8001 51.1169 67.5274L51.0332 66.9301C51.0964 66.3387 51.0223 62.9988 50.2927 62.9645C50.0825 63.4184 50.3061 64.105 50.0991 64.5497L49.9874 64.5414C49.8262 63.7317 49.8774 62.512 49.7564 61.5929L49.7412 61.0293Z" fill="black" fill-opacity="0.803922"/>
<path d="M65.9843 56.8648C66.1771 57.7806 66.0562 59.0204 66.1359 59.9977C66.3295 59.193 66.2534 57.1738 66.4439 56.2169C66.4831 56.0201 66.1738 56.0011 66.3276 55.7037C66.6177 55.6116 66.4926 55.6148 66.8062 55.7157C67.0879 56.1327 66.8823 58.0483 67.1016 58.3511C67.118 58.7358 67.2127 60.5032 67.1748 60.7576C66.8951 60.2441 67.0951 58.9131 66.7828 58.2905C66.7194 58.1642 66.879 57.6929 66.6721 57.2936L66.5839 57.3385C66.2499 58.4968 66.3871 61.1658 66.0919 61.6536C65.9889 61.1284 65.9585 57.4935 65.9843 56.8648Z" fill="black" fill-opacity="0.647059"/>
<path d="M66.0918 61.6536C66.3869 61.1658 66.2497 58.4968 66.5837 57.3385L66.672 57.2936C66.8788 57.6929 66.7192 58.1642 66.7826 58.2905C67.0949 58.9131 66.895 60.2442 67.1746 60.7576L67.2544 62.3771C67.1028 61.9194 66.9329 61.4862 66.9865 61.0044L66.9945 60.9375L66.9112 61.0024L66.7921 60.5757C66.7316 60.7229 66.8004 61.2794 66.7392 61.6173C66.5839 61.3599 66.8364 60.4258 66.4685 60.1863C66.3277 60.5617 66.6136 61.7551 66.145 61.924L66.0918 61.6536Z" fill="black" fill-opacity="0.890196"/>
<path d="M18.7103 23.2926C18.9071 23.3255 18.924 23.3386 19.094 23.2534C19.2991 21.7578 19.1107 20.1858 19.339 18.6883C19.3793 18.4243 19.2612 18.2886 19.3573 17.9367L19.461 17.9036L19.5536 18.0723C19.4866 18.5963 19.6153 19.6377 19.6013 20.3357C19.5956 20.9544 19.4438 22.8888 19.6952 23.2419L19.8809 23.2963C20.1795 23.0518 20.0764 22.0278 20.1827 21.5558C20.2446 22.1832 20.2208 22.7911 20.2095 23.4208C19.5196 23.4804 19.0138 23.564 18.3445 23.354L18.7103 23.2926ZM19.4933 22.0655C19.4972 21.6798 19.5487 21.2715 19.3697 20.9451C19.3637 21.341 19.3082 21.7316 19.4933 22.0655ZM19.4796 20.601C19.4881 20.2247 19.5399 19.8121 19.3697 19.4868C19.3645 19.8706 19.3139 20.2692 19.4796 20.601Z" fill="black" fill-opacity="0.819608"/>
<path d="M19.3698 20.9451C19.5488 21.2715 19.4973 21.6798 19.4934 22.0655C19.3083 21.7316 19.3638 21.341 19.3698 20.9451Z" fill="black" fill-opacity="0.956863"/>
<path d="M19.3697 19.4868C19.5398 19.8122 19.4881 20.2247 19.4796 20.601C19.3139 20.2692 19.3645 19.8706 19.3697 19.4868Z" fill="black" fill-opacity="0.964706"/>
<path d="M49.7552 60.3711C49.4305 59.6436 46.3923 60.3036 45.5116 59.8253C45.7474 59.7877 46.0201 59.7652 46.1529 59.5677L46.0126 59.4515C45.8461 59.4886 45.7242 59.5081 45.5551 59.53L45.4929 59.4162L45.5611 59.3114C46.2562 59.3161 46.3688 59.2079 46.99 59.1416L46.9514 59.3073C47.1128 59.434 49.2026 59.6958 49.5373 59.7295C49.6736 59.9931 49.7313 60.0731 49.7552 60.3711Z" fill="black" fill-opacity="0.101961"/>
<path d="M42.0081 58.5532C44.0099 58.3081 47.5435 58.5446 49.6067 58.7132C49.8228 58.7308 49.8695 60.7225 49.8374 60.9961L49.7413 61.0293L49.7551 60.3711C49.7312 60.073 49.6735 59.993 49.5372 59.7294L49.5124 59.5822C49.2678 59.435 48.5788 59.4772 48.157 59.3868L48.1042 59.2738C48.3438 59.104 48.9839 59.0712 49.3744 58.9446L49.3152 58.8527C48.8308 58.6861 48.0206 58.6768 47.5068 58.7065C45.9474 58.6844 43.4943 58.7075 42.0081 58.5532Z" fill="black" fill-opacity="0.898039"/>
<path d="M68.0256 26.0964C68.9589 26.1818 69.733 25.5629 71.5152 25.7298C71.6232 25.8308 71.6862 25.8874 71.8048 25.9755L71.7978 26.2127C71.0755 26.4903 69.2019 26.2807 68.3444 26.325C67.6711 26.3599 66.7975 26.4857 66.1594 26.4058L66.5557 26.3469C67.0375 26.3407 67.4844 26.1276 68.0256 26.0964Z" fill="black" fill-opacity="0.905882"/>
<path d="M49.7565 61.5929C49.8775 62.512 49.8263 63.7316 49.9875 64.5413L50.0992 64.5497C50.3062 64.1049 50.0826 63.4184 50.2928 62.9645C51.0224 62.9987 51.0965 66.3386 51.0333 66.93C50.964 66.6824 50.952 66.3899 50.9294 66.1301C50.8693 65.7185 50.8234 65.1803 50.7084 64.7882C50.672 64.664 50.5726 64.6612 50.418 64.5948C49.9112 64.755 50.453 65.4645 50.1056 65.9367C49.699 65.7337 49.73 62.1688 49.7565 61.5929Z" fill="black" fill-opacity="0.341176"/>
<path d="M58.2346 0.642822L58.3246 0.795705L58.1777 0.948038C57.8619 0.699163 51.6479 0.750777 50.88 0.83509C51.3984 1.11678 57.1201 0.897335 58.1777 0.948038L58.1512 1.05293C57.6444 0.988102 55.3786 1.04369 54.7616 1.04576C52.6373 1.06367 50.5129 1.03719 48.3896 0.966351L48.4193 0.859308C48.7664 0.669326 52.853 0.710094 53.5732 0.694187C54.5015 0.702901 57.4532 0.77899 58.2346 0.642822Z" fill="black" fill-opacity="0.584314"/>
<path d="M33.1075 7.44567C33.1967 7.27233 33.2466 7.24294 33.3932 7.10828C33.3965 7.66 32.475 8.49256 32.159 8.88985C32.047 9.03061 31.9119 9.84642 31.8098 10.0272C31.2074 11.0941 30.9228 11.2864 30.5523 12.4718L30.4175 12.4955C30.5771 11.7203 30.6523 11.1555 30.6777 10.3699C32.2118 10.2425 31.8281 8.82823 32.2153 7.47893L32.4737 7.60964C32.4979 7.80875 32.5272 7.97384 32.5653 8.17072L32.658 8.17983C32.8101 7.93654 32.9599 7.69179 33.1075 7.44567Z" fill="black" fill-opacity="0.34902"/>
<path d="M6.81397 65.1398C6.81319 65.1261 7.23583 63.4523 7.28542 63.2448C7.62608 62.9699 7.78042 63.1857 8.19481 63.0029C8.60869 62.7742 8.51742 61.9581 8.77308 61.6121C8.99197 61.3159 9.75277 60.9813 9.53354 60.5177L9.20698 60.4345L9.25992 60.3098C9.95103 60.1662 9.69949 60.1226 10.0111 59.6022C10.1614 60.2085 9.41641 61.3208 9.07859 61.8158C8.5921 62.5287 8.77609 63.0698 7.92763 63.2245L7.81282 63.3883C7.89326 63.7457 7.94233 63.6941 7.81514 63.9636C7.62281 64.0298 7.59076 64.0139 7.38227 63.9895C7.06714 64.3543 7.11896 64.9807 6.81397 65.1398Z" fill="black" fill-opacity="0.537255"/>
<path d="M61.3794 2.69751C61.902 2.964 62.2395 2.99563 62.7563 3.17369C62.8182 3.84873 63.0443 4.93008 62.9985 5.48515C62.8156 4.62036 62.8928 4.54457 62.0415 4.11445C61.5026 3.84211 61.4994 3.23978 61.3794 2.69751Z" fill="black" fill-opacity="0.690196"/>
<path d="M69.9392 49.8442C69.8101 49.5413 69.8608 49.3378 69.9166 49.0227C70.0485 48.2785 70.7207 48.47 71.2287 48.566C71.5843 48.5686 72.439 48.5309 72.7113 48.5494C72.0627 48.8146 71.3767 49.0869 70.7371 49.3675C70.443 49.4966 70.351 49.6719 69.9392 49.8442Z" fill="black" fill-opacity="0.917647"/>
<path d="M7.2063 32.3318C7.87231 32.2698 10.4284 32.1866 10.8654 32.6123C10.7052 32.9764 10.6553 32.7533 10.4743 33.0387L10.3636 33.0844C9.44196 33.0376 8.26668 32.4496 7.2063 32.3318Z" fill="black" fill-opacity="0.0901961"/>
<path d="M63.2419 12.793C63.3324 13.6831 63.2996 14.8854 63.3046 15.8069L63.3387 20.6482C63.3247 21.1022 63.2825 22.7719 63.3965 23.1595C63.4686 22.9006 63.4779 22.7922 63.5022 22.5333C63.555 22.9791 63.5535 24.2201 63.3929 24.6271C63.167 24.0215 63.1446 13.8965 63.2419 12.793Z" fill="black" fill-opacity="0.6"/>
<path d="M67.3757 71.2634C67.2253 71.0459 67.2113 70.3982 67.3499 70.1716L67.3718 70.4353C67.764 70.4392 68.3285 70.476 68.6873 70.3632C68.6789 70.5501 68.6816 71.7316 68.6659 71.7939C68.2398 71.802 67.8046 71.8442 67.41 71.6924L67.4117 71.4811L67.7435 71.3154C68.0589 71.3483 68.1297 71.3664 68.4353 71.2661L68.4494 71.1578C68.1509 70.8382 67.7781 70.7154 67.3883 70.9595L67.3757 71.2634Z" fill="black" fill-opacity="0.913725"/>
<path d="M67.4809 25.2124C67.9765 25.1041 68.4578 24.9688 68.9628 24.9984C68.1774 25.5983 68.9945 25.718 68.0258 26.0964C67.4846 26.1277 67.0378 26.3407 66.5559 26.3469C67.262 26.0022 67.3336 26.0258 67.4809 25.2124Z" fill="black" fill-opacity="0.176471"/>
<path d="M35.0108 3.95774C35.0099 3.67689 34.9852 3.4147 35.0951 3.15843C35.3473 2.98793 35.2194 3.03348 35.4965 2.99618C37.1937 2.76733 36.3021 1.68454 38.2866 1.55872C37.5646 1.78917 37.1767 2.41993 36.5602 2.8488C36.1452 3.13755 35.9492 2.96946 35.6814 3.27333C35.7139 3.59947 35.7596 3.53114 35.6006 3.73439L35.2 3.73937L35.0108 3.95774Z" fill="black" fill-opacity="0.517647"/>
<path d="M50.8799 0.835183C51.6477 0.75087 57.8617 0.699256 58.1775 0.948131C57.12 0.897427 51.3983 1.11688 50.8799 0.835183Z" fill="black" fill-opacity="0.819608"/>
<path d="M19.8067 22.6317C20.0604 21.708 20.02 19.5287 20.1721 19.2959C20.2229 19.9842 20.1229 21.0261 20.1827 21.5559C20.0764 22.0279 20.1796 23.0519 19.8809 23.2964L19.6953 23.242C19.4439 22.8889 19.5957 20.9545 19.6014 20.3357C19.7079 20.6282 19.7079 22.0122 19.8067 22.6317Z" fill="black" fill-opacity="0.262745"/>
<path d="M47.5067 58.7065C48.0205 58.6767 48.8307 58.686 49.3151 58.8526L49.3744 58.9445C48.9839 59.0711 48.3437 59.1039 48.1041 59.2737L48.1569 59.3867C48.5787 59.4771 49.2677 59.435 49.5123 59.5822L49.5371 59.7294C49.2024 59.6957 47.1126 59.4339 46.9512 59.3072L46.9898 59.1415C47.3381 59.1459 47.8644 59.174 48.1359 58.9543C47.9053 58.7392 47.8617 58.7878 47.5067 58.7065Z" fill="black" fill-opacity="0.505882"/>
<path d="M67.6011 70.0816C67.5977 70.1203 67.9666 68.8531 67.9831 68.8012C68.1881 68.7254 68.2088 68.7412 68.432 68.7863C68.7087 69.1778 68.417 69.2139 68.6525 69.5963L68.694 70.2449C68.2547 69.9963 68.1012 70.0422 67.6011 70.0816Z" fill="black" fill-opacity="0.717647"/>
<path d="M48.3896 0.966373C48.0702 1.04001 47.2543 0.983242 47.0564 0.723436C47.3999 0.464927 52.7595 0.622073 53.5732 0.694209C52.853 0.710116 48.7664 0.669347 48.4193 0.859329L48.3896 0.966373Z" fill="black" fill-opacity="0.176471"/>
<path d="M62.677 74.8595C63.1626 74.7933 63.5098 74.8236 63.849 74.5186L63.8246 74.4978C64.199 73.9735 64.5847 74.0408 65.1983 73.9513C65.0711 74.1381 65.0765 74.2129 65.092 74.4354C64.6771 74.8764 63.2613 74.9318 62.677 74.8595Z" fill="black" fill-opacity="0.0862745"/>
<path d="M30.4175 12.4955L30.5523 12.4718C30.4577 13.2042 30.0001 13.6325 29.4643 14.1035C29.1599 14.371 29.145 14.6163 29.0503 14.991C29.1996 12.2215 29.8167 14.1476 30.4175 12.4955Z" fill="black" fill-opacity="0.47451"/>
<path d="M61.4444 74.7059C61.1141 74.6219 61.1468 74.6821 60.9434 74.4651L60.9917 74.3434C61.5472 74.1131 62.0331 74.1448 62.6217 74.1566L62.3614 74.2885L62.3483 74.391C62.6395 74.5241 62.8523 74.5322 63.1688 74.57C62.7339 74.7066 61.8959 74.7451 61.4444 74.7059Z" fill="black" fill-opacity="0.643137"/>
<path d="M50.1055 65.9366C50.4529 65.4645 49.9111 64.7549 50.4178 64.5947C50.5724 64.6612 50.6719 64.664 50.7083 64.7882C50.8233 65.1802 50.8692 65.7184 50.9293 66.1301C50.6537 65.8626 50.4517 65.8791 50.1055 65.9366Z" fill="black" fill-opacity="0.0745098"/>
<path d="M74.1575 44.028L74.4122 44.05C74.6504 44.3501 74.5782 44.8944 74.5678 45.3055C74.3544 45.1113 74.5565 44.8683 74.2861 44.6575C74.0036 44.6419 73.7247 44.5885 73.4787 44.7432C73.3015 44.6349 73.359 44.6783 73.2534 44.4705C73.439 44.3167 73.7224 44.3477 74.0159 44.3013L74.1575 44.028Z" fill="black" fill-opacity="0.654902"/>
<path d="M75.0039 41.8055L75.1266 41.8475L75.1526 42.0769C75.5388 42.2938 75.4919 42.0672 75.928 42.3983L75.9148 42.4914C75.6073 42.6144 74.8448 42.5505 74.4006 42.6054C74.6033 42.5229 74.6427 42.5103 74.8049 42.3652C74.8442 42.1143 74.8692 42.0243 75.0039 41.8055Z" fill="black" fill-opacity="0.745098"/>
<path d="M67.3416 72.4126L67.4181 72.4534C67.3816 72.7868 67.3354 72.7166 67.4964 72.925C67.768 72.929 68.438 72.9186 68.6555 73.0166C67.8824 73.3418 67.6999 73.0164 66.9425 73.546L66.6619 73.452C67.3994 73.1667 67.209 73.1395 67.3416 72.4126Z" fill="black" fill-opacity="0.584314"/>
<path d="M67.4102 71.6925C67.8048 71.8444 68.24 71.8022 68.6661 71.794L68.6789 72.3101C68.1877 72.1081 67.806 72.1987 67.3215 72.2342L67.4102 71.6925Z" fill="black" fill-opacity="0.0313725"/>
<path d="M22.229 14.7075C22.5098 14.6754 22.8741 14.5973 23.1106 14.7291C23.3116 15.0168 23.1817 15.3292 23.2348 15.6834L23.0334 15.4981C22.9522 15.4819 22.8716 15.4621 22.7922 15.439C22.5845 15.3776 22.4401 15.3586 22.3586 15.2002C22.5842 15.0388 22.7662 15.0693 23.051 15.0396C22.9012 14.8573 22.4608 14.7646 22.229 14.7075Z" fill="black" fill-opacity="0.662745"/>
<path d="M67.3757 71.2635L67.3883 70.9596C67.7781 70.7155 68.1509 70.8383 68.4494 71.1578L68.4353 71.2662C68.1297 71.3665 68.0589 71.3484 67.7435 71.3155L67.4117 71.4811L67.3757 71.2635Z" fill="black" fill-opacity="0.109804"/>
<path d="M63.3389 20.6481L63.4747 20.4845L63.5046 22.133L63.5023 22.5332C63.478 22.7922 63.4687 22.9005 63.3966 23.1595C63.2827 22.7719 63.3249 21.1021 63.3389 20.6481Z" fill="black" fill-opacity="0.360784"/>
<path d="M67.3215 72.2342C67.806 72.1987 68.1877 72.1081 68.6789 72.3101C68.5478 72.4851 68.6103 72.459 68.4275 72.4846C68.0916 72.5292 67.7508 72.5187 67.4183 72.4535L67.3418 72.4126L67.3215 72.2342Z" fill="black" fill-opacity="0.690196"/>
<path d="M32.2153 7.47894C32.5599 7.41955 32.7518 7.58249 33.1075 7.44568C32.9599 7.6918 32.8101 7.93655 32.658 8.17984L32.5654 8.17073C32.5273 7.97385 32.498 7.80877 32.4737 7.60965L32.2153 7.47894Z" fill="black" fill-opacity="0.2"/>
<path d="M73.2883 45.2382L73.3482 45.0051C73.6907 44.9614 73.7448 44.9501 74.0717 45.0615L74.2039 45.1899C74.077 45.3745 74.0677 45.3248 73.7931 45.38L73.2883 45.2382Z" fill="black" fill-opacity="0.580392"/>
<path d="M75.1653 26.6304C75.4728 26.4654 75.397 26.448 75.7003 26.4749L75.8358 26.6394L75.8065 26.8395C75.5325 27.0089 75.4317 26.9188 75.1604 26.725L75.1653 26.6304Z" fill="black" fill-opacity="0.819608"/>
</svg>
