<svg width="96" height="96" viewBox="0 0 96 96" fill="none" xmlns="http://www.w3.org/2000/svg">
<path d="M51.6631 6.03726C53.0664 5.93389 54.9739 5.98817 56.4157 5.9903L64.625 5.99877L71.7541 5.98814C73.4988 5.98634 75.3856 5.89679 77.0895 6.19413L77.742 6.85866C78.0431 8.19524 77.9845 8.99423 78.0309 10.2566C78.1361 13.122 77.3518 13.5592 75.4665 15.3681C74.5764 16.2221 73.5024 17.3433 72.5786 18.2533L63.4865 27.3462L31.4917 59.406C29.1742 61.4324 27.2505 64.6235 23.7485 64.3146C21.0202 64.074 19.5848 62.5202 17.8201 60.6808C15.3749 58.169 12.6781 55.7292 10.3605 53.1145C9.56793 52.2203 9.72347 47.8801 10.5052 46.8126C11.4626 45.5052 12.5464 44.6334 13.6605 43.4966C16.5725 40.5255 19.5531 37.6215 22.4932 34.6814L40.4932 16.6815L46.5706 10.6001C47.8987 9.25204 49.1823 7.86796 50.5695 6.55995C50.928 6.22191 51.1909 6.13368 51.6631 6.03726Z" fill="black"/>
<path d="M53.818 9.96409C55.6952 9.83415 59.2411 9.92931 61.1923 9.93006C64.0421 9.93127 68.6306 9.76159 71.3039 10.2694C69.7141 11.2747 67.6375 13.5473 66.2454 14.9477L59.4822 21.7291L39.5216 41.6779C35.9276 45.3359 32.2989 48.9595 28.6358 52.5482C27.3719 53.8496 25.6389 55.8623 23.9874 56.4771C22.3813 55.9072 19.992 53.0538 18.6653 51.7962C17.6795 50.8616 15.7186 49.0622 14.9705 47.99C16.1151 46.5343 18.7398 44.1199 20.1785 42.6807L30.8639 31.9903L44.9935 17.861L49.4845 13.3615C50.4148 12.4305 51.3489 11.4763 52.3295 10.5974C52.8348 10.1445 53.1622 10.0597 53.818 9.96409Z" fill="#FEFEFE"/>
<path d="M30.2784 66.3366C31.9184 65.3079 32.1341 64.8071 33.4442 63.5925C34.5494 62.5679 35.4104 61.683 36.4601 60.6239L47.0023 50.1964C47.4433 49.7618 51.6056 45.3951 51.9107 45.2736C53.0737 44.8104 57.2449 44.986 58.8288 44.9906L68.561 45.0053L74.5567 44.9832C76.32 44.9767 78.5206 44.6443 79.8405 45.9644C80.128 47.3671 80.3609 50.9164 79.5166 52.1287C78.8732 53.0524 77.4899 54.3429 76.633 55.1882L73.0344 58.785L64.1 67.7224C63.224 68.6077 62.2741 69.7232 61.4336 70.5498C62.4799 71.4807 63.7046 72.8342 64.7413 73.8683L72.2384 81.3695L76.7152 85.8108C77.6327 86.7186 78.6432 87.6353 79.4253 88.6535C79.9375 89.3204 80.0278 89.8919 80.0564 90.7298C80.1014 92.0512 80.1501 93.539 79.8048 94.8196C79.6681 95.3268 79.2423 95.5762 78.992 95.9999H53.7264L53.6705 95.9437C53.1146 95.3953 52.2086 95.0231 51.5592 94.3837C44.4758 87.4197 37.524 80.3174 30.4406 73.3554C29.7097 72.6371 29.9223 67.3887 30.2784 66.3366Z" fill="black"/>
<path d="M54.5809 48.9703C58.5729 48.8092 62.6606 49.0098 66.662 48.9355C68.847 48.8949 70.9734 48.9054 73.1454 49.1772C72.3047 49.8777 71.2055 51.0004 70.4042 51.7884L65.0657 57.126L49.2137 72.9987C48.0327 74.1528 45.5165 76.4759 44.6499 77.6974L39.0626 72.1986C37.8395 70.9949 36.1097 69.3921 35.1096 68.0739C35.6692 66.9495 36.9389 65.884 37.8425 64.9921L41.773 61.0804L48.6272 54.2223C49.7077 53.1382 53.386 49.1344 54.5809 48.9703Z" fill="#FEFEFE"/>
<path d="M56.5771 71.5083C57.4103 71.6526 70.7825 86.1786 73.1524 87.7573C69.9834 87.9739 67.1581 87.9397 63.9844 87.9355C61.5114 87.9268 59.0063 88.0485 56.5377 87.9271C55.9225 87.8968 55.2087 87.8287 54.6632 87.528C53.2536 86.751 48.7273 81.8971 47.4697 80.5043C48.7929 78.9312 50.7602 77.0818 52.2393 75.5891C53.3615 74.4565 55.367 72.3535 56.5771 71.5083Z" fill="#FEFEFE"/>
</svg>
