<svg width="36" height="36" viewBox="0 0 36 36" fill="none" xmlns="http://www.w3.org/2000/svg">
<path d="M0 17.1399C0.0576895 16.9888 0.0806611 16.5067 0.0961796 16.3327C0.116466 16.1118 0.14283 15.8914 0.17524 15.6719C0.287712 14.8463 0.457652 14.0297 0.683789 13.2282C2.08951 8.26472 5.50238 4.1337 10.0801 1.85469C14.2106 -0.250656 19.235 -0.558497 23.6169 0.905151C28.1795 2.43805 31.9535 5.74256 34.1089 10.0918C34.9186 11.7322 35.4785 13.487 35.7694 15.2969C35.8302 15.6896 35.8791 16.0841 35.916 16.4799C35.9313 16.6401 35.9566 17.1132 36 17.2444V19.1479C35.9167 19.4199 35.8954 20.1658 35.8571 20.4817C35.7525 21.2866 35.5966 22.0838 35.3902 22.8683C34.119 27.6116 31.0319 31.6465 26.8124 34.079C25.4797 34.8442 24.0557 35.4338 22.5752 35.8334C22.0518 35.9722 21.4291 36.2063 21.0927 35.622C21.0213 35.498 21.0175 35.3673 21.0052 35.2265C20.9879 34.7351 20.9972 34.2315 20.9978 33.7392L20.9985 30.6707C20.9979 29.4607 21.0502 28.1975 20.659 27.038C20.5337 26.6666 20.282 26.3879 20.4101 25.9682C20.4627 25.7964 20.5945 25.627 20.758 25.5404C21.0182 25.4267 21.3666 25.3571 21.6459 25.2765C22.0085 25.1719 22.3652 25.0474 22.7146 24.9036C25.0924 23.9406 27.2837 22.112 28.1363 19.6027C28.7084 17.9264 28.5912 16.0878 27.8109 14.4999C27.5778 14.0176 27.2948 13.5617 26.9668 13.1397C26.8905 13.0411 26.7474 12.8544 26.6676 12.7745C25.9464 12.0521 26.1193 11.922 26.4094 11.0593C26.6954 10.2092 26.5987 8.91681 26.2011 8.08031C26.1415 7.95703 26.0745 7.83753 26.0005 7.72242C25.2636 7.97781 24.1812 8.68691 23.6442 9.24803C22.9653 9.95728 22.9166 10.1254 21.9085 9.72185C19.8473 9.03549 17.6182 8.96771 15.4881 9.36328C15.0636 9.44623 14.6438 9.55164 14.2303 9.67908C14.1051 9.71774 13.9047 9.77629 13.7903 9.8242C13.006 10.1528 12.853 9.7379 12.3658 9.26022C12.1711 9.073 11.9667 8.89644 11.7534 8.73124C11.3736 8.4413 10.9696 8.18533 10.5459 7.96621C10.3841 7.88389 10.1448 7.78997 10.0057 7.71226C9.44423 8.57521 9.31038 9.73809 9.51149 10.7365C9.54545 10.9092 9.59193 11.0792 9.65051 11.2451C9.77425 11.6022 9.97112 11.9603 9.71673 12.316C9.57628 12.5123 9.41353 12.6663 9.25979 12.8496C6.15614 16.5488 7.38371 21.1913 11.1647 23.7772C11.9004 24.2772 12.6921 24.6871 13.5232 24.9984C13.6882 25.0611 13.9363 25.1473 14.0964 25.1925C14.9892 25.4438 14.9925 25.6491 14.9977 26.4856C15.0049 27.6582 14.4906 28.5838 13.2895 28.8165C13.0268 28.8618 12.7701 28.864 12.5031 28.8392C11.5436 28.7871 10.8407 28.3719 10.0785 27.8383C9.5047 27.4366 8.77141 26.8133 8.14546 26.5173C9.22206 27.9297 10.4199 30.0713 12.391 30.3332C13.0261 30.4175 13.8318 30.2725 14.4653 30.4033C14.7609 30.4643 14.9939 30.7899 14.9902 31.0806C15.0041 31.3722 14.9991 31.6615 14.9987 31.9529L14.9968 33.5292L14.9997 34.6501C15.0013 35.0723 15.0713 35.5964 14.6816 35.8683C14.4654 36.019 14.2327 36.0223 13.9847 35.9677C13.1628 35.7791 12.3133 35.5135 11.5312 35.2046C8.06945 33.8386 5.10704 31.4272 3.04632 28.298C1.66077 26.2081 0.717701 23.8504 0.276485 21.3733C0.217506 21.0361 0.168246 20.6972 0.128762 20.357C0.108606 20.1761 0.0443549 19.3237 0 19.2189V17.1399ZM13.4985 34.2763C13.5019 33.4958 13.4846 32.6635 13.5041 31.889C13.0761 31.8862 12.604 31.8999 12.1858 31.8479C10.2123 31.6031 8.86268 30.0599 7.74367 28.5414C7.10086 27.6689 6.48664 26.6383 5.64333 25.9517C5.40733 25.7677 4.82999 25.8691 4.60724 25.4452C4.53124 25.3004 4.49949 25.2198 4.50186 25.0522C4.50388 24.8381 4.59202 24.6342 4.74597 24.4875C4.9764 24.2638 5.27511 24.2798 5.5748 24.2919C6.60591 24.3334 7.58742 24.551 8.52279 24.9979C8.94792 25.2057 9.35622 25.447 9.74396 25.7195C10.6545 26.3499 11.6029 27.3001 12.7586 27.325C13.2446 27.3355 13.4613 27.1942 13.4894 26.6722C13.4834 26.6349 13.4829 26.6171 13.4495 26.6005C13.1901 26.471 12.9024 26.3935 12.6332 26.283C9.60028 25.0374 6.93837 22.5591 6.19546 19.2369C5.70818 17.0578 6.13761 14.8463 7.31971 12.9581C7.58876 12.5292 7.8905 12.1223 8.2222 11.741C7.7638 10.2989 7.81931 8.6833 8.49444 7.31862C8.65907 6.98582 9.13089 6.22936 9.49625 6.11244C9.82856 6.01597 10.1419 6.14905 10.4534 6.26649C10.8248 6.40651 11.1923 6.58409 11.5388 6.77867C12.0744 7.07869 12.5789 7.4324 13.0447 7.83447C13.2081 7.9734 13.3879 8.16055 13.5399 8.28498C14.0411 8.17112 14.5023 8.00836 15.0377 7.89627C16.8764 7.5128 18.7708 7.49079 20.6177 7.83148C21.0001 7.90106 21.379 7.98781 21.7536 8.09146C21.951 8.14557 22.2808 8.25429 22.4641 8.28655C23.278 7.43277 24.4245 6.69632 25.5187 6.27103C25.7393 6.18531 26.026 6.08081 26.2607 6.07557C26.4913 6.07042 26.6936 6.20065 26.8471 6.36858C27.7346 7.33953 28.0986 8.70452 28.0677 10.0043C28.0513 10.6867 27.9512 11.1166 27.7719 11.7481C29.2562 13.381 30.0526 15.5354 29.9918 17.7532C29.9027 20.1494 28.7476 22.3265 27.0276 23.9391C25.8532 25.0289 24.4793 25.8754 22.9838 26.4312C22.7582 26.5153 22.3794 26.6573 22.1474 26.71C22.2499 27.2046 22.3515 27.5152 22.4126 28.0386C22.5056 28.8343 22.5011 29.4984 22.5012 30.2919L22.5009 32.4306V33.5922C22.5009 33.7856 22.4933 34.0841 22.5107 34.2694C22.7362 34.1925 22.9628 34.1334 23.1908 34.0555C23.7762 33.8569 24.3501 33.6255 24.91 33.3622C28.3333 31.7348 31.1113 28.9821 32.7913 25.5523C34.7287 21.6013 35.0276 17.031 33.6213 12.8561C32.2035 8.64903 29.193 5.18398 25.252 3.22251C22.8368 2.01626 20.3614 1.49763 17.6841 1.53425C17.0464 1.55362 16.5513 1.57549 15.9142 1.65763C12.1203 2.14492 8.61256 3.95431 5.99356 6.7749C2.99726 9.98447 1.38387 14.2676 1.50847 18.6814C1.64972 23.1392 3.53962 27.3563 6.76025 30.4003C8.24843 31.8134 9.98258 32.935 11.8748 33.7082C12.4561 33.9432 12.9199 34.0784 13.4985 34.2763Z" fill="white"/>
</svg>
